<svg width="36" height="36" viewBox="0 0 36 36" fill="none" xmlns="http://www.w3.org/2000/svg">
<path fill-rule="evenodd" clip-rule="evenodd" d="M13.65 4.15106C12.8056 4.43948 12.217 4.95617 11.5325 6.00992C10.9673 6.88013 10.9205 6.91328 9.77447 7.25627C6.96564 8.09687 4.66199 9.18562 2.93669 10.4878C1.41461 11.6367 0.75882 13.0921 1.07947 14.6098C1.26509 15.4885 1.14611 15.3159 6.45108 22.3985C12.2538 30.1457 12.6766 30.7005 13.0324 31.0356C13.4149 31.396 14.2534 31.8333 14.7618 31.9376C15.2155 32.0307 16.1217 32.0176 16.5364 31.9118C16.732 31.862 17.0799 31.7289 17.3096 31.6162C18.1404 31.2084 18.1871 31.1485 21.0944 26.7685C22.5586 24.5625 24.6045 21.4651 25.6408 19.8854C29.1239 14.5759 28.974 14.8346 29.094 13.9268C29.1727 13.3316 29.1001 12.6173 28.909 12.105C28.5316 11.0935 27.4276 10.0905 25.6032 9.10167C23.9919 8.22833 22.5553 7.67322 20.6817 7.20003C20.2141 7.08191 19.7069 6.92196 19.5545 6.84453C19.3999 6.7659 18.879 6.32239 18.3759 5.84081C17.4559 4.96018 17.1071 4.69079 16.4743 4.37186C15.8819 4.07333 15.5397 3.99829 14.7779 4.00003C14.2009 4.00129 14.0158 4.02606 13.65 4.15106ZM15.2147 8.10848C15.7813 8.56277 16.8573 9.65277 17.3598 10.2814C18.1938 11.3247 18.9441 12.5544 19.3026 13.4651C19.8095 14.7529 19.8771 16.3913 19.4769 17.6917C19.1 18.9168 18.2124 20.0332 17.1346 20.638C16.8358 20.8057 16.7883 20.8185 16.8297 20.72C17.0974 20.0847 17.1768 19.78 17.2049 19.2807C17.2446 18.5733 17.192 18.4117 16.4075 16.8336C15.9025 15.8178 15.7644 15.4825 15.6866 15.0834C15.6336 14.8119 15.5698 14.5897 15.5446 14.5897C15.4524 14.5897 14.3628 15.7083 14.0873 16.0857C13.6978 16.6194 13.3084 17.4402 13.1886 17.9805C13.1154 18.3104 13.0958 18.6097 13.1155 19.0984C13.1389 19.6777 13.1672 19.8243 13.3305 20.2106C13.4339 20.4553 13.5071 20.6671 13.493 20.6813C13.4789 20.6954 13.2579 20.5937 13.0019 20.4552C11.8755 19.8462 11.101 18.9658 10.6841 17.821C10.5526 17.4596 10.5152 17.2371 10.4923 16.6787C10.4461 15.5532 10.6223 15.015 11.5482 13.4528C12.5317 11.7932 12.7913 11.1804 12.8978 10.2665C12.9199 10.0773 12.9509 9.9224 12.9666 9.9224C13.0352 9.9224 13.4005 10.214 13.7498 10.5476C14.1939 10.9718 14.1762 10.9803 14.4886 10.195C14.6719 9.73421 14.6813 9.67006 14.7024 8.74061C14.7145 8.20584 14.7393 7.76824 14.7574 7.76824C14.7756 7.76824 14.9814 7.92131 15.2147 8.10848ZM11.9579 10.802C11.9757 11.0478 11.8983 11.4336 11.8007 11.5849C11.7734 11.6272 11.4497 11.7411 11.0813 11.838C9.8277 12.1679 8.91343 12.511 7.82274 13.0609C7.23205 13.3588 6.60961 13.695 6.4395 13.8083C6.1784 13.9821 6.13938 14.0313 6.18896 14.1242C6.24714 14.2333 9.75419 18.9245 13.4145 23.7898C14.4606 25.1802 15.3434 26.3179 15.3762 26.3179C15.4089 26.3179 17.3045 23.4999 19.5886 20.0557C22.8248 15.1757 23.7289 13.7724 23.6848 13.698C23.6041 13.5617 21.7216 12.6263 20.9873 12.3576C20.6472 12.2331 20.1102 12.0569 19.794 11.9659C19.2189 11.8006 19.2189 11.8006 18.7884 11.1756C18.5516 10.8319 18.3845 10.5415 18.417 10.5302C18.6055 10.4651 20.8444 11.0907 21.8265 11.4829C22.9255 11.9219 25.012 13.083 25.179 13.3485C25.2372 13.441 24.9087 13.9485 18.2353 24.074C16.717 26.3777 15.4673 28.2712 15.4583 28.2817C15.4164 28.3302 4.56814 13.8562 4.59069 13.7819C4.62011 13.6849 5.48073 13.0866 6.30758 12.5882C7.26212 12.0129 8.26659 11.5541 9.41135 11.1707C10.287 10.8773 11.6788 10.5174 11.8502 10.5399C11.9102 10.5478 11.9457 10.6343 11.9579 10.802Z"    fill="#0A0A0A" />
</svg>
