<svg width="36" height="36" viewBox="0 0 36 36" fill="none" xmlns="http://www.w3.org/2000/svg">
<path fill-rule="evenodd" clip-rule="evenodd" d="M17.203 2.00143C14.3309 2.05477 11.5469 2.89776 9.13356 4.44488C7.22593 5.66779 5.57475 7.33483 4.35971 9.26456C3.97643 9.87327 3.50264 10.7766 3.23484 11.4093C2.60265 12.9029 2.22082 14.3969 2.06675 15.9798C2.01136 16.5489 2.00015 16.8046 2 17.5023C1.99984 18.2026 2.01068 18.4487 2.06732 19.0304C2.51599 23.6381 5.02294 27.8145 8.89045 30.3973C11.2211 31.9537 13.826 32.8201 16.6685 32.9843C17.0338 33.0054 17.9684 33.0052 18.3388 32.9839C21.0733 32.8269 23.599 32.0108 25.8886 30.5445C26.811 29.9537 27.627 29.294 28.4435 28.479C29.0037 27.9198 29.3263 27.5581 29.7389 27.0263C31.4413 24.8317 32.5143 22.2735 32.8739 19.5518C32.9681 18.839 33 18.3202 33 17.5023C33 16.8024 32.989 16.5537 32.9326 15.9743C32.6265 12.831 31.3767 9.88924 29.3132 7.45552C29.045 7.13914 28.7189 6.79101 28.3589 6.43678C25.7321 3.85181 22.2818 2.29645 18.5986 2.0369C18.2481 2.01221 17.5621 1.99477 17.203 2.00143ZM22.106 9.44979C23.2245 9.59887 24.274 10.1836 25.1668 11.1552C25.6836 11.7176 25.9528 12.043 26.2919 12.5152C27.2209 13.809 27.9037 15.2395 28.3606 16.8492C28.6344 17.8137 28.7662 18.5006 28.8649 19.4764C28.9844 20.6573 28.9145 21.2631 28.5987 21.7832C28.4364 22.0504 28.2367 22.253 28.0113 22.379C27.8083 22.4925 27.4632 22.5875 27.1942 22.604C26.7511 22.6312 25.9631 22.3125 24.9049 21.6781C24.2719 21.2986 23.8677 21.0329 23.2343 20.58C22.5928 20.1214 22.4791 20.059 22.1712 19.9963C21.8932 19.9396 21.7967 19.9405 21.4864 20.0025C20.2578 20.2479 15.7245 21.2694 14.926 21.4808C14.7182 21.5358 14.5858 21.607 14.3689 21.7804C14.1592 21.948 14.029 22.1335 13.7358 22.6824C13.5068 23.1111 12.8728 24.1404 12.4924 24.7011C12.1032 25.2746 11.6114 25.8386 11.3025 26.0656C11.0079 26.2821 10.6492 26.3935 10.2489 26.3929C9.92596 26.3924 9.69032 26.3133 9.36565 26.0962C8.77954 25.7044 8.46248 25.1215 7.91695 23.4327C7.63355 22.5554 7.41488 21.3775 7.31196 20.174C7.2745 19.736 7.27454 18.528 7.31203 18.096C7.40821 16.9881 7.61284 15.9902 7.95337 14.9687C8.07929 14.591 8.18894 14.3246 8.33713 14.0365C8.74682 13.2399 9.26466 12.6411 9.91304 12.2141C10.1005 12.0907 10.534 11.8691 10.6851 11.8195C10.9166 11.7436 11.5416 11.6245 11.8698 11.5939C12.1459 11.5681 12.7207 11.5835 12.9864 11.6238C13.4385 11.6924 13.9891 11.8321 14.4192 11.9875C14.9728 12.1875 15.2911 12.2273 15.731 12.1516C16.1836 12.0737 16.7024 11.9563 16.9429 11.8772C17.2298 11.783 17.487 11.6382 17.7179 11.4409C17.7806 11.3873 17.9442 11.2355 18.0813 11.1037C18.5745 10.6296 18.9899 10.3124 19.4895 10.0285C19.8697 9.81236 20.1413 9.70347 20.5733 9.59404C21.2621 9.41953 21.6237 9.38551 22.106 9.44979ZM20.6327 12.0244C20.3753 12.0784 20.2648 12.1223 20.1431 12.2189C19.8803 12.4277 19.6751 12.7996 19.6751 13.0672C19.6751 13.1617 19.7351 13.4668 19.7812 13.6061C19.8747 13.8891 20.2208 14.1864 20.5579 14.2734C20.8081 14.338 21.2548 14.2534 21.483 14.0983C21.6676 13.9727 21.857 13.7176 21.9432 13.4783C21.978 13.3815 21.9827 13.3468 21.9826 13.1831C21.9824 12.9089 21.9247 12.717 21.7743 12.4901C21.6366 12.2825 21.4455 12.1415 21.1717 12.0454C21.0239 11.9935 20.8179 11.9855 20.6327 12.0244ZM23.9733 13.0439C23.7176 13.0826 23.5277 13.1369 23.4297 13.1993C23.3227 13.2674 23.0884 13.5181 23.0239 13.6333C22.9927 13.6891 22.9501 13.7859 22.9292 13.8485C22.8957 13.949 22.8911 13.9875 22.8904 14.1775C22.8896 14.3632 22.8943 14.408 22.9243 14.5041C22.9895 14.7127 23.0661 14.8386 23.2225 14.9943C23.342 15.1134 23.387 15.147 23.5056 15.2062C23.7144 15.3103 23.8537 15.3406 24.0841 15.332C24.2416 15.3261 24.2903 15.3181 24.3999 15.2801C24.8138 15.1365 25.0956 14.8091 25.1764 14.3779C25.206 14.2205 25.1996 14.1249 25.1439 13.8881C25.0959 13.6834 25.0584 13.6043 24.9455 13.4686C24.7322 13.2124 24.4345 13.0537 24.1456 13.0422C24.0754 13.0394 23.9978 13.0402 23.9733 13.0439ZM12.1995 14.7364C12.1832 14.7398 12.1017 14.756 12.0185 14.7724C11.7921 14.8168 11.672 14.8635 11.5097 14.9698L11.3632 15.0657L11.3773 15.1226C11.4176 15.2848 11.6842 16.4862 11.6807 16.4897C11.6784 16.4919 11.3566 16.5657 10.9656 16.6536L10.2545 16.8135L10.2368 16.8845C10.144 17.257 10.2057 17.6873 10.3975 18.0042C10.4715 18.1264 10.5858 18.2594 10.6164 18.2589C10.6297 18.2587 10.9345 18.1959 11.2938 18.1193C11.6531 18.0428 11.9481 17.9812 11.9494 17.9825C11.9507 17.9837 12.0027 18.2118 12.0651 18.4893C12.2288 19.218 12.2544 19.3 12.3341 19.3523C12.444 19.4242 12.7416 19.4509 12.964 19.4088C13.2066 19.3627 13.5031 19.2278 13.6366 19.1025L13.7108 19.033L13.7012 18.9391C13.6959 18.8875 13.6318 18.5782 13.5587 18.2517C13.4857 17.9252 13.4306 17.6543 13.4363 17.6495C13.442 17.6447 13.6939 17.5856 13.996 17.518C14.758 17.3477 14.8267 17.3237 14.8739 17.2106C14.9109 17.1221 14.9318 16.8089 14.9112 16.653C14.8732 16.366 14.776 16.1673 14.5529 15.9198L14.5112 15.8736L13.835 16.0085C13.4632 16.0828 13.1557 16.1402 13.1516 16.1362C13.1448 16.1293 12.9876 15.4215 12.8963 14.9865C12.8741 14.8803 12.8485 14.7859 12.8395 14.7765C12.8063 14.7421 12.3177 14.7115 12.1995 14.7364ZM21.3625 15.1363C20.8957 15.2206 20.5875 15.4771 20.4368 15.9067C20.3991 16.0143 20.3952 16.0436 20.3962 16.2184C20.3971 16.3858 20.4034 16.4349 20.4442 16.5888C20.5055 16.8205 20.5455 16.8986 20.6721 17.0341C21.0374 17.4251 21.5618 17.5352 22.016 17.3161C22.3318 17.1638 22.5527 16.9035 22.6476 16.5716C22.6932 16.4122 22.6927 16.1378 22.6465 15.9669C22.5581 15.6402 22.3486 15.3872 22.0432 15.2382C21.8052 15.1221 21.6062 15.0923 21.3625 15.1363Z" fill="#0A0A0A"/>
</svg>
