<svg width="184" height="36" viewBox="0 0 184 36" fill="none" xmlns="http://www.w3.org/2000/svg">
<path d="M44.2461 11.3921C44.2755 11.3774 44.4523 11.3701 44.7763 11.3701C45.1151 11.3701 45.5201 11.3701 45.9915 11.3701C46.4775 11.3553 47.0004 11.348 47.5601 11.348C48.1199 11.348 48.6427 11.348 49.1288 11.348C49.6296 11.348 50.0494 11.348 50.3882 11.348C50.7417 11.348 50.9479 11.3553 51.0068 11.3701C51.1099 11.3701 51.2351 11.3848 51.3824 11.4142C52.4871 11.5321 53.3856 11.8561 54.0778 12.3864C54.7701 12.9166 55.1973 13.6089 55.3593 14.4632C55.4771 15.0818 55.4919 15.6636 55.4035 16.2086C55.3151 16.7536 55.1236 17.2397 54.829 17.6668C54.5492 18.0792 54.1736 18.4327 53.7023 18.7273C53.2456 19.0072 52.7007 19.2134 52.0673 19.346C51.8906 19.3901 51.7285 19.4196 51.5812 19.4343C51.4487 19.4491 51.3014 19.4638 51.1394 19.4785C50.9773 19.4932 50.7859 19.5006 50.5649 19.5006C50.344 19.5006 50.0568 19.5006 49.7033 19.5006H48.466V21.2239C48.466 21.7837 48.466 22.2182 48.466 22.5275C48.4807 22.8368 48.5102 23.0798 48.5544 23.2566C48.5986 23.4186 48.6648 23.5512 48.7532 23.6543C48.8563 23.7426 48.9962 23.8605 49.173 24.0078C49.556 24.3024 49.6959 24.5896 49.5928 24.8694C49.5044 25.1493 49.2172 25.2892 48.7311 25.2892C47.7884 25.3039 47.0225 25.3113 46.4334 25.3113C45.8589 25.326 45.4097 25.3334 45.0856 25.3334C44.7616 25.3334 44.5333 25.326 44.4007 25.3113C44.2829 25.3113 44.2092 25.3039 44.1798 25.2892C43.8557 25.1714 43.7011 24.9799 43.7158 24.7148C43.7453 24.4349 43.9294 24.1772 44.2682 23.9415C44.5627 23.7206 44.7542 23.4996 44.8426 23.2787C44.8573 23.2492 44.8647 22.9988 44.8647 22.5275C44.8794 22.0414 44.8868 21.4449 44.8868 20.7379C44.9015 20.0309 44.9089 19.2649 44.9089 18.4401C44.9089 17.6005 44.9089 16.8273 44.9089 16.1202C44.9089 15.3985 44.9015 14.7946 44.8868 14.3085C44.8868 13.8225 44.8794 13.5647 44.8647 13.5353C44.7763 13.2407 44.5775 12.9755 44.2682 12.7399C43.8999 12.46 43.7158 12.1875 43.7158 11.9224C43.7158 11.6425 43.8926 11.4658 44.2461 11.3921ZM48.466 15.4574V18.2634H48.7974C48.9005 18.2634 49.0036 18.2634 49.1067 18.2634C49.2098 18.2634 49.2982 18.256 49.3718 18.2413C49.8432 18.1971 50.2482 18.0571 50.587 17.8215C50.9258 17.5858 51.1909 17.2986 51.3824 16.9598C51.5886 16.6063 51.7212 16.2307 51.7801 15.833C51.8537 15.4206 51.839 15.0229 51.7359 14.64C51.6475 14.2423 51.4708 13.8814 51.2056 13.5574C50.9552 13.2333 50.6165 12.9755 50.1893 12.7841C50.0126 12.7104 49.7474 12.6589 49.3939 12.6294C49.0552 12.5852 48.7753 12.5779 48.5544 12.6073C48.5396 12.6073 48.5249 12.6294 48.5102 12.6736C48.4955 12.7031 48.4807 12.8062 48.466 12.9829C48.466 13.1597 48.466 13.4395 48.466 13.8225C48.466 14.2054 48.466 14.7504 48.466 15.4574Z" fill="white"/>
<path d="M56.7952 23.9415C56.9572 23.8089 57.0751 23.7058 57.1487 23.6322C57.2371 23.5585 57.296 23.4702 57.3255 23.367C57.3697 23.2492 57.3918 23.1019 57.3918 22.9252C57.4065 22.7337 57.4139 22.4759 57.4139 22.1519C57.4286 21.4743 57.4286 20.9441 57.4139 20.5611C57.4139 20.1782 57.3918 19.8762 57.3476 19.6553C57.3181 19.4343 57.2592 19.2576 57.1708 19.125C57.0824 18.9925 56.9572 18.8452 56.7952 18.6831C56.5596 18.4327 56.4049 18.2339 56.3313 18.0866C56.2576 17.9246 56.2502 17.7626 56.3092 17.6005C56.3386 17.5122 56.3681 17.4459 56.3975 17.4017C56.4417 17.3428 56.5154 17.2912 56.6185 17.247C56.7363 17.1881 56.8983 17.1366 57.1045 17.0924C57.3255 17.0335 57.6201 16.9598 57.9883 16.8714L60.1756 16.3633C60.5733 16.2602 60.8826 16.1865 61.1035 16.1423C61.3392 16.0982 61.5233 16.0761 61.6559 16.0761C61.7885 16.0761 61.8768 16.0982 61.921 16.1423C61.9799 16.1865 62.0388 16.2675 62.0978 16.3854C62.1567 16.5327 62.1567 16.68 62.0978 16.8273C62.0388 16.9598 61.8916 17.1439 61.6559 17.3796C61.4497 17.5858 61.3024 17.7552 61.214 17.8878C61.1256 18.0203 61.0667 18.1676 61.0373 18.3296C61.0373 18.3738 61.0299 18.5211 61.0152 18.7715C61.0152 19.0072 61.0152 19.3018 61.0152 19.6553C61.0152 19.994 61.0152 20.3696 61.0152 20.7821C61.0152 21.1798 61.0152 21.548 61.0152 21.8868C61.0299 22.2255 61.0373 22.5127 61.0373 22.7484C61.0373 22.9841 61.0446 23.1167 61.0594 23.1461C61.133 23.367 61.1993 23.5364 61.2582 23.6543C61.3318 23.7574 61.4865 23.912 61.7222 24.1182C61.9284 24.3245 62.0536 24.4938 62.0978 24.6264C62.142 24.7442 62.1272 24.8842 62.0536 25.0462C62.0241 25.1051 61.9873 25.1567 61.9431 25.2008C61.9136 25.245 61.8547 25.2745 61.7664 25.2892C61.6927 25.3039 61.5749 25.3113 61.4129 25.3113C61.2656 25.326 61.0446 25.3334 60.75 25.3334C59.9841 25.3481 59.3434 25.3555 58.8279 25.3555C58.3271 25.3702 57.922 25.3776 57.6127 25.3776C57.3181 25.3776 57.1045 25.3702 56.972 25.3555C56.8394 25.3555 56.7584 25.3481 56.7289 25.3334C56.4049 25.245 56.2502 25.0609 56.265 24.7811C56.2797 24.5012 56.4565 24.2213 56.7952 23.9415ZM57.7453 12.7178C57.922 12.4527 58.143 12.2612 58.4081 12.1433C58.6732 12.0108 58.9531 11.9445 59.2477 11.9445C59.5422 11.9445 59.8221 12.0108 60.0872 12.1433C60.3671 12.2759 60.588 12.4821 60.75 12.762C60.9562 13.086 61.052 13.4174 61.0373 13.7562C61.0225 14.095 60.9268 14.4043 60.75 14.6841C60.588 14.9493 60.3597 15.1628 60.0651 15.3249C59.7705 15.4869 59.4318 15.5532 59.0488 15.5237C58.71 15.4943 58.4154 15.3838 58.165 15.1923C57.9147 15.0008 57.7232 14.7725 57.5906 14.5074C57.4728 14.2275 57.4212 13.9329 57.436 13.6236C57.4507 13.2996 57.5538 12.9976 57.7453 12.7178Z" fill="white"/>
<path d="M63.3544 24.8032C63.3544 24.6411 63.3985 24.5159 63.4869 24.4276C63.59 24.3245 63.7889 24.1919 64.0835 24.0299C64.4811 23.8089 64.7831 23.6027 64.9893 23.4112C65.2102 23.2198 65.4385 22.9546 65.6742 22.6159C65.7184 22.5717 65.7994 22.4612 65.9172 22.2844C66.0498 22.1077 66.2045 21.8941 66.3812 21.6437C66.5727 21.3786 66.7789 21.084 66.9998 20.76C67.2355 20.4359 67.4712 20.0971 67.7069 19.7436L69.4744 17.2249L67.6406 17.2028H65.7847L65.2765 17.7331C64.8346 18.175 64.518 18.4696 64.3265 18.6169C64.135 18.7641 63.9583 18.8378 63.7962 18.8378C63.5016 18.8378 63.3544 18.6979 63.3544 18.418C63.3544 18.3886 63.4133 18.2486 63.5311 17.9982C63.6489 17.7478 63.7741 17.4753 63.9067 17.1808C64.054 16.8862 64.1866 16.621 64.3044 16.3854C64.437 16.135 64.5106 16.0024 64.5253 15.9877C64.5401 15.973 64.7978 15.9656 65.2986 15.9656C65.7994 15.9656 66.4254 15.9656 67.1766 15.9656C67.9278 15.9656 68.7379 15.9656 69.6069 15.9656C70.476 15.9656 71.2861 15.973 72.0373 15.9877C72.7885 15.9877 73.4144 15.995 73.9152 16.0098C74.4308 16.0245 74.6959 16.0319 74.7106 16.0319C74.9905 16.1644 75.0936 16.3485 75.0199 16.5842C74.9463 16.8052 74.718 17.0114 74.335 17.2028C73.7606 17.5122 73.3261 17.8362 73.0315 18.175C72.9873 18.2192 72.9357 18.2854 72.8768 18.3738C72.8179 18.4475 72.7001 18.6021 72.5233 18.8378C72.3613 19.0735 72.1183 19.427 71.7942 19.8983C71.4702 20.3549 71.0209 20.9883 70.4465 21.7984L68.8557 24.0741H70.7337L72.6117 24.0961L73.0757 23.6322C73.5028 23.205 73.8342 22.9031 74.0699 22.7263C74.3203 22.5496 74.5191 22.4612 74.6664 22.4612C74.7843 22.4612 74.8874 22.5054 74.9757 22.5938C75.0199 22.6379 75.0494 22.6748 75.0641 22.7042C75.0789 22.7337 75.0715 22.8 75.042 22.9031C75.0126 22.9915 74.9463 23.1314 74.8432 23.3229C74.7548 23.5143 74.6222 23.7868 74.4455 24.1403L73.8269 25.3334H72.4129C72.2214 25.3334 71.9563 25.3334 71.6175 25.3334C71.2787 25.3334 70.8957 25.3334 70.4686 25.3334C70.0562 25.3334 69.6217 25.326 69.1651 25.3113C68.7084 25.3113 68.2592 25.3113 67.8173 25.3113C66.7274 25.3113 65.8952 25.3113 65.3207 25.3113C64.761 25.3113 64.3559 25.3039 64.1055 25.2892C63.8699 25.2892 63.7373 25.2892 63.7079 25.2892C63.6784 25.2745 63.6489 25.2598 63.6195 25.245C63.4427 25.1419 63.3544 24.9946 63.3544 24.8032Z" fill="white"/>
<path d="M75.4283 24.8032C75.4283 24.6411 75.4725 24.5159 75.5609 24.4276C75.664 24.3245 75.8628 24.1919 76.1574 24.0299C76.5551 23.8089 76.8571 23.6027 77.0633 23.4112C77.2842 23.2198 77.5125 22.9546 77.7482 22.6159C77.7924 22.5717 77.8734 22.4612 77.9912 22.2844C78.1238 22.1077 78.2784 21.8941 78.4552 21.6437C78.6467 21.3786 78.8529 21.084 79.0738 20.76C79.3095 20.4359 79.5452 20.0971 79.7808 19.7436L81.5483 17.2249L79.7146 17.2028H77.8587L77.3505 17.7331C76.9086 18.175 76.5919 18.4696 76.4005 18.6169C76.209 18.7641 76.0322 18.8378 75.8702 18.8378C75.5756 18.8378 75.4283 18.6979 75.4283 18.418C75.4283 18.3886 75.4872 18.2486 75.6051 17.9982C75.7229 17.7478 75.8481 17.4753 75.9807 17.1808C76.128 16.8862 76.2605 16.621 76.3784 16.3854C76.5109 16.135 76.5846 16.0024 76.5993 15.9877C76.614 15.973 76.8718 15.9656 77.3726 15.9656C77.8734 15.9656 78.4994 15.9656 79.2506 15.9656C80.0018 15.9656 80.8119 15.9656 81.6809 15.9656C82.5499 15.9656 83.36 15.973 84.1112 15.9877C84.8624 15.9877 85.4884 15.995 85.9892 16.0098C86.5047 16.0245 86.7699 16.0319 86.7846 16.0319C87.0645 16.1644 87.1676 16.3485 87.0939 16.5842C87.0203 16.8052 86.792 17.0114 86.409 17.2028C85.8346 17.5122 85.4001 17.8362 85.1055 18.175C85.0613 18.2192 85.0097 18.2854 84.9508 18.3738C84.8919 18.4475 84.7741 18.6021 84.5973 18.8378C84.4353 19.0735 84.1923 19.427 83.8682 19.8983C83.5442 20.3549 83.0949 20.9883 82.5205 21.7984L80.9297 24.0741H82.8077L84.6857 24.0961L85.1497 23.6322C85.5768 23.205 85.9082 22.9031 86.1439 22.7263C86.3943 22.5496 86.5931 22.4612 86.7404 22.4612C86.8582 22.4612 86.9614 22.5054 87.0497 22.5938C87.0939 22.6379 87.1234 22.6748 87.1381 22.7042C87.1528 22.7337 87.1455 22.8 87.116 22.9031C87.0866 22.9915 87.0203 23.1314 86.9172 23.3229C86.8288 23.5143 86.6962 23.7868 86.5195 24.1403L85.9008 25.3334H84.4868C84.2954 25.3334 84.0302 25.3334 83.6915 25.3334C83.3527 25.3334 82.9697 25.3334 82.5426 25.3334C82.1302 25.3334 81.6956 25.326 81.239 25.3113C80.7824 25.3113 80.3332 25.3113 79.8913 25.3113C78.8013 25.3113 77.9691 25.3113 77.3947 25.3113C76.835 25.3113 76.4299 25.3039 76.1795 25.2892C75.9439 25.2892 75.8113 25.2892 75.7818 25.2892C75.7524 25.2745 75.7229 25.2598 75.6935 25.245C75.5167 25.1419 75.4283 24.9946 75.4283 24.8032Z" fill="white"/>
<path d="M89.5189 20.1413C89.7546 19.9793 90.0197 19.8468 90.3143 19.7436C90.6236 19.6258 91.0507 19.4932 91.5957 19.346C92.5679 19.0956 93.1938 18.8304 93.4737 18.5506C93.7683 18.2707 93.7462 17.9467 93.4074 17.5784C93.2159 17.3722 93.0024 17.2691 92.7667 17.2691C92.3985 17.2691 92.0818 17.5195 91.8167 18.0203C91.6546 18.3591 91.3895 18.639 91.0213 18.8599C90.6678 19.0661 90.2995 19.1692 89.9166 19.1692C89.6073 19.1692 89.379 19.0808 89.2317 18.9041C89.0844 18.7273 89.0255 18.5064 89.0549 18.2413C89.0844 17.9614 89.2022 17.6668 89.4084 17.3575C89.6294 17.0482 89.946 16.761 90.3585 16.4958C90.6678 16.2896 91.036 16.1423 91.4632 16.054C91.905 15.9509 92.3616 15.8993 92.833 15.8993C93.3485 15.8993 93.8567 15.9656 94.3575 16.0982C94.8583 16.216 95.3149 16.4075 95.7273 16.6726C96.1397 16.9377 96.4932 17.2691 96.7878 17.6668C97.0971 18.0645 97.3107 18.5358 97.4285 19.0808C97.458 19.2134 97.4801 19.3239 97.4948 19.4122C97.5095 19.5006 97.5243 19.6111 97.539 19.7436C97.5537 19.8762 97.5611 20.0603 97.5611 20.296C97.5611 20.5169 97.5611 20.8336 97.5611 21.246C97.5611 21.6585 97.5611 21.9825 97.5611 22.2182C97.5611 22.4538 97.5611 22.6379 97.5611 22.7705C97.5758 22.8883 97.5905 22.9841 97.6053 23.0577C97.6347 23.1166 97.6642 23.1903 97.6936 23.2787C97.7673 23.4407 97.8483 23.5806 97.9367 23.6985C98.0251 23.8016 98.1502 23.9194 98.3123 24.052C98.7394 24.3907 98.8204 24.7295 98.5553 25.0683C98.4669 25.1714 98.3565 25.2377 98.2239 25.2671C98.0913 25.2966 97.8409 25.3113 97.4727 25.3113C96.8541 25.3113 96.3533 25.2524 95.9703 25.1346C95.5874 25.0167 95.2412 24.8179 94.9319 24.538L94.7993 24.4055L94.711 24.5159C94.4753 24.7663 94.1513 24.9652 93.7388 25.1125C93.3411 25.245 92.9066 25.326 92.4353 25.3555H92.126C91.6399 25.3555 91.1686 25.326 90.712 25.2671C90.2554 25.2082 89.8208 25.0315 89.4084 24.7369C88.996 24.4276 88.6867 24.0667 88.4805 23.6543C88.2743 23.2418 88.1785 22.8221 88.1933 22.3949C88.208 21.9678 88.3258 21.5553 88.5468 21.1577C88.7677 20.76 89.0917 20.4212 89.5189 20.1413ZM93.1644 24.0078C93.3706 23.9341 93.5474 23.7942 93.6946 23.588C93.8419 23.367 93.9303 23.1093 93.9598 22.8147C93.9598 22.7558 93.9598 22.5569 93.9598 22.2182C93.9745 21.8647 93.9819 21.4964 93.9819 21.1135C93.9819 20.7158 93.9819 20.3549 93.9819 20.0309C93.9819 19.7068 93.9819 19.5448 93.9819 19.5448C93.9819 19.5153 93.945 19.5374 93.8714 19.6111L93.4074 19.9425C93.0686 20.1782 92.8183 20.3696 92.6562 20.5169C92.4942 20.6495 92.3469 20.8042 92.2144 20.9809C91.9492 21.3197 91.7872 21.6879 91.7283 22.0856C91.6841 22.4833 91.7062 22.8442 91.7946 23.1682C91.8977 23.4922 92.0671 23.7426 92.3027 23.9194C92.5531 24.0814 92.8403 24.1109 93.1644 24.0078Z" fill="white"/>
<path d="M100.341 11.4142C100.37 11.3995 100.628 11.3848 101.114 11.3701C101.6 11.3553 102.241 11.348 103.036 11.348C103.832 11.3332 104.745 11.3259 105.776 11.3259C106.807 11.3259 107.882 11.3259 109.002 11.3259L110.438 11.348L111.034 12.5189C111.211 12.8724 111.351 13.1523 111.454 13.3585C111.557 13.55 111.623 13.7046 111.653 13.8225C111.682 13.9256 111.682 14.0066 111.653 14.0655C111.638 14.1097 111.601 14.1613 111.542 14.2202C111.454 14.3085 111.373 14.3527 111.299 14.3527C111.182 14.3527 111.012 14.257 110.791 14.0655C110.57 13.874 110.209 13.5279 109.709 13.0271L109.245 12.5631H104.693V17.6889H105.29C105.525 17.6889 105.717 17.6815 105.864 17.6668C106.012 17.6521 106.137 17.6226 106.24 17.5784C106.343 17.5343 106.431 17.4753 106.505 17.4017C106.579 17.328 106.652 17.2249 106.726 17.0924C106.844 16.8862 106.969 16.7389 107.102 16.6505C107.249 16.5474 107.389 16.4958 107.521 16.4958C107.757 16.4958 107.941 16.6284 108.074 16.8935C108.088 16.9377 108.103 17.085 108.118 17.3354C108.133 17.5858 108.14 17.8657 108.14 18.175C108.155 18.4696 108.162 18.7568 108.162 19.0366C108.162 19.3018 108.155 19.4712 108.14 19.5448C108.096 19.7363 108.015 19.8836 107.897 19.9867C107.794 20.0751 107.676 20.1192 107.543 20.1192C107.411 20.1192 107.271 20.0751 107.124 19.9867C106.976 19.8983 106.844 19.7584 106.726 19.5669C106.623 19.4196 106.534 19.3091 106.461 19.2355C106.387 19.1471 106.306 19.0808 106.218 19.0366C106.129 18.9925 106.012 18.963 105.864 18.9483C105.732 18.9335 105.548 18.9262 105.312 18.9262H104.693V20.8042C104.693 21.4522 104.693 21.953 104.693 22.3065C104.708 22.66 104.737 22.9399 104.782 23.1461C104.841 23.3523 104.922 23.5143 105.025 23.6322C105.143 23.75 105.305 23.8973 105.511 24.0741C105.761 24.2803 105.872 24.5159 105.842 24.7811C105.813 25.0315 105.651 25.1935 105.356 25.2671C105.341 25.2671 105.209 25.2745 104.958 25.2892C104.723 25.2892 104.428 25.2892 104.075 25.2892C103.721 25.3039 103.331 25.3113 102.904 25.3113C102.491 25.3113 102.101 25.3113 101.733 25.3113C101.379 25.3113 101.077 25.3039 100.827 25.2892C100.576 25.2892 100.437 25.2892 100.407 25.2892C100.098 25.2303 99.9431 25.0756 99.9431 24.8252C99.9578 24.5748 100.127 24.3024 100.451 24.0078C100.643 23.831 100.783 23.6837 100.871 23.5659C100.959 23.4333 101.026 23.2934 101.07 23.1461C101.085 23.1167 101.092 22.8589 101.092 22.3728C101.092 21.872 101.092 21.2681 101.092 20.5611C101.107 19.8394 101.114 19.0661 101.114 18.2413C101.114 17.4017 101.114 16.6284 101.114 15.9214C101.114 15.1997 101.107 14.5958 101.092 14.1097C101.092 13.6236 101.092 13.3659 101.092 13.3364C101.033 13.1007 100.849 12.8872 100.54 12.6957C100.201 12.4895 100.009 12.2612 99.9652 12.0108C99.921 11.7457 100.046 11.5468 100.341 11.4142Z" fill="white"/>
<path d="M111.164 17.3354C111.635 16.8493 112.158 16.4958 112.733 16.2749C113.307 16.0392 113.889 15.9214 114.478 15.9214C115.067 15.9214 115.634 16.0319 116.179 16.2528C116.739 16.459 117.232 16.761 117.66 17.1587C118.102 17.5563 118.455 18.0351 118.72 18.5948C119 19.1545 119.147 19.7805 119.162 20.4727C119.191 21.1356 119.074 21.7689 118.809 22.3728C118.558 22.9767 118.212 23.507 117.77 23.9636C117.343 24.4055 116.835 24.7516 116.246 25.002C115.671 25.2524 115.075 25.3555 114.456 25.3113H114.191C113.204 25.2377 112.357 24.9136 111.65 24.3392C110.958 23.7647 110.457 23.0798 110.148 22.2844C109.838 21.4743 109.757 20.6274 109.905 19.7436C110.052 18.8452 110.472 18.0424 111.164 17.3354ZM114.655 24.052C114.876 23.9489 115.06 23.7058 115.207 23.3229C115.354 22.9252 115.465 22.4612 115.539 21.9309C115.612 21.4007 115.642 20.841 115.627 20.2518C115.612 19.6479 115.539 19.0956 115.406 18.5948C115.17 17.6668 114.868 17.2028 114.5 17.2028C114.309 17.2028 114.125 17.3501 113.948 17.6447C113.786 17.9246 113.646 18.3444 113.528 18.9041C113.41 19.5227 113.359 20.1634 113.373 20.8262C113.388 21.4743 113.447 22.0561 113.55 22.5717C113.668 23.0872 113.823 23.4922 114.014 23.7868C114.206 24.0667 114.419 24.1551 114.655 24.052Z" fill="white"/>
<path d="M120.334 17.0482C120.938 16.842 121.439 16.6726 121.837 16.54C122.234 16.4075 122.551 16.3044 122.787 16.2307C123.037 16.1571 123.214 16.1129 123.317 16.0982C123.435 16.0687 123.516 16.054 123.56 16.054C123.737 16.0687 123.869 16.1276 123.958 16.2307C124.061 16.3338 124.135 16.459 124.179 16.6063C124.238 16.7536 124.267 16.9083 124.267 17.0703C124.282 17.2323 124.289 17.3796 124.289 17.5122C124.289 17.5416 124.326 17.4974 124.4 17.3796C124.709 16.9083 125.107 16.5474 125.593 16.297C126.094 16.0466 126.624 15.9214 127.183 15.9214C127.463 15.9214 127.714 15.9509 127.935 16.0098C128.465 16.1276 128.899 16.3706 129.238 16.7389C129.577 17.0924 129.805 17.4901 129.923 17.9319C130.041 18.3738 130.034 18.8157 129.901 19.2576C129.783 19.6995 129.518 20.0603 129.106 20.3402C128.826 20.5317 128.539 20.679 128.244 20.7821C127.949 20.8704 127.67 20.9146 127.404 20.9146C127.154 20.9146 126.933 20.8778 126.742 20.8042C126.55 20.7158 126.395 20.5906 126.278 20.4286C126.233 20.3549 126.197 20.2886 126.167 20.2297C126.152 20.1561 126.145 20.0751 126.145 19.9867C126.16 19.8836 126.189 19.7584 126.233 19.6111C126.278 19.4638 126.344 19.2797 126.432 19.0587C126.624 18.5579 126.72 18.175 126.72 17.9099C126.72 17.6447 126.639 17.4532 126.476 17.3354C126.388 17.2912 126.307 17.2691 126.233 17.2691C125.939 17.2691 125.622 17.5122 125.283 17.9982C124.959 18.4843 124.702 19.0956 124.51 19.832C124.466 20.0235 124.429 20.1929 124.4 20.3402C124.37 20.4727 124.348 20.6053 124.333 20.7379C124.319 20.8557 124.304 20.9956 124.289 21.1577C124.289 21.3049 124.289 21.4891 124.289 21.71C124.289 22.034 124.289 22.2992 124.289 22.5054C124.304 22.7116 124.333 22.8957 124.378 23.0577C124.436 23.205 124.51 23.345 124.598 23.4775C124.702 23.6101 124.827 23.7574 124.974 23.9194C125.416 24.4055 125.504 24.7958 125.239 25.0904C125.195 25.1346 125.143 25.1714 125.085 25.2008C125.04 25.2303 124.952 25.2524 124.819 25.2671C124.687 25.2819 124.495 25.2892 124.245 25.2892C123.995 25.3039 123.634 25.3113 123.162 25.3113C122.75 25.3113 122.323 25.3113 121.881 25.3113C121.454 25.326 121.137 25.3334 120.931 25.3334C120.622 25.3334 120.408 25.3334 120.29 25.3334C120.172 25.3334 120.091 25.326 120.047 25.3113C119.694 25.2377 119.517 25.0683 119.517 24.8032C119.532 24.5233 119.716 24.2066 120.069 23.8531C120.275 23.6616 120.408 23.5217 120.467 23.4333C120.541 23.345 120.6 23.2492 120.644 23.1461C120.658 23.1167 120.666 22.9104 120.666 22.5275C120.681 22.1445 120.688 21.7247 120.688 21.2681C120.688 20.8115 120.688 20.3917 120.688 20.0088C120.688 19.6258 120.681 19.4122 120.666 19.368C120.607 19.1766 120.533 19.0145 120.445 18.882C120.371 18.7494 120.231 18.58 120.025 18.3738C119.686 18.0351 119.532 17.7699 119.561 17.5784C119.605 17.3722 119.863 17.1955 120.334 17.0482Z" fill="white"/>
<path d="M131.515 17.1366C131.545 17.1218 131.722 17.0556 132.046 16.9377C132.37 16.8199 132.731 16.6947 133.128 16.5621C133.541 16.4148 133.924 16.2823 134.277 16.1644C134.631 16.0319 134.844 15.9582 134.918 15.9435C135.006 15.914 135.095 15.914 135.183 15.9435C135.286 15.9582 135.375 15.995 135.448 16.054C135.537 16.1129 135.61 16.1792 135.669 16.2528C135.728 16.3265 135.757 16.4001 135.757 16.4737C135.757 16.5032 135.757 16.5179 135.757 16.5179C135.772 16.5032 135.816 16.4737 135.89 16.4296C136.111 16.2675 136.391 16.1423 136.73 16.054C137.068 15.9656 137.437 15.9214 137.834 15.9214C138.63 15.9214 139.344 16.0908 139.977 16.4296C140.625 16.7683 141.097 17.3354 141.391 18.1308C141.436 18.2634 141.465 18.3812 141.48 18.4843C141.509 18.5727 141.531 18.7126 141.546 18.9041C141.561 19.0808 141.568 19.3312 141.568 19.6553C141.568 19.9793 141.568 20.4359 141.568 21.0251C141.568 21.5406 141.568 21.9383 141.568 22.2182C141.583 22.498 141.59 22.7042 141.59 22.8368C141.605 22.9694 141.612 23.0577 141.612 23.1019C141.627 23.1461 141.642 23.1829 141.657 23.2124C141.715 23.3891 141.782 23.5291 141.855 23.6322C141.929 23.7353 142.062 23.8826 142.253 24.0741C142.503 24.3245 142.643 24.5233 142.673 24.6706C142.717 24.8032 142.68 24.9431 142.562 25.0904C142.518 25.1493 142.467 25.1935 142.408 25.2229C142.364 25.2524 142.26 25.2745 142.098 25.2892C141.936 25.3039 141.679 25.3113 141.325 25.3113C140.972 25.326 140.471 25.3334 139.823 25.3334C139.307 25.3334 138.851 25.3334 138.453 25.3334C138.055 25.3481 137.842 25.3555 137.812 25.3555C137.709 25.3555 137.628 25.3408 137.569 25.3113C137.304 25.1935 137.171 24.9946 137.171 24.7148C137.171 24.4202 137.297 24.1182 137.547 23.8089C137.665 23.6616 137.753 23.5512 137.812 23.4775C137.871 23.3891 137.915 23.2713 137.945 23.124C137.974 22.9767 137.989 22.7631 137.989 22.4833C137.989 22.2034 137.989 21.791 137.989 21.246C137.989 20.7747 137.989 20.3991 137.989 20.1192C137.989 19.8394 137.989 19.6111 137.989 19.4343C137.989 19.2576 137.982 19.1103 137.967 18.9925C137.952 18.8746 137.937 18.7421 137.923 18.5948C137.849 18.1234 137.716 17.7699 137.525 17.5343C137.334 17.2839 137.12 17.1587 136.884 17.1587C136.678 17.1587 136.472 17.2691 136.266 17.4901C136.074 17.711 135.942 18.0498 135.868 18.5064C135.853 18.639 135.831 18.9335 135.802 19.3901C135.787 19.8468 135.78 20.3328 135.78 20.8483C135.78 21.3639 135.78 21.8426 135.78 22.2844C135.794 22.7116 135.809 22.9694 135.824 23.0577C135.853 23.1903 135.912 23.3302 136.001 23.4775C136.089 23.6248 136.221 23.8016 136.398 24.0078C136.604 24.2729 136.693 24.5307 136.663 24.7811C136.634 25.0315 136.487 25.2008 136.221 25.2892C136.207 25.3039 136.082 25.3113 135.846 25.3113C135.61 25.3113 135.323 25.3113 134.984 25.3113C134.66 25.326 134.299 25.3334 133.902 25.3334C133.519 25.3334 133.15 25.3334 132.797 25.3334C132.458 25.3334 132.171 25.326 131.935 25.3113C131.7 25.3113 131.567 25.3113 131.538 25.3113C131.228 25.2377 131.074 25.0462 131.074 24.7369C131.059 24.5601 131.096 24.4055 131.184 24.2729C131.272 24.1403 131.457 23.9489 131.736 23.6985C131.943 23.5217 132.09 23.2934 132.178 23.0135C132.193 22.9694 132.2 22.7558 132.2 22.3728C132.215 21.9899 132.222 21.5774 132.222 21.1356C132.222 20.679 132.215 20.2592 132.2 19.8762C132.2 19.4932 132.193 19.2797 132.178 19.2355C132.134 19.1177 132.06 18.9998 131.957 18.882C131.869 18.7494 131.729 18.6095 131.538 18.4622C131.243 18.2118 131.088 17.9688 131.074 17.7331C131.074 17.4974 131.221 17.2986 131.515 17.1366Z" fill="white"/>
<path d="M144.603 17.3354C145.074 16.8493 145.597 16.4958 146.171 16.2749C146.746 16.0392 147.328 15.9214 147.917 15.9214C148.506 15.9214 149.073 16.0319 149.618 16.2528C150.178 16.459 150.671 16.761 151.098 17.1587C151.54 17.5563 151.894 18.0351 152.159 18.5948C152.439 19.1545 152.586 19.7805 152.601 20.4727C152.63 21.1356 152.512 21.7689 152.247 22.3728C151.997 22.9767 151.651 23.507 151.209 23.9636C150.782 24.4055 150.273 24.7516 149.684 25.002C149.11 25.2524 148.513 25.3555 147.895 25.3113H147.63C146.643 25.2377 145.796 24.9136 145.089 24.3392C144.396 23.7647 143.896 23.0798 143.586 22.2844C143.277 21.4743 143.196 20.6274 143.343 19.7436C143.491 18.8452 143.91 18.0424 144.603 17.3354ZM148.093 24.052C148.314 23.9489 148.499 23.7058 148.646 23.3229C148.793 22.9252 148.904 22.4612 148.977 21.9309C149.051 21.4007 149.08 20.841 149.066 20.2518C149.051 19.6479 148.977 19.0956 148.845 18.5948C148.609 17.6668 148.307 17.2028 147.939 17.2028C147.747 17.2028 147.563 17.3501 147.386 17.6447C147.224 17.9246 147.085 18.3444 146.967 18.9041C146.849 19.5227 146.797 20.1634 146.812 20.8262C146.827 21.4743 146.886 22.0561 146.989 22.5717C147.107 23.0872 147.261 23.4922 147.453 23.7868C147.644 24.0667 147.858 24.1551 148.093 24.052Z" fill="white"/>
<path fill-rule="evenodd" clip-rule="evenodd" d="M13.5269 3.66898C12.6507 3.96831 12.0398 4.50455 11.3294 5.59816C10.7428 6.5013 10.6942 6.5357 9.50485 6.89166C6.58975 7.76406 4.19896 8.894 2.40839 10.2454C0.828732 11.4378 0.148134 12.9483 0.480909 14.5234C0.673552 15.4353 0.550077 15.2562 6.05573 22.6068C12.078 30.647 12.5168 31.2228 12.886 31.5706C13.283 31.9446 14.1532 32.3984 14.6809 32.5067C15.1517 32.6033 16.0922 32.5897 16.5225 32.4799C16.7255 32.4282 17.0867 32.2901 17.3251 32.1731C18.1872 31.7499 18.2358 31.6877 21.253 27.1421C22.7726 24.8526 24.8959 21.638 25.9714 19.9985C29.5863 14.4882 29.4307 14.7567 29.5552 13.8145C29.6369 13.1968 29.5616 12.4555 29.3632 11.9238C28.9716 10.8741 27.8258 9.83309 25.9324 8.80687C24.2601 7.9005 22.7692 7.32439 20.8247 6.83329C20.3394 6.7107 19.813 6.5447 19.6549 6.46435C19.4944 6.38274 18.9538 5.92245 18.4317 5.42266C17.4769 4.50871 17.1149 4.22913 16.4581 3.89813C15.8434 3.58831 15.4882 3.51044 14.6975 3.51224C14.0987 3.51354 13.9067 3.53925 13.5269 3.66898ZM15.1509 7.77611C15.7389 8.24758 16.8556 9.37882 17.3771 10.0313C18.2426 11.114 19.0214 12.3902 19.3934 13.3354C19.9195 14.6719 19.9896 16.3723 19.5744 17.7219C19.1831 18.9933 18.262 20.152 17.1434 20.7796C16.8333 20.9536 16.784 20.9669 16.827 20.8648C17.1048 20.2054 17.1872 19.8892 17.2163 19.371C17.2576 18.6368 17.203 18.4691 16.3888 16.8313C15.8647 15.7771 15.7214 15.4291 15.6406 15.0149C15.5856 14.7331 15.5194 14.5025 15.4933 14.5025C15.3976 14.5025 14.2667 15.6634 13.9808 16.0551C13.5765 16.609 13.1725 17.4609 13.0481 18.0216C12.9721 18.3639 12.9519 18.6746 12.9723 19.1818C12.9965 19.783 13.0259 19.9352 13.1954 20.3361C13.3027 20.59 13.3786 20.8099 13.364 20.8245C13.3494 20.8392 13.12 20.7336 12.8543 20.5899C11.6853 19.9578 10.8815 19.0442 10.4489 17.856C10.3124 17.481 10.2736 17.2501 10.2498 16.6706C10.2019 15.5025 10.3847 14.9439 11.3456 13.3226C12.3664 11.6002 12.6358 10.9642 12.7463 10.0157C12.7693 9.81937 12.8014 9.65865 12.8177 9.65865C12.8889 9.65865 13.268 9.96133 13.6305 10.3075C14.0914 10.7477 14.073 10.7565 14.3973 9.94158C14.5875 9.46334 14.5973 9.39677 14.6192 8.43215C14.6318 7.87715 14.6575 7.423 14.6763 7.423C14.6952 7.423 14.9088 7.58186 15.1509 7.77611ZM11.7709 10.5715C11.7894 10.8266 11.709 11.227 11.6077 11.3841C11.5794 11.428 11.2435 11.5462 10.8612 11.6468C9.56008 11.9891 8.61124 12.3451 7.47928 12.9159C6.86624 13.225 6.22026 13.574 6.04372 13.6915C5.77274 13.8719 5.73224 13.923 5.7837 14.0194C5.84407 14.1326 9.48379 19.0014 13.2826 24.0506C14.3683 25.4937 15.2844 26.6744 15.3184 26.6744C15.3524 26.6744 17.3197 23.7498 19.6902 20.1753C23.0489 15.1107 23.9872 13.6543 23.9414 13.5771C23.8576 13.4356 21.9039 12.4648 21.1418 12.1859C20.7889 12.0568 20.2316 11.8739 19.9034 11.7795C19.3066 11.6079 19.3066 11.6079 18.8598 10.9593C18.614 10.6026 18.4405 10.3011 18.4743 10.2895C18.67 10.2218 20.9935 10.8711 22.0128 11.2782C23.1533 11.7338 25.3188 12.9388 25.4921 13.2143C25.5525 13.3104 25.2116 13.8371 18.2857 24.3456C16.71 26.7365 15.4131 28.7016 15.4037 28.7125C15.3602 28.7629 4.10156 13.7412 4.12496 13.6642C4.15549 13.5635 5.04867 12.9426 5.9068 12.4253C6.89745 11.8282 7.93993 11.3521 9.12798 10.9541C10.0368 10.6497 11.4812 10.2761 11.6591 10.2995C11.7213 10.3077 11.7582 10.3975 11.7709 10.5715Z" fill="white"/>
</svg>
