<svg width="184" height="36" viewBox="0 0 184 36" fill="none" xmlns="http://www.w3.org/2000/svg">
<path d="M55.0815 9H51.5941V20.8012C51.5941 21.3411 51.5154 21.7957 51.3578 22.1648C51.2003 22.5339 50.9694 22.8149 50.6652 23.0077C50.3665 23.195 49.9998 23.2887 49.5652 23.2887C49.1524 23.2887 48.7939 23.2061 48.4897 23.0408C48.1909 22.87 47.9546 22.6276 47.7808 22.3135C47.6124 21.994 47.5228 21.6111 47.5119 21.1648H44.0001C43.9947 22.2887 44.231 23.2226 44.709 23.9664C45.187 24.7046 45.8334 25.2556 46.6482 25.6192C47.4685 25.9773 48.3811 26.1564 49.386 26.1564C50.5159 26.1564 51.5072 25.9387 52.3601 25.5035C53.2129 25.0683 53.8783 24.4484 54.3563 23.6441C54.8398 22.8397 55.0815 21.8921 55.0815 20.8012V9Z" fill="white"/>
<path fill-rule="evenodd" clip-rule="evenodd" d="M60.3126 25.3795C61.2415 25.9084 62.3496 26.1729 63.637 26.1729C64.6691 26.1729 65.579 26.0131 66.3666 25.6936C67.1597 25.3685 67.8061 24.9167 68.3059 24.3383C68.8111 23.7543 69.1451 23.0711 69.3081 22.2887L66.0978 22.0739C65.9782 22.3934 65.8044 22.6634 65.5763 22.8838C65.3481 23.1041 65.0738 23.2694 64.7533 23.3796C64.4328 23.4898 64.0797 23.5449 63.6941 23.5449C63.1128 23.5449 62.6104 23.4209 62.1867 23.173C61.763 22.9251 61.4343 22.5725 61.2007 22.1152C60.9726 21.6579 60.8585 21.1152 60.8585 20.4872L69.3814 20.4789V19.512C69.3814 18.4321 69.2321 17.49 68.9333 16.6857C68.6345 15.8758 68.2163 15.2036 67.6785 14.6692C67.1461 14.1348 66.5215 13.7354 65.8044 13.4709C65.0928 13.2009 64.3242 13.066 63.4985 13.066C62.2709 13.066 61.2007 13.3414 60.2882 13.8924C59.381 14.4433 58.6775 15.2119 58.1778 16.1981C57.678 17.1843 57.4282 18.3302 57.4282 19.636C57.4282 20.9747 57.678 22.1345 58.1778 23.1152C58.6775 24.0903 59.3891 24.8451 60.3126 25.3795ZM66.1141 18.2972H60.8618C60.8672 17.9122 60.9807 17.457 61.2089 17.0493C61.437 16.6361 61.7521 16.3083 62.1541 16.0658C62.5615 15.8179 63.0286 15.694 63.5555 15.694C64.0607 15.694 64.5034 15.8069 64.8837 16.0328C65.2694 16.2532 65.5708 16.5589 65.7881 16.9501C66.0054 17.3413 66.1141 17.7903 66.1141 18.2972Z" fill="white"/>
<path d="M78.3036 13.2312V15.8758H75.9488V22.0243C75.9488 22.3494 75.9977 22.6028 76.0955 22.7846C76.1932 22.9609 76.3291 23.0849 76.5029 23.1565C76.6821 23.2281 76.8886 23.2639 77.1221 23.2639C77.2851 23.2639 77.4481 23.2501 77.611 23.2226C77.774 23.1895 77.8989 23.1647 77.9858 23.1482L78.5318 25.768C78.3579 25.823 78.1135 25.8864 77.7984 25.958C77.4834 26.0352 77.1004 26.082 76.6495 26.0985C75.813 26.1316 75.0797 26.0186 74.4496 25.7597C73.8249 25.5007 73.3387 25.0986 72.991 24.5531C72.6434 24.0077 72.4723 23.319 72.4777 22.4871V15.8758H70.7666V13.2312H72.4777V10.19H75.9488V13.2312H78.3036Z" fill="white"/>
<path d="M87.2217 15.8758V13.2312H84.8669V10.19H81.3958V13.2312H79.6847V15.8758H81.3958V22.4871C81.3904 23.319 81.5615 24.0077 81.9091 24.5531C82.2568 25.0986 82.743 25.5007 83.3677 25.7597C83.9978 26.0186 84.7311 26.1316 85.5676 26.0985C86.0185 26.082 86.4015 26.0352 86.7165 25.958C87.0316 25.8864 87.276 25.823 87.4499 25.768L86.9039 23.1482C86.817 23.1647 86.6921 23.1895 86.5291 23.2226C86.3662 23.2501 86.2032 23.2639 86.0402 23.2639C85.8067 23.2639 85.6002 23.2281 85.421 23.1565C85.2472 23.0849 85.1114 22.9609 85.0136 22.7846C84.9158 22.6028 84.8669 22.3494 84.8669 22.0243V15.8758H87.2217Z" fill="white"/>
<path d="M91.9517 25.925L88.5458 13.2312H92.0576L93.9969 21.7598H94.1109L96.1317 13.2312H99.5783L101.632 21.7103H101.738L103.644 13.2312H107.148L103.75 25.925H100.075L97.9242 17.9418H97.7694L95.6183 25.925H91.9517Z" fill="white"/>
<path fill-rule="evenodd" clip-rule="evenodd" d="M110.434 25.7432C111.058 26.0241 111.77 26.1646 112.568 26.1646C113.188 26.1646 113.734 26.082 114.206 25.9167C114.679 25.7459 115.083 25.5118 115.42 25.2143C115.757 24.9112 116.026 24.5614 116.227 24.1647H116.325V25.925H119.617V17.3633C119.617 16.6085 119.473 15.9612 119.185 15.4212C118.897 14.8758 118.503 14.4295 118.003 14.0824C117.509 13.7354 116.941 13.4792 116.3 13.3139C115.665 13.1486 114.999 13.066 114.304 13.066C113.304 13.066 112.424 13.2202 111.664 13.5288C110.909 13.8318 110.292 14.267 109.814 14.8345C109.336 15.3964 109.016 16.0631 108.853 16.8344L112.063 17.0989C112.183 16.6801 112.427 16.3331 112.797 16.0576C113.166 15.7766 113.663 15.6361 114.288 15.6361C114.88 15.6361 115.336 15.7794 115.657 16.0658C115.982 16.3523 116.145 16.7573 116.145 17.2807V17.3303C116.145 17.6002 116.045 17.8041 115.844 17.9418C115.643 18.0795 115.32 18.1842 114.874 18.2558C114.429 18.322 113.842 18.3936 113.114 18.4707C112.495 18.5313 111.903 18.636 111.338 18.7847C110.779 18.9335 110.279 19.1539 109.839 19.4459C109.399 19.7379 109.051 20.1235 108.796 20.6029C108.541 21.0822 108.413 21.6744 108.413 22.3797C108.413 23.2171 108.592 23.9168 108.951 24.4787C109.315 25.0352 109.809 25.4567 110.434 25.7432ZM114.915 23.4292C114.524 23.633 114.073 23.735 113.562 23.735C113.03 23.735 112.59 23.611 112.242 23.3631C111.9 23.1097 111.729 22.7433 111.729 22.264C111.729 21.9334 111.813 21.6579 111.982 21.4375C112.15 21.2117 112.386 21.0326 112.691 20.9004C112.995 20.7681 113.351 20.6717 113.758 20.6111C113.948 20.5836 114.16 20.5533 114.394 20.5202C114.627 20.4817 114.861 20.4403 115.094 20.3963C115.328 20.3467 115.537 20.2943 115.722 20.2392C115.912 20.1786 116.061 20.1125 116.17 20.0409V21.388C116.17 21.8342 116.059 22.2337 115.836 22.5863C115.613 22.9389 115.306 23.2198 114.915 23.4292Z" fill="white"/>
<path d="M133.529 13.2312L129.154 25.925H125.243L120.867 13.2312H124.534L127.133 22.3135H127.264L129.855 13.2312H133.529Z" fill="white"/>
<path fill-rule="evenodd" clip-rule="evenodd" d="M137.282 25.3795C138.211 25.9084 139.319 26.1729 140.606 26.1729C141.638 26.1729 142.548 26.0131 143.336 25.6936C144.129 25.3685 144.775 24.9167 145.275 24.3383C145.78 23.7543 146.114 23.0711 146.277 22.2887L143.067 22.0739C142.947 22.3934 142.773 22.6634 142.545 22.8838C142.317 23.1041 142.043 23.2694 141.722 23.3796C141.402 23.4898 141.049 23.5449 140.663 23.5449C140.082 23.5449 139.579 23.4209 139.156 23.173C138.732 22.9251 138.403 22.5725 138.17 22.1152C137.942 21.6579 137.828 21.1152 137.828 20.4872V20.4789H146.35V19.512C146.35 18.4321 146.201 17.49 145.902 16.6857C145.604 15.8758 145.185 15.2036 144.648 14.6692C144.115 14.1348 143.49 13.7354 142.773 13.4709C142.062 13.2009 141.293 13.066 140.468 13.066C139.24 13.066 138.17 13.3414 137.257 13.8924C136.35 14.4433 135.647 15.2119 135.147 16.1981C134.647 17.1843 134.397 18.3302 134.397 19.636C134.397 20.9747 134.647 22.1345 135.147 23.1152C135.647 24.0903 136.358 24.8451 137.282 25.3795ZM137.831 18.2972C137.852 17.8413 137.967 17.4254 138.178 17.0493C138.406 16.6361 138.721 16.3083 139.123 16.0658C139.531 15.8179 139.998 15.694 140.525 15.694C141.03 15.694 141.472 15.8069 141.853 16.0328C142.238 16.2532 142.54 16.5589 142.757 16.9501C142.974 17.3413 143.083 17.7903 143.083 18.2972H137.831Z" fill="white"/>
<path fill-rule="evenodd" clip-rule="evenodd" d="M10.865 13.2324C10.2286 13.3303 9.73426 13.8087 9.61448 14.4427C9.58722 14.587 9.58667 18.6488 9.61386 18.9351C9.73395 20.1996 10.2064 21.3345 11.0109 22.2914C11.1685 22.4788 11.527 22.8359 11.7194 22.9972C12.3912 23.56 13.1874 23.9759 13.9988 24.1875C14.9852 24.4447 15.9977 24.4466 16.9766 24.193C18.471 23.806 19.7681 22.8209 20.5761 21.4597C20.6572 21.3229 20.8378 20.9694 20.9064 20.8128C20.9941 20.6127 21.1243 20.2535 21.1666 20.0948C21.2173 19.9049 21.235 19.833 21.2714 19.6705C21.3156 19.4735 21.3635 19.1564 21.3903 18.8842C21.4027 18.7585 21.4062 18.2554 21.4062 16.6502C21.4062 14.674 21.4052 14.5735 21.3832 14.4723C21.3191 14.1763 21.1942 13.9323 21.0019 13.7272C20.796 13.5077 20.5332 13.3582 20.2339 13.2905C20.1143 13.2634 19.7553 13.2596 19.6504 13.2843C19.3286 13.36 19.1166 13.4716 18.9021 13.6779C18.7014 13.871 18.5488 14.1386 18.4916 14.3974C18.4833 14.4352 18.4705 14.4857 18.4633 14.5098C18.4544 14.5395 18.4479 15.222 18.443 16.6439C18.4358 18.7218 18.4356 18.7353 18.4089 18.8842C18.3211 19.3733 18.1417 19.8022 17.8724 20.1662C17.5871 20.5519 17.2431 20.8476 16.8337 21.0589C16.5166 21.2227 16.266 21.3017 15.8677 21.3633C15.7314 21.3843 15.2668 21.3842 15.1283 21.3631C14.7335 21.3028 14.4796 21.2228 14.1623 21.0589C13.8931 20.9199 13.6595 20.7498 13.4414 20.534C13.2035 20.2985 13.0209 20.0479 12.8676 19.7463C12.7348 19.4853 12.6353 19.1736 12.5823 18.853C12.5634 18.7383 12.5601 18.6082 12.5563 17.8134C12.552 16.9215 12.5524 16.9032 12.5778 16.8092C12.6136 16.6772 12.6685 16.5783 12.7616 16.4781C12.9892 16.2333 13.3434 16.1663 13.6432 16.3112C13.8401 16.4065 13.9597 16.5452 14.0484 16.7812C14.0735 16.848 14.0744 16.8755 14.0816 17.7859C14.0895 18.7925 14.0878 18.7659 14.157 18.984C14.198 19.1132 14.2957 19.3037 14.3767 19.4124C14.7807 19.9544 15.4854 20.1558 16.1088 19.9073C16.2884 19.8358 16.436 19.7373 16.5907 19.5858C16.7953 19.3854 16.9217 19.1649 16.9982 18.875L17.032 18.7469V16.619C17.032 14.6203 17.0307 14.4855 17.0101 14.3994C16.8633 13.7873 16.408 13.3486 15.8096 13.2429C15.7184 13.2268 15.3808 13.2245 13.3 13.226C11.9777 13.2269 10.882 13.2298 10.865 13.2324Z" fill="white"/>
<rect x="2.84375" y="5.84375" width="25.3125" height="25.3125" rx="5.90625" stroke="white" stroke-width="1.6875"/>
</svg>
