<svg width="184" height="36" viewBox="0 0 184 36" fill="none" xmlns="http://www.w3.org/2000/svg">
<path d="M95.6596 10C97.3323 10 98.5979 10.4367 99.4565 11.31C100.33 12.1686 100.767 13.4342 100.767 15.1069V20.4359C100.767 22.1086 100.33 23.3817 99.4565 24.255C98.5979 25.1136 97.3323 25.5429 95.6596 25.5429H87V10H95.6596ZM96.7698 15.1069C96.7698 13.7747 96.1037 13.1086 94.7714 13.1086H90.9967V22.4343H94.7714C96.1037 22.4343 96.7698 21.7682 96.7698 20.4359V15.1069Z" fill="white"/>
<path d="M115.304 25.5429H102.981V10H115.304V13.1086H106.978V16.1061H113.528V19.2147H106.978V22.4343H115.304V25.5429Z" fill="white"/>
<path d="M124.625 25.5429H120.628V13.1086H115.965V10H129.288V13.1086H124.625V25.5429Z" fill="white"/>
<path d="M132.059 25.5429H127.729L133.613 10H138.054L143.938 25.5429H139.608L138.609 22.7673H133.058L132.059 25.5429ZM134.057 19.8808H137.61L135.833 14.6629L134.057 19.8808Z" fill="white"/>
<path d="M152.375 25.5429H144.381V22.4343H146.379V13.1086H144.381V10H152.375V13.1086H150.376V22.4343H152.375V25.5429Z" fill="white"/>
<path d="M158.368 22.4343H166.472V25.5429H154.371V10H158.368V22.4343Z" fill="white"/>
<path d="M176.691 10C178.364 10 179.63 10.4367 180.488 11.31C181.362 12.1686 181.798 13.4342 181.798 15.1069V20.4359C181.798 22.1086 181.362 23.3817 180.488 24.255C179.63 25.1136 178.364 25.5429 176.691 25.5429H168.032V10H176.691ZM177.802 15.1069C177.802 13.7747 177.136 13.1086 175.803 13.1086H172.029V22.4343H175.803C177.136 22.4343 177.802 21.7682 177.802 20.4359V15.1069Z" fill="white"/>
<path fill-rule="evenodd" clip-rule="evenodd" d="M31.3088 8.00463C31.2683 8.01032 31.1303 8.02706 31.002 8.04186C28.957 8.27766 27.095 9.94747 26.6204 11.971L26.5761 12.1598L26.476 12.0742C25.9585 11.632 25.6731 11.4379 25.184 11.1951L24.8266 11.0178L24.4846 10.9042C23.3362 10.5228 22.1265 10.5228 20.9781 10.9042L20.6361 11.0178L20.2787 11.1953C19.1861 11.7381 18.3535 12.5664 17.8101 13.6513L17.659 13.953L17.5445 14.3033C17.4816 14.496 17.4184 14.7014 17.4042 14.7598L17.3783 14.8659L17.1895 14.6858C16.3932 13.9259 15.518 13.4834 14.4484 13.2998L14.203 13.2577H13.6753H13.1477L12.9023 13.2998C10.7282 13.6729 9.07334 15.324 8.73143 17.461C8.68653 17.7417 8.71236 17.7227 8.49865 17.6329C8.40011 17.5914 8.21307 17.5291 8.08303 17.4943L7.84659 17.4311H7.4294H7.01218L6.77484 17.4945C6.46065 17.5786 6.19149 17.6977 5.92769 17.8693L5.71145 18.01L5.49968 18.2215L5.28788 18.4331L5.13775 18.6654C4.8836 19.0587 4.73399 19.5009 4.70221 19.953L4.68618 20.1811L4.59753 20.1605C4.13359 20.0527 3.55901 20.2913 3.25418 20.7185L3.14131 20.8767L3.08174 21.0479C3.01204 21.2483 2.98608 21.475 3.01045 21.6701L3.0278 21.8091L3.14253 21.714C3.60032 21.3347 3.8974 21.2817 6.39862 21.1326C8.47044 21.0092 8.31415 21.0442 11.712 19.9431C13.7288 19.2895 14.2304 19.1298 15.2092 18.8294C22.2872 16.6573 28.0369 15.4803 33.444 15.0966C35.3138 14.9639 36.1181 14.964 37.5915 15.0972C40.2095 15.3339 41.5272 15.9302 44.4584 18.2052C46.2844 19.6224 48.1476 21.2854 48.5978 21.8996L48.7281 22.0776H49.292H49.8559L49.84 22.0224C49.8312 21.992 49.8176 21.8677 49.8095 21.7462L49.795 21.5254L49.8342 21.3728C49.8556 21.2889 49.9118 21.144 49.9588 21.0507L50.0442 20.8813L50.1863 20.7558C50.4549 20.5192 50.7506 20.4111 51.2861 20.3542L51.5806 20.3228L53.7524 20.3248C56.5639 20.3274 58.3193 20.3727 59.4462 20.4715C62.4065 20.7313 65.3682 21.5863 66.2444 22.4339L66.3793 22.5646L66.8089 22.6411C68.66 22.9712 70.1731 23.4499 70.9564 23.9532C71.0442 24.0096 71.1293 24.0639 71.1456 24.0738L71.1755 24.0918L71.2409 23.9928C71.4739 23.641 71.3924 22.8274 71.0551 22.136L70.91 21.8386L70.7621 21.6423C70.2579 20.9734 69.5006 20.5376 68.6573 20.4315L68.4198 20.4016L68.1115 20.4165C67.3333 20.4543 66.7631 20.6629 66.3397 21.0646L66.2019 21.1954L66.1847 21.0168C65.7158 16.162 58.9439 14.8436 56.6384 19.1584L56.537 19.3478L56.3807 19.1643C55.8916 18.5904 55.1678 18.1683 54.383 17.9991L54.1329 17.9452H53.6788H53.2247L52.9749 17.9991C52.3334 18.1374 51.7656 18.4243 51.2819 18.8547C51.0447 19.0658 51.0867 19.0554 50.915 18.9455C50.5216 18.6938 49.8578 18.4952 49.4085 18.4946L49.2981 18.4944V17.9606V17.4269L49.2416 17.1487C48.8518 15.2241 47.2979 13.7613 45.3102 13.4477L45.0522 13.4071L44.6105 13.4083L44.1688 13.4094L43.8791 13.4607C43.2159 13.5782 42.6221 13.8152 42.1101 14.1667C42.0039 14.2397 41.9146 14.2963 41.9122 14.2925C41.9094 14.2886 41.8947 14.1529 41.8787 13.991C41.6904 12.0535 39.8387 10.7713 37.9475 11.2687L37.7143 11.33L37.4382 11.4626C37.2861 11.5356 37.0788 11.6527 36.9775 11.7229C36.8758 11.7931 36.7892 11.8462 36.785 11.8409C36.7804 11.8356 36.7343 11.7046 36.6818 11.5498C36.0578 9.70807 34.4397 8.35263 32.5036 8.04974L32.2659 8.01255L31.8242 8.00345C31.5812 7.99842 31.3493 7.99896 31.3088 8.00463ZM16.1664 8.71394C15.5268 8.85474 15.0659 9.3216 14.9366 9.95957L14.8959 10.1605L14.9101 10.3617L14.9243 10.5629L14.9888 10.7553C15.5039 12.2921 17.7114 12.1548 18.0333 10.5661L18.0749 10.3606L18.0607 10.1594L18.0465 9.95825L17.982 9.76606C17.7247 8.99971 16.9383 8.54399 16.1664 8.71394ZM43.5798 8.71394C42.9401 8.85474 42.4794 9.3216 42.35 9.95957L42.3092 10.1605L42.3234 10.3617L42.3379 10.5629L42.4022 10.7553C42.9172 12.2921 45.1249 12.1548 45.4469 10.5661L45.4885 10.3606L45.4743 10.1594L45.4601 9.95825L45.3956 9.76606C45.1382 8.99971 44.3519 8.54399 43.5798 8.71394ZM55.2372 14.285C54.5978 14.4258 54.1368 14.8926 54.0077 15.5306L53.9669 15.7316L53.9811 15.9328L53.9953 16.134L54.0596 16.3264C54.5749 17.8631 56.7823 17.7259 57.1043 16.1371L57.1459 15.9317L57.1317 15.7305L57.1175 15.5293L57.053 15.3371C56.7956 14.5707 56.0093 14.115 55.2372 14.285ZM35.162 16.0308C32.1897 16.1911 30.2734 16.3958 27.7011 16.8281C23.1769 17.5883 18.6714 18.7628 12.1905 20.8713C8.52309 22.0645 8.64987 22.0366 6.27591 22.1756C3.70465 22.3262 3.76978 22.3042 3.5987 23.0795C3.18727 24.9438 2.9128 27.0285 3.0254 27.4339L3.05094 27.5259H3.09711H3.14327L3.19233 27.3948C3.21933 27.3227 3.37455 26.7258 3.53729 26.0684C3.93585 24.4584 4.02828 24.1436 4.20751 23.7856L4.30463 23.5917L4.43129 23.4651L4.55797 23.3385L4.69438 23.274C5.67515 22.8104 7.09367 22.7226 15.3442 22.6146L17.4916 22.5865L19.2341 22.6022C24.1119 22.6461 24.8519 22.7826 25.6218 23.7801L25.733 23.9243L25.8458 23.9753L25.9586 24.0262H26.1427H26.3268L26.4004 23.987C26.441 23.9654 26.4962 23.9234 26.5231 23.8936L26.5722 23.8394L26.5705 23.725L26.5688 23.6105L26.4846 23.4519C25.7858 22.1354 22.7044 21.6482 16.24 21.8321C15.3683 21.8569 14.8739 21.8771 12.8349 21.9713L11.9086 22.0141L11.8809 21.9863L11.8531 21.9586L12.0218 21.8736C14.2481 20.753 25.5513 17.8498 30.4744 17.1342C37.5927 16.0994 40.1658 16.6677 44.4632 20.2231C44.8422 20.5364 45.0781 20.7408 46.2163 21.7417C47.0653 22.4883 47.5616 22.8383 47.771 22.8383L47.8389 22.8384L47.8661 22.7786L47.8935 22.7188L47.8311 22.6121C47.4093 21.8926 43.9741 18.9961 41.9722 17.672C40.3019 16.5672 39.2663 16.2421 36.8921 16.0773C36.3384 16.0389 35.4538 16.0151 35.162 16.0308ZM71.0913 17.0337C70.4519 17.1745 69.9909 17.6414 69.8618 18.2793L69.821 18.4803L69.8352 18.6815L69.8494 18.8827L69.914 19.0751C70.429 20.6118 72.6364 20.4746 72.9584 18.8858L73 18.6804L72.9858 18.4792L72.9716 18.278L72.9071 18.0858C72.6497 17.3195 71.8634 16.8637 71.0913 17.0337ZM34.389 17.209C28.9217 17.3366 27.4558 17.7166 27.2058 19.0712L27.1695 19.2675L27.1836 19.5129C27.2292 20.3136 27.9345 22.615 28.232 22.9344L28.2821 22.9881L28.316 22.96L28.3499 22.9318L28.3356 22.8176C28.3128 22.6356 28.2224 22.2682 27.9965 21.4395C27.7571 20.5614 27.6515 20.0826 27.6174 19.7197L27.5937 19.4685L27.617 19.2635C27.7062 18.4786 28.2798 18.1428 29.9344 17.9067C31.3352 17.7068 33.835 17.5285 36.1314 17.4647C37.3655 17.4304 37.6099 17.4183 37.6382 17.39L37.6627 17.3655L37.6355 17.3382C37.5453 17.2481 35.7594 17.177 34.389 17.209ZM24.5843 18.4935C24.4911 18.5154 24.3686 18.5787 24.3304 18.6248L24.301 18.6603L24.3246 18.7184C24.3376 18.7505 24.3749 18.8011 24.4075 18.8311C24.6438 19.0479 25.0633 20.4483 25.0721 21.0491L25.0751 21.2599L25.0441 21.2973L25.0132 21.3348L25.0451 21.3613C25.1758 21.4698 25.9067 21.4673 25.9761 21.3582C25.9864 21.3421 25.9948 21.2439 25.9951 21.1399L25.9955 20.9508L25.9117 20.6245C25.5995 19.4088 24.9725 18.4022 24.5843 18.4935ZM39.744 18.5975C39.6637 18.6777 39.7256 18.8875 40.0713 19.7092C40.6443 21.0707 40.9309 21.617 41.0378 21.551C41.1355 21.4907 40.9503 20.9573 40.405 19.7288C39.9781 18.7668 39.8294 18.5121 39.744 18.5975ZM23.1605 18.8363C22.8197 18.9577 22.7822 19.0035 22.917 19.1339C23.1773 19.3855 23.5765 20.5227 23.5973 21.0714L23.6026 21.2133L23.5596 21.2608C23.4958 21.3315 23.5067 21.3641 23.6087 21.4074L23.7007 21.4465L23.9339 21.4575L24.1671 21.4685L24.2649 21.4356L24.3627 21.4027L24.3976 21.3298L24.4325 21.257L24.4035 21.0844C24.3374 20.6911 23.9337 19.4124 23.7773 19.1015L23.6762 18.9003L23.5928 18.8446L23.5094 18.7889L23.3965 18.7907C23.3344 18.7917 23.2282 18.8122 23.1605 18.8363ZM21.8897 19.1445C21.7716 19.1893 21.6589 19.2692 21.6253 19.3319L21.5992 19.3807L21.6894 19.4806C21.8341 19.6407 22.0381 20.1556 22.1687 20.6903L22.2405 20.9842V21.1229V21.2617L22.2051 21.291C22.1557 21.332 22.1813 21.3801 22.273 21.4188L22.351 21.4517H22.5852H22.8194L22.8847 21.409L22.9499 21.3662L22.9669 21.2761L22.9838 21.1859L22.9542 21.0243C22.9095 20.7804 22.5748 19.7919 22.4513 19.5391L22.3426 19.3166L22.2467 19.2237L22.1508 19.1308L22.0668 19.12L21.9828 19.1092L21.8897 19.1445ZM41.8868 19.2054C41.8494 19.266 42.0277 19.4635 43.05 20.4946C44.3576 21.8136 44.5 21.9743 44.5 22.1294V22.199L44.4282 22.2362C44.3887 22.2566 44.2149 22.2902 44.0417 22.3108C43.5421 22.3702 43.3957 22.3954 43.3197 22.4347L43.2485 22.4715V22.5298V22.5881L43.3281 22.6169L43.4081 22.6457L43.8025 22.6596L44.1965 22.6735L44.4035 22.6438C44.5175 22.6275 44.6678 22.5883 44.7378 22.5566L44.8648 22.4991L44.9034 22.4246C44.9246 22.3835 44.9418 22.3077 44.9418 22.256V22.1621L44.8594 21.9898L44.7767 21.8176L44.58 21.5733C43.9874 20.8377 41.9728 19.0664 41.8868 19.2054ZM20.5226 19.4907C20.293 19.5902 20.2657 19.6737 20.3982 19.8721C20.6338 20.225 20.8476 21.0711 20.761 21.3081L20.7418 21.3607L20.7794 21.3983C20.8258 21.4447 21.0425 21.4738 21.2271 21.4585L21.3651 21.447L21.4102 21.3915L21.4552 21.3359V21.2537C21.4552 21.0515 21.1683 20.1074 20.9996 19.7546L20.9157 19.579L20.84 19.5153L20.7642 19.4516L20.6863 19.4525C20.6435 19.4531 20.5698 19.4702 20.5226 19.4907ZM19.2288 19.8559L19.1499 19.8902L19.1341 19.9533C19.1129 20.0378 19.1323 20.1301 19.2574 20.541C19.3869 20.9661 19.4274 21.1542 19.4091 21.2459L19.3951 21.3157L19.4537 21.3837L19.5122 21.4517H19.7069H19.9015L19.945 21.4156L19.9885 21.3795L19.9764 21.2316L19.9642 21.0836L19.8231 20.6541C19.6644 20.1708 19.5707 19.9477 19.4946 19.8716L19.4427 19.8197L19.3752 19.8206C19.3381 19.8212 19.2722 19.8371 19.2288 19.8559ZM41.9659 20.9346C41.6309 21.0542 41.5335 21.8202 41.7891 22.3244L41.8512 22.4475L41.9303 22.4956L42.009 22.5437L42.1209 22.5438L42.2326 22.5439L42.3131 22.4845C42.4215 22.4047 42.5014 22.2919 42.5663 22.128L42.62 21.9917L42.6215 21.7094L42.6227 21.4272L42.5518 21.2735L42.4806 21.1198L42.3877 21.0359C42.2498 20.9111 42.1194 20.8798 41.9659 20.9346ZM51.7523 21.3669C51.4958 21.3767 51.2143 21.3989 51.1265 21.4164L50.9669 21.4482L50.8996 21.5156L50.832 21.583V21.6593C50.832 21.8323 51.1974 22.6532 51.3444 22.8107L51.4162 22.8875H51.4759H51.5359L51.5643 22.8249C51.6029 22.7403 51.5987 22.4685 51.5559 22.2739C51.5365 22.1862 51.5206 22.0692 51.52 22.014L51.5191 21.9136L51.5866 21.8824C51.701 21.8295 52.1804 21.8057 53.4887 21.7879C58.7221 21.7167 61.9527 22.1004 64.8399 23.1359L65.3241 23.3095L65.465 23.3227L65.6062 23.336V23.2881C65.6062 22.7736 62.2574 21.7847 59.6427 21.527C58.233 21.3881 53.6429 21.295 51.7523 21.3669ZM53.998 22.2881C53.9778 22.2959 53.9452 22.3074 53.9259 22.3136L53.8909 22.3248L53.9268 22.3605L53.9624 22.3963L54.2071 22.4321C54.5456 22.4816 55.4728 22.5501 57.5565 22.6796C58.535 22.7404 59.5678 22.8064 59.8512 22.8263C60.3873 22.864 60.8903 22.8732 60.9875 22.8471L61.0442 22.832L61.0366 22.7806L61.0291 22.7293L60.9084 22.6845C60.5017 22.5338 59.0338 22.409 56.6607 22.3234C55.8129 22.2928 54.046 22.2693 53.998 22.2881ZM32.6095 23.0854C29.5959 23.1119 28.4175 23.1762 28.0926 23.332L28.0202 23.3667V23.4154V23.4642L28.1061 23.5057L28.1919 23.5472L28.4374 23.5729C28.9998 23.6317 30.6586 23.6633 36.9165 23.7345C62.7353 24.0281 65.4569 24.1096 68.0469 24.6668C69.0006 24.872 69.3274 25.0299 69.9257 25.5752C70.3427 25.9552 70.5174 25.991 70.7808 25.7502C71.7503 24.8644 68.0909 23.6063 63.6345 23.2929C61.7466 23.1602 40.3622 23.0171 32.6095 23.0854Z" fill="white"/>
</svg>
