<svg width="184" height="36" viewBox="0 0 184 36" fill="none" xmlns="http://www.w3.org/2000/svg">
<path d="M143.637 31.44C142.858 31.44 142.154 31.3067 141.525 31.04C140.906 30.7733 140.416 30.3893 140.053 29.888C139.69 29.3867 139.504 28.7947 139.493 28.112H141.893C141.925 28.5707 142.085 28.9333 142.373 29.2C142.672 29.4667 143.077 29.6 143.589 29.6C144.112 29.6 144.522 29.4773 144.821 29.232C145.12 28.976 145.269 28.6453 145.269 28.24C145.269 27.9093 145.168 27.6373 144.965 27.424C144.762 27.2107 144.506 27.0453 144.197 26.928C143.898 26.8 143.482 26.6613 142.949 26.512C142.224 26.2987 141.632 26.0907 141.173 25.888C140.725 25.6747 140.336 25.36 140.005 24.944C139.685 24.5173 139.525 23.952 139.525 23.248C139.525 22.5867 139.69 22.0107 140.021 21.52C140.352 21.0293 140.816 20.656 141.413 20.4C142.01 20.1333 142.693 20 143.461 20C144.613 20 145.546 20.2827 146.261 20.848C146.986 21.4027 147.386 22.1813 147.461 23.184H144.997C144.976 22.8 144.81 22.4853 144.501 22.24C144.202 21.984 143.802 21.856 143.301 21.856C142.864 21.856 142.512 21.968 142.245 22.192C141.989 22.416 141.861 22.7413 141.861 23.168C141.861 23.4667 141.957 23.7173 142.149 23.92C142.352 24.112 142.597 24.272 142.885 24.4C143.184 24.5173 143.6 24.656 144.133 24.816C144.858 25.0293 145.45 25.2427 145.909 25.456C146.368 25.6693 146.762 25.9893 147.093 26.416C147.424 26.8427 147.589 27.4027 147.589 28.096C147.589 28.6933 147.434 29.248 147.125 29.76C146.816 30.272 146.362 30.6827 145.765 30.992C145.168 31.2907 144.458 31.44 143.637 31.44Z" fill="white"/>
<path d="M138.147 20.1602V21.9682H135.171V31.3282H132.931V21.9682H129.955V20.1602H138.147Z" fill="white"/>
<path d="M128.333 31.3276H126.093L121.021 23.6636V31.3276H118.781V20.1436H121.021L126.093 27.8236V20.1436H128.333V31.3276Z" fill="white"/>
<path d="M112.506 21.9676V24.7676H116.266V26.5436H112.506V29.5036H116.746V31.3276H110.266V20.1436H116.746V21.9676H112.506Z" fill="white"/>
<path d="M108.051 20.1602V31.3282H105.811V24.0642L102.819 31.3282H101.123L98.115 24.0642V31.3282H95.875V20.1602H98.419L101.971 28.4642L105.523 20.1602H108.051Z" fill="white"/>
<path d="M86.9265 20.1602V27.0722C86.9265 27.8295 87.1239 28.4108 87.5185 28.8162C87.9132 29.2108 88.4679 29.4082 89.1825 29.4082C89.9079 29.4082 90.4679 29.2108 90.8625 28.8162C91.2572 28.4108 91.4545 27.8295 91.4545 27.0722V20.1602H93.7105V27.0562C93.7105 28.0055 93.5025 28.8108 93.0865 29.4722C92.6812 30.1228 92.1319 30.6135 91.4385 30.9442C90.7559 31.2748 89.9932 31.4402 89.1505 31.4402C88.3185 31.4402 87.5612 31.2748 86.8785 30.9442C86.2065 30.6135 85.6732 30.1228 85.2785 29.4722C84.8839 28.8108 84.6865 28.0055 84.6865 27.0562V20.1602H86.9265Z" fill="white"/>
<path d="M82.5051 31.3276H80.2651L75.1931 23.6636V31.3276H72.9531V20.1436H75.1931L80.2651 27.8236V20.1436H82.5051V31.3276Z" fill="white"/>
<path d="M65.5747 31.44C64.5293 31.44 63.5693 31.1947 62.6947 30.704C61.82 30.2133 61.1267 29.536 60.6147 28.672C60.1027 27.7973 59.8467 26.8107 59.8467 25.712C59.8467 24.624 60.1027 23.648 60.6147 22.784C61.1267 21.9093 61.82 21.2267 62.6947 20.736C63.5693 20.2453 64.5293 20 65.5747 20C66.6307 20 67.5907 20.2453 68.4547 20.736C69.3293 21.2267 70.0173 21.9093 70.5187 22.784C71.0307 23.648 71.2867 24.624 71.2867 25.712C71.2867 26.8107 71.0307 27.7973 70.5187 28.672C70.0173 29.536 69.3293 30.2133 68.4547 30.704C67.58 31.1947 66.62 31.44 65.5747 31.44ZM65.5747 29.44C66.2467 29.44 66.8387 29.2907 67.3507 28.992C67.8627 28.6827 68.2627 28.2453 68.5507 27.68C68.8387 27.1147 68.9827 26.4587 68.9827 25.712C68.9827 24.9653 68.8387 24.3147 68.5507 23.76C68.2627 23.1947 67.8627 22.7627 67.3507 22.464C66.8387 22.1653 66.2467 22.016 65.5747 22.016C64.9027 22.016 64.3053 22.1653 63.7827 22.464C63.2707 22.7627 62.8707 23.1947 62.5827 23.76C62.2947 24.3147 62.1507 24.9653 62.1507 25.712C62.1507 26.4587 62.2947 27.1147 62.5827 27.68C62.8707 28.2453 63.2707 28.6827 63.7827 28.992C64.3053 29.2907 64.9027 29.44 65.5747 29.44Z" fill="white"/>
<path d="M58.176 20.1602V31.3282H55.936V24.0642L52.944 31.3282H51.248L48.24 24.0642V31.3282H46V20.1602H48.544L52.096 28.4642L55.648 20.1602H58.176Z" fill="white"/>
<path d="M139.224 6.16016L135.448 13.4402V17.3282H133.208V13.4402L129.416 6.16016H131.944L134.344 11.2642L136.728 6.16016H139.224Z" fill="white"/>
<path d="M125.854 17.3282L123.39 12.9762H122.334V17.3282H120.094V6.16016H124.286C125.15 6.16016 125.886 6.31482 126.494 6.62416C127.102 6.92282 127.555 7.33349 127.854 7.85616C128.163 8.36816 128.318 8.94416 128.318 9.58416C128.318 10.3202 128.104 10.9868 127.678 11.5842C127.251 12.1708 126.616 12.5762 125.774 12.8002L128.446 17.3282H125.854ZM122.334 11.2962H124.206C124.814 11.2962 125.267 11.1522 125.566 10.8642C125.864 10.5655 126.014 10.1548 126.014 9.63216C126.014 9.12016 125.864 8.72549 125.566 8.44816C125.267 8.16016 124.814 8.01616 124.206 8.01616H122.334V11.2962Z" fill="white"/>
<path d="M115.604 17.3282L113.14 12.9762H112.084V17.3282H109.844V6.16016H114.036C114.9 6.16016 115.636 6.31482 116.244 6.62416C116.852 6.92282 117.305 7.33349 117.604 7.85616C117.913 8.36816 118.068 8.94416 118.068 9.58416C118.068 10.3202 117.854 10.9868 117.428 11.5842C117.001 12.1708 116.366 12.5762 115.524 12.8002L118.196 17.3282H115.604ZM112.084 11.2962H113.956C114.564 11.2962 115.017 11.1522 115.316 10.8642C115.614 10.5655 115.764 10.1548 115.764 9.63216C115.764 9.12016 115.614 8.72549 115.316 8.44816C115.017 8.16016 114.564 8.01616 113.956 8.01616H112.084V11.2962Z" fill="white"/>
<path d="M103.568 7.96756V10.7676H107.328V12.5436H103.568V15.5036H107.808V17.3276H101.328V6.14355H107.808V7.96756H103.568Z" fill="white"/>
<path d="M99.7378 9.61616C99.7378 10.2135 99.5938 10.7735 99.3058 11.2962C99.0284 11.8188 98.5857 12.2402 97.9777 12.5602C97.3804 12.8802 96.6231 13.0402 95.7057 13.0402H93.8338V17.3282H91.5938V6.16016H95.7057C96.5697 6.16016 97.3057 6.30949 97.9137 6.60816C98.5217 6.90682 98.9751 7.31749 99.2738 7.84016C99.5831 8.36282 99.7378 8.95482 99.7378 9.61616ZM95.6097 11.2322C96.2284 11.2322 96.6871 11.0935 96.9858 10.8162C97.2844 10.5282 97.4338 10.1282 97.4338 9.61616C97.4338 8.52816 96.8257 7.98416 95.6097 7.98416H93.8338V11.2322H95.6097Z" fill="white"/>
<path d="M86.1471 6.16016V7.96816H83.1711V17.3282H80.9311V7.96816H77.9551V6.16016H86.1471Z" fill="white"/>
<path d="M74.0569 17.3282L71.5929 12.9762H70.5369V17.3282H68.2969V6.16016H72.4889C73.3529 6.16016 74.0889 6.31482 74.6969 6.62416C75.3049 6.92282 75.7582 7.33349 76.0569 7.85616C76.3662 8.36816 76.5209 8.94416 76.5209 9.58416C76.5209 10.3202 76.3075 10.9868 75.8809 11.5842C75.4542 12.1708 74.8195 12.5762 73.9769 12.8002L76.6489 17.3282H74.0569ZM70.5369 11.2962H72.4089C73.0169 11.2962 73.4702 11.1522 73.7689 10.8642C74.0675 10.5655 74.2169 10.1548 74.2169 9.63216C74.2169 9.12016 74.0675 8.72549 73.7689 8.44816C73.4702 8.16016 73.0169 8.01616 72.4089 8.01616H70.5369V11.2962Z" fill="white"/>
<path d="M60.9184 17.44C59.8731 17.44 58.9131 17.1947 58.0384 16.704C57.1638 16.2133 56.4704 15.536 55.9584 14.672C55.4464 13.7973 55.1904 12.8107 55.1904 11.712C55.1904 10.624 55.4464 9.648 55.9584 8.784C56.4704 7.90933 57.1638 7.22667 58.0384 6.736C58.9131 6.24533 59.8731 6 60.9184 6C61.9744 6 62.9344 6.24533 63.7984 6.736C64.6731 7.22667 65.3611 7.90933 65.8624 8.784C66.3744 9.648 66.6304 10.624 66.6304 11.712C66.6304 12.8107 66.3744 13.7973 65.8624 14.672C65.3611 15.536 64.6731 16.2133 63.7984 16.704C62.9238 17.1947 61.9638 17.44 60.9184 17.44ZM60.9184 15.44C61.5904 15.44 62.1824 15.2907 62.6944 14.992C63.2064 14.6827 63.6064 14.2453 63.8944 13.68C64.1824 13.1147 64.3264 12.4587 64.3264 11.712C64.3264 10.9653 64.1824 10.3147 63.8944 9.76C63.6064 9.19467 63.2064 8.76267 62.6944 8.464C62.1824 8.16533 61.5904 8.016 60.9184 8.016C60.2464 8.016 59.6491 8.16533 59.1264 8.464C58.6144 8.76267 58.2144 9.19467 57.9264 9.76C57.6384 10.3147 57.4944 10.9653 57.4944 11.712C57.4944 12.4587 57.6384 13.1147 57.9264 13.68C58.2144 14.2453 58.6144 14.6827 59.1264 14.992C59.6491 15.2907 60.2464 15.44 60.9184 15.44Z" fill="white"/>
<path d="M54.144 9.61616C54.144 10.2135 54 10.7735 53.712 11.2962C53.4347 11.8188 52.992 12.2402 52.384 12.5602C51.7867 12.8802 51.0293 13.0402 50.112 13.0402H48.24V17.3282H46V6.16016H50.112C50.976 6.16016 51.712 6.30949 52.32 6.60816C52.928 6.90682 53.3813 7.31749 53.68 7.84016C53.9893 8.36282 54.144 8.95482 54.144 9.61616ZM50.016 11.2322C50.6347 11.2322 51.0933 11.0935 51.392 10.8162C51.6907 10.5282 51.84 10.1282 51.84 9.61616C51.84 8.52816 51.232 7.98416 50.016 7.98416H48.24V11.2322H50.016Z" fill="white"/>
<path d="M13.617 33.3749L4.06467 28.8013C4.01426 28.7771 3.98885 28.7199 4.00468 28.6663L11.2801 4.08153C11.3119 3.97392 11.4638 3.97245 11.4977 4.07941L12.9758 8.7389C12.9936 8.79504 13.0513 8.82832 13.1088 8.81566L17.9365 7.75119C18.0399 7.72838 18.1174 7.84535 18.0537 7.92998C16.8678 9.50694 10.4214 18.1666 11.3567 18.8579C13.0477 20.1078 17.6559 15.6786 18.8552 14.4747C18.937 14.3927 19.0802 14.4727 19.0573 14.5862C18.8715 15.5063 18.4876 17.7104 18.9589 18.202C19.4587 18.7233 22.6888 18.3823 23.7501 18.2544C23.8587 18.2413 23.9253 18.3776 23.8507 18.4577C23.2066 19.1483 21.4914 21.1427 21.8055 22.4886C22.085 23.6859 24.2701 24.5242 25.115 24.8066C25.2195 24.8415 25.2271 24.993 25.124 25.0317C23.2526 25.7352 13.8669 29.3238 13.4147 30.706C13.1559 31.4966 13.5595 32.6733 13.7803 33.2181C13.8207 33.3177 13.714 33.4213 13.617 33.3749Z" fill="white"/>
</svg>
