<svg width="184" height="36" viewBox="0 0 184 36" fill="none" xmlns="http://www.w3.org/2000/svg">
<path d="M44 12.1514H48.3367C49.6031 12.1514 50.7031 12.2876 51.6365 12.5601C52.5699 12.8325 53.3419 13.2236 53.9524 13.7332C54.568 14.2377 55.0246 14.8533 55.3223 15.5798C55.625 16.3014 55.7764 17.1137 55.7764 18.0169C55.7764 18.8746 55.6276 19.6693 55.3299 20.4009C55.0322 21.1275 54.5781 21.7582 53.9676 22.293C53.3571 22.8228 52.5851 23.2391 51.6516 23.5418C50.7182 23.8395 49.6183 23.9883 48.3518 23.9883L44 23.9808V12.1514ZM48.927 21.907C49.6435 21.907 50.2717 21.8162 50.8115 21.6346C51.3514 21.4479 51.8005 21.1855 52.1587 20.8474C52.522 20.5094 52.7945 20.1007 52.9761 19.6214C53.1577 19.142 53.2486 18.6072 53.2486 18.0169C53.2486 17.4366 53.1577 16.9144 52.9761 16.4502C52.7945 15.981 52.522 15.5849 52.1587 15.262C51.8005 14.934 51.3514 14.6817 50.8115 14.5051C50.2717 14.3285 49.6435 14.2402 48.927 14.2402H46.3992V21.907H48.927Z" fill="white"/>
<path d="M58.1832 12.1514H68.2567V14.2554H60.5823V16.6167H67.3788V18.5921H60.5823V21.8843H68.4156V23.9808H58.1832V12.1514Z" fill="white"/>
<path d="M74.6444 14.2554H70.2774V12.1514H81.4105V14.2554H77.0436V23.9808H74.6444V14.2554Z" fill="white"/>
<path d="M88.0102 12.1514H90.5532L96.2749 23.9808H93.7546L92.8085 21.9903H85.8986L84.9828 23.9808H82.455L88.0102 12.1514ZM91.8625 20.0149L89.3044 14.6414L86.8144 20.0149H91.8625Z" fill="white"/>
<path d="M97.8112 12.1514H100.226V23.9808H97.8112V12.1514Z" fill="white"/>
<path d="M103.291 12.1514H105.69V21.8767H112.57V23.9808H103.291V12.1514Z" fill="white"/>
<path d="M114.901 12.1514H119.237C120.504 12.1514 121.604 12.2876 122.537 12.5601C123.471 12.8325 124.243 13.2236 124.853 13.7332C125.469 14.2377 125.925 14.8533 126.223 15.5798C126.526 16.3014 126.677 17.1137 126.677 18.0169C126.677 18.8746 126.528 19.6693 126.231 20.4009C125.933 21.1275 125.479 21.7582 124.868 22.293C124.258 22.8228 123.486 23.2391 122.552 23.5418C121.619 23.8395 120.519 23.9883 119.252 23.9883L114.901 23.9808V12.1514ZM119.828 21.907C120.544 21.907 121.172 21.8162 121.712 21.6346C122.252 21.4479 122.701 21.1855 123.059 20.8474C123.423 20.5094 123.695 20.1007 123.877 19.6214C124.058 19.142 124.149 18.6072 124.149 18.0169C124.149 17.4366 124.058 16.9144 123.877 16.4502C123.695 15.981 123.423 15.5849 123.059 15.262C122.701 14.934 122.252 14.6817 121.712 14.5051C121.172 14.3285 120.544 14.2402 119.828 14.2402H117.3V21.907H119.828Z" fill="white"/>
<path d="M133.118 12.1514H135.661L141.382 23.9808H138.862L137.916 21.9903H131.006L130.09 23.9808H127.563L133.118 12.1514ZM136.97 20.0149L134.412 14.6414L131.922 20.0149H136.97Z" fill="white"/>
<path d="M143.774 20.4615C144.203 20.7036 144.637 20.9231 145.076 21.1199C145.52 21.3116 145.979 21.4756 146.453 21.6119C146.928 21.743 147.425 21.844 147.944 21.9146C148.469 21.9852 149.027 22.0205 149.617 22.0205C150.328 22.0205 150.934 21.9751 151.433 21.8843C151.933 21.7884 152.339 21.6598 152.652 21.4983C152.97 21.3318 153.199 21.135 153.341 20.908C153.487 20.6809 153.56 20.4337 153.56 20.1663C153.56 19.7374 153.381 19.3994 153.023 19.1521C152.664 18.8998 152.112 18.7737 151.365 18.7737C151.037 18.7737 150.692 18.7964 150.328 18.8418C149.965 18.8822 149.597 18.9276 149.223 18.9781C148.855 19.0285 148.489 19.0764 148.126 19.1219C147.768 19.1622 147.43 19.1824 147.112 19.1824C146.582 19.1824 146.072 19.1143 145.583 18.9781C145.099 18.8418 144.667 18.6375 144.289 18.365C143.915 18.0926 143.618 17.752 143.396 17.3433C143.174 16.9346 143.063 16.4578 143.063 15.9129C143.063 15.5899 143.106 15.2695 143.191 14.9517C143.282 14.6338 143.423 14.3311 143.615 14.0435C143.812 13.7508 144.064 13.4809 144.372 13.2336C144.68 12.9814 145.051 12.7644 145.485 12.5828C145.923 12.4011 146.428 12.2598 146.998 12.1589C147.573 12.053 148.227 12 148.958 12C149.488 12 150.021 12.0303 150.555 12.0908C151.09 12.1463 151.61 12.2271 152.114 12.333C152.624 12.439 153.113 12.5676 153.583 12.719C154.052 12.8653 154.488 13.0293 154.892 13.2109L153.84 15.1484C153.507 15.0021 153.149 14.8684 152.765 14.7473C152.382 14.6212 151.981 14.5127 151.562 14.4219C151.143 14.3311 150.709 14.2604 150.26 14.21C149.816 14.1545 149.362 14.1267 148.898 14.1267C148.237 14.1267 147.692 14.1747 147.263 14.2705C146.839 14.3664 146.501 14.49 146.249 14.6414C145.997 14.7877 145.82 14.9542 145.719 15.1409C145.623 15.3225 145.575 15.5042 145.575 15.6858C145.575 16.039 145.734 16.3291 146.052 16.5562C146.37 16.7782 146.854 16.8892 147.505 16.8892C147.768 16.8892 148.068 16.8715 148.406 16.8362C148.749 16.7958 149.107 16.7529 149.481 16.7075C149.859 16.6621 150.243 16.6218 150.631 16.5864C151.025 16.5461 151.406 16.5259 151.774 16.5259C152.47 16.5259 153.086 16.6041 153.621 16.7605C154.16 16.9169 154.612 17.1415 154.975 17.4341C155.339 17.7217 155.614 18.0724 155.8 18.4861C155.987 18.8948 156.08 19.354 156.08 19.8636C156.08 20.5447 155.921 21.1527 155.603 21.6875C155.291 22.2173 154.842 22.6664 154.256 23.0347C153.676 23.398 152.975 23.6755 152.152 23.8672C151.33 24.0539 150.414 24.1473 149.405 24.1473C148.739 24.1473 148.088 24.1044 147.452 24.0186C146.817 23.9379 146.206 23.8218 145.621 23.6705C145.041 23.514 144.486 23.3299 143.956 23.118C143.431 22.901 142.944 22.6639 142.495 22.4065L143.774 20.4615Z" fill="white"/>
<path d="M158.714 12.1514H161.113V15.2393H168.47V12.1514H170.876V23.9808H168.47V17.2903H161.113V23.9808H158.714V12.1514Z" fill="white"/>
<path fill-rule="evenodd" clip-rule="evenodd" d="M12.6588 4.05116C6.32243 4.87243 1.2417 9.75931 0.164398 16.0689C-0.00365088 17.0536 -0.0234593 17.4468 0.0193822 18.9592C0.0719897 20.8136 0.200422 21.6023 0.694988 23.1051C2.35475 28.1495 6.77673 31.9315 12.0719 32.8356C13.0566 33.0037 13.4498 33.0235 14.9621 32.9806C16.8166 32.928 17.6052 32.7996 19.1081 32.305C24.1524 30.6452 27.9345 26.2233 28.8386 20.9281C29.0066 19.9434 29.0264 19.5502 28.9836 18.0379C28.931 16.1834 28.8025 15.3948 28.308 13.8919C26.6566 8.87318 22.226 5.06729 16.9936 4.17268C16.1783 4.03338 15.544 3.99109 14.4233 4.0015C13.6048 4.00906 12.8108 4.03145 12.6588 4.05116ZM21.0326 9.90728C21.1204 10.0467 20.3814 10.8216 15.607 15.5964L10.0797 21.1243H7.56594C5.33717 21.1243 5.04566 21.1074 4.99508 20.9755C4.91483 20.7664 15.3413 10.3587 15.9222 10.0681C16.524 9.76705 16.9785 9.71841 19.0521 9.73287C20.7331 9.74457 20.9415 9.7629 21.0326 9.90728ZM18.1144 24.0936C19.7503 25.7269 21.0889 27.1143 21.0889 27.1768C21.0889 27.4548 20.6994 27.501 18.6582 27.4657C15.8403 27.4168 16.2309 27.6333 12.8201 24.2311C11.3378 22.7526 10.1252 21.473 10.1252 21.3874C10.1252 21.3018 10.1771 21.2109 10.2404 21.1853C10.3037 21.1598 11.432 21.1355 12.7476 21.1316L15.1399 21.1243L18.1144 24.0936Z" fill="white"/>
</svg>
