<svg width="184" height="36" viewBox="0 0 184 36" fill="none" xmlns="http://www.w3.org/2000/svg">
<path fill-rule="evenodd" clip-rule="evenodd" d="M88.6769 10.0461C85.0699 10.3672 83.1278 12.598 83.4346 16.0677C83.6886 18.9398 84.7486 19.8799 88.4449 20.5116L89.8144 20.7457L90.0566 20.8966C90.8352 21.3818 90.5381 22.6648 89.6472 22.6648C89.143 22.6648 88.7988 22.2708 88.7988 21.6936V21.3922H83.5493V21.8575C83.5493 25.0036 85.3843 26.6149 89.1541 26.7792C93.7099 26.9778 96.3148 24.4281 95.8564 20.2191C95.5859 17.735 94.4588 16.8041 90.8588 16.0911C88.8432 15.6919 88.7461 15.6394 88.7461 14.9496C88.7461 13.796 90.2842 13.8017 90.3769 14.9557L90.4041 15.2943H95.533V14.6823C95.533 11.5271 92.8001 9.67915 88.6769 10.0461ZM102.267 10.0432C98.8395 10.3295 96.9836 12.2338 96.9942 15.4534C97.0049 18.706 98.1136 19.8474 101.884 20.4877C103.862 20.8235 104.12 20.9818 104.059 21.8201C103.973 23.0172 102.466 22.9303 102.339 21.721L102.305 21.3922H97.1104L97.1364 22.1478C97.2344 24.9912 98.8764 26.4693 102.252 26.7532C107.011 27.1533 109.808 24.6674 109.429 20.3763C109.198 17.7696 108.045 16.7853 104.407 16.0889C102.503 15.7246 102.306 15.6221 102.301 14.9921C102.298 14.6202 102.392 14.4118 102.638 14.2445L102.824 14.1186L103.536 14.1576L103.694 14.3089C103.853 14.461 103.964 14.8021 103.964 15.1378V15.2943H109.122L109.093 14.5387C108.972 11.4411 106.334 9.70348 102.267 10.0432ZM45 26.5356H50.2495V22.7284L52.9273 22.6791L53.378 22.5641C58.0533 21.3709 58.9053 12.9689 54.571 10.7995C53.5507 10.2888 53.2157 10.2576 48.7515 10.2572L45 10.2569V26.5356ZM58.3623 26.5356H63.6118V21.9721L64.8517 22.002L65.5487 26.5091L70.991 26.5366L70.9544 26.3638C70.9343 26.2688 70.5874 24.7171 70.1837 22.9157L69.4495 19.6404L69.6792 19.31C70.4271 18.2344 70.6378 17.3476 70.5981 15.4422L70.5735 14.2603L70.4347 13.7368C69.9853 12.0427 68.8681 10.9055 67.251 10.4963C66.3771 10.2751 65.9912 10.2572 62.0874 10.2571L58.3623 10.2569V26.5356ZM72.0959 26.5356H82.2237V22.1886L77.3188 22.1611V20.3582L81.8525 20.3306V16.2488H77.2896L77.3188 14.6315L82.1176 14.6039V10.2569H72.0959V26.5356ZM110.752 22.2671L110.829 22.7709C111.237 25.444 113.217 26.8008 116.712 26.8008C120.008 26.8008 122.061 25.5629 122.692 23.1951L122.812 22.7443L122.843 10.2569H117.591V21.9797L117.483 22.1918C117.193 22.7614 116.376 22.7639 116.096 22.1959L115.974 21.949L115.945 10.2569H110.751L110.752 22.2671ZM124.485 26.5356H129.734V21.9755H130.949L130.979 22.1478C131.041 22.5063 131.643 26.4346 131.643 26.484C131.643 26.5169 132.638 26.5356 134.377 26.5356H137.112L137.085 26.4428C137.07 26.3918 136.72 24.8425 136.307 23.0001L135.557 19.6501L135.877 19.1652C136.952 17.5325 137.061 14.4731 136.11 12.6198L135.864 12.1393L135.358 11.6333C134.675 10.9516 134.055 10.6333 132.914 10.3803L132.518 10.2924L124.485 10.2514V26.5356ZM138.165 26.5356H148.346V22.1876H143.415V20.3317H147.975V16.2488H143.415V14.605H148.24V10.2569H138.165V26.5356ZM149.778 26.5421L157.228 26.5012L157.757 26.3822C160.121 25.8509 161.475 24.4894 161.901 22.2141L162 21.6838V15.2148L161.903 14.6638C161.449 12.0973 159.825 10.6192 157.122 10.312C156.845 10.2806 155.201 10.2576 153.211 10.2573L149.778 10.2569V26.5421ZM51.3365 14.7425C52.1713 15.1783 52.1993 17.6483 51.3758 18.2126L51.1934 18.3376L50.2495 18.3827V14.5941L50.6869 14.6129C50.9992 14.6263 51.1851 14.6634 51.3365 14.7425ZM64.4855 14.6641C65.0173 14.8117 65.2556 15.3099 65.2556 16.2737C65.2556 17.5932 64.9028 18.1046 63.9928 18.1046H63.6118V16.3902C63.6118 15.4472 63.6277 14.6598 63.6472 14.6403C63.7033 14.5842 64.2541 14.5998 64.4855 14.6641ZM130.609 14.6642C131.144 14.812 131.352 15.2792 131.35 16.3283C131.347 17.6372 131.01 18.1035 130.066 18.1043L129.734 18.1046V14.605L130.066 14.6053C130.248 14.6054 130.492 14.6319 130.609 14.6642ZM156.141 14.7243C156.319 14.8144 156.409 14.9081 156.51 15.1072L156.644 15.3709V18.3152C156.644 22.1705 156.639 22.1863 155.359 22.1872L154.974 22.1876V14.605H155.906L156.141 14.7243Z" fill="white"/>
<path fill-rule="evenodd" clip-rule="evenodd" d="M26.4177 13.1749C26.2457 13.2167 25.7468 13.3373 25.3091 13.443C24.8713 13.5486 23.4662 13.8899 22.1867 14.2015C19.4332 14.8719 19.9399 14.8358 19.0313 14.4262C17.7418 13.8448 17.2909 13.6508 17.2293 13.6508H17.1931L13.0998 18.6779H12.6236V17.4095L12.5115 17.2989H11.3667L11.2449 17.4459V18.0855L11.2246 18.0951C11.2134 18.1003 11.0615 18.0721 10.887 18.0323C10.5529 17.9562 7.83969 17.3236 7.77414 17.3066L7.73598 17.2967L7.68175 17.3635C7.46146 17.6348 0.157016 27.5101 0.0187614 27.7235L0 27.7524L0.0975467 27.8832L0.137927 27.8441C0.160143 27.8227 1.00651 26.8649 2.01877 25.7158C7.0922 19.9563 7.96956 18.9659 7.99831 18.9659C8.02135 18.9659 8.02307 18.9682 9.26169 20.6154C10.3341 22.0417 11.4614 23.5475 13.3556 26.0837L14.7058 27.8918L18.6374 27.893C23.1439 27.8944 22.7435 27.9097 22.7435 27.737C22.7435 27.6813 22.5721 27.3843 21.134 24.9478C20.7129 24.2344 20.3652 23.6405 20.3613 23.6279C20.3572 23.6148 20.4712 23.4531 20.6285 23.2489C20.7794 23.0529 21.8111 21.7067 22.9212 20.2573C25.3464 17.0904 26.7687 15.2368 26.9454 15.0127L27.0759 14.8473L27.1519 14.9333C27.3542 15.1624 29.8625 18.1094 31.5275 20.0743C31.9144 20.531 33.4559 22.3488 34.9529 24.1138C36.4499 25.8789 37.7198 27.3771 37.7747 27.443L37.8747 27.5629L38 27.4061L37.7087 27.0436C37.5485 26.8443 37.1618 26.3551 36.8492 25.9567C35.4976 24.2338 33.5185 21.709 31.3215 18.9048C27.3064 13.78 26.803 13.1418 26.7517 13.1116C26.74 13.1047 26.5897 13.1332 26.4177 13.1749ZM27.1119 16.779C27.0483 16.8612 25.4925 19.4266 25.1473 20.0185C24.917 20.4135 24.8743 20.5107 24.9314 20.5107C24.9649 20.5107 25.154 20.2894 26.0198 19.237C26.3873 18.7903 26.7383 18.3699 26.7998 18.3029L26.9117 18.1809L27.2688 18.6265C27.7759 19.2593 28.8265 20.5956 31.234 23.6701L33.3321 26.3495L33.3326 27.999H34.5265C35.4065 27.999 35.7204 27.9938 35.7204 27.9792C35.7204 27.9683 35.661 27.88 35.5884 27.7828C34.3071 26.0693 30.4675 21.001 28.2943 18.1543C27.0727 16.5542 27.1849 16.6847 27.1119 16.779ZM7.47828 20.2528C3.55082 24.8159 0.93661 27.8927 0.928395 27.9615L0.92379 28L2.27394 27.9951C3.01651 27.9925 3.62898 27.9842 3.63499 27.9769C3.64099 27.9695 3.64877 27.5928 3.65228 27.1398L3.65864 26.3161L5.04599 24.5786C6.86712 22.2977 7.81937 21.1216 7.84499 21.1216C7.87025 21.1216 8.18982 21.3581 9.16969 22.1019C10.123 22.8255 10.1935 22.8749 10.1929 22.8192C10.1924 22.7709 7.8773 19.8467 7.84044 19.8478C7.83278 19.848 7.66981 20.0303 7.47828 20.2528ZM27.5157 23.5256L27.1924 23.5311V24.9443H28.1605L28.1561 24.3028C28.1503 23.4387 28.212 23.5136 27.5157 23.5256ZM25.6842 23.542C25.6491 23.5535 25.6403 23.787 25.6517 24.3949L25.6616 24.9229L25.7254 24.9336C25.7605 24.9395 26.0186 24.9443 26.2989 24.9443H26.8086V23.5305L26.2578 23.5325C25.9549 23.5336 25.6967 23.5379 25.6842 23.542ZM6.84223 23.7155C6.8285 23.7231 6.82447 23.8657 6.82447 24.3424V24.9594L6.84934 24.9684C6.86301 24.9733 7.0565 24.9819 7.2793 24.9876C7.50209 24.9932 7.71795 25.0021 7.759 25.0073L7.83362 25.0167V23.7445L7.49605 23.7331C7.3104 23.7269 7.09132 23.7182 7.00924 23.7137C6.92716 23.7093 6.85201 23.7101 6.84223 23.7155ZM8.17474 25.0316L8.46257 25.0333C8.62088 25.0343 8.81283 25.0402 8.88916 25.0464L9.02792 25.0578L9.02045 23.801L8.93516 23.7894C8.88826 23.7829 8.69798 23.772 8.51231 23.7649L8.17474 23.7522V25.0316ZM6.82447 25.8401C6.82447 26.4797 6.7979 26.4397 7.23192 26.4541C7.38696 26.4592 7.58578 26.4673 7.67372 26.472L7.83362 26.4805V25.4206L7.37524 25.4095C7.12313 25.4033 6.89607 25.3935 6.87066 25.3875L6.82447 25.3767V25.8401ZM25.6681 25.8127C25.6622 26.4948 25.6664 26.5348 25.7491 26.5772L25.7985 26.6026H26.8086V25.4156H25.6715L25.6681 25.8127ZM27.1924 26.6026H28.1416L28.1502 26.575C28.1617 26.5383 28.1612 25.6837 28.1496 25.5334L28.1406 25.4156H27.1924V26.6026ZM8.17474 26.4752L8.30485 26.4865C8.37641 26.4927 8.57148 26.4978 8.73836 26.4978H9.04177V25.5537L8.97506 25.4718L8.81299 25.4617C8.72384 25.4561 8.54375 25.4473 8.41282 25.442L8.17474 25.4323V26.4752Z" fill="white"/>
<path fill-rule="evenodd" clip-rule="evenodd" d="M25.5559 10.0083C25.3796 10.0463 25.2292 10.307 25.2511 10.5366C25.2965 11.0123 25.8022 11.1304 25.992 10.7097L26.034 10.6166L26.0329 10.3548L25.9915 10.2617C25.9055 10.0687 25.7351 9.9696 25.5559 10.0083ZM20.24 10.3748C20.0637 10.4129 19.9133 10.6736 19.9353 10.9032C19.9807 11.3788 20.4864 11.497 20.6761 11.0763L20.7181 10.9832L20.7171 10.7213L20.6756 10.6283C20.5897 10.4353 20.4193 10.3362 20.24 10.3748ZM22.4534 10.7307C21.9106 10.8358 21.4615 11.3031 21.3085 11.9221C21.2655 12.0959 21.2694 12.0905 21.1586 12.134C20.9808 12.2039 20.7557 12.3763 20.6493 12.5241L20.6232 12.5604L20.5001 12.407C20.0476 11.8433 19.3471 11.8505 18.9152 12.4233C18.8377 12.5262 18.7069 12.7745 18.7069 12.8189C18.7069 12.8595 18.6787 12.8607 18.5809 12.8242L18.4823 12.7874L18.4978 12.7232C18.551 12.5029 18.5015 12.0676 18.3947 11.8155C17.8896 10.6231 16.4452 10.9714 16.3259 12.3145L16.3162 12.424L16.243 12.4105C15.7407 12.3181 15.2162 12.5808 14.9106 13.0779C14.8681 13.1471 14.8441 13.1723 14.828 13.1647C14.7119 13.1093 14.5502 13.0797 14.3647 13.0799L14.1657 13.08L14.0378 13.1198C13.4009 13.318 12.973 13.9888 12.9735 14.7884L12.9736 15.0328L13.0059 15.1899C13.0237 15.2763 13.0697 15.4287 13.1082 15.5286C13.1467 15.6285 13.1763 15.7125 13.174 15.7154C13.1717 15.7183 13.1124 15.7454 13.0423 15.7756C12.9723 15.8059 12.9058 15.8368 12.8947 15.8443C12.88 15.8542 12.8599 15.8303 12.8213 15.7569C12.7031 15.5323 12.5377 15.3741 12.3352 15.292L12.2185 15.2447L11.8916 15.2457L11.7748 15.2925C11.5098 15.3989 11.2863 15.6651 11.2025 15.9744L11.1725 16.0848L11.0772 16.0275C10.6797 15.7886 10.174 15.7925 9.77958 16.0375L9.72853 16.0693L9.6958 15.9699C9.05985 14.0407 6.62913 14.4 6.39786 16.4575C6.38883 16.5379 6.37886 16.6204 6.37572 16.6408L6.37001 16.6778L6.17439 16.687C5.41202 16.7229 4.87149 17.5609 5.03829 18.4483L5.06346 18.5823L5.01316 18.6683C4.98549 18.7156 4.94612 18.7992 4.92566 18.8541C4.89645 18.9324 4.88346 18.9511 4.86508 18.9414C4.85222 18.9345 4.79052 18.9093 4.72798 18.8854L4.61427 18.8418L4.42239 18.8416C3.73911 18.8406 3.23509 19.4582 3.23578 20.2955L3.236 20.5486L3.268 20.6852C3.28561 20.7603 3.31283 20.8526 3.3285 20.8903L3.35698 20.9589L3.23152 21.1116C3.14581 21.2159 3.09102 21.3002 3.05854 21.3777C3.0324 21.4401 3.00939 21.4937 3.0074 21.4968C3.00542 21.4999 2.97806 21.4862 2.94661 21.4665C2.07106 20.918 1.07487 22.1731 1.52214 23.2612L1.56378 23.3625L1.47586 23.3925C0.987084 23.5594 0.756598 24.2052 0.973638 24.7996C0.981199 24.8203 0.964911 24.8341 0.901988 24.8604C0.563793 25.0015 0.406819 25.4843 0.569293 25.8836C0.595929 25.9491 0.604571 25.9859 0.593314 25.9859C0.424998 25.9859 0.229421 26.2307 0.229421 26.4414C0.229421 26.5106 0.258133 26.6492 0.27246 26.6492C0.278643 26.6492 1.9002 24.4655 3.87591 21.7965L7.46811 16.9439L7.55697 16.8902C7.61349 16.856 7.67615 16.8333 7.72907 16.8279L7.8123 16.8194L9.32604 17.1697C10.1586 17.3623 10.8469 17.52 10.8557 17.5201C10.8653 17.5201 10.8742 17.4702 10.8782 17.3926C10.8903 17.162 10.9888 16.9808 11.1572 16.8792L11.2377 16.8307L12.5859 16.8206L12.6595 16.849C12.9225 16.9506 12.9941 17.13 13.006 17.7171L13.0144 18.1323L13.32 17.7526C15.3583 15.2204 16.9478 13.2768 17.0172 13.232L17.0937 13.1826L17.378 13.1848L18.6067 13.7291C19.2825 14.0285 19.8456 14.2735 19.8581 14.2735C19.8706 14.2735 21.3996 13.9037 23.2559 13.4518L26.6309 12.63L26.7375 12.6358C26.8186 12.6401 26.8633 12.6531 26.9243 12.6898L27.0046 12.7382L32.2411 19.3926C35.1212 23.0525 37.5519 26.1413 37.6426 26.2565L37.8076 26.4659L37.8406 26.3787C37.8665 26.3101 37.8735 26.2612 37.8735 26.1509L37.8734 26.0104L37.8273 25.8953C37.7497 25.7018 37.5993 25.5735 37.4277 25.5544L37.3456 25.5452L37.4039 25.4383C37.5898 25.0973 37.5554 24.6637 37.3188 24.366L37.23 24.2542L37.2635 24.1644C37.3903 23.8238 37.3789 23.4213 37.2318 23.0534L37.1655 22.8876L36.9073 22.5705L36.7722 22.4891C36.4418 22.2901 36.1607 22.29 35.7959 22.4886C35.7854 22.4943 35.771 22.4644 35.7575 22.4087C35.7007 22.1736 35.5509 21.9442 35.3829 21.8349C35.334 21.8032 35.294 21.7749 35.294 21.7722C35.294 21.7695 35.3063 21.7234 35.3213 21.6698C35.5735 20.7695 34.9968 19.8113 34.2067 19.8181L34.0219 19.8196L33.8967 19.8658C33.8279 19.8912 33.7402 19.9315 33.7018 19.9554C33.6154 20.0092 33.6218 20.0103 33.6109 19.9389C33.5522 19.5548 33.1811 19.215 32.819 19.2136L32.7389 19.2133L32.7718 19.1129C32.9333 18.6208 32.7533 18.0226 32.3697 17.7765L32.2668 17.7104L32.302 17.625C32.3214 17.5781 32.3515 17.4783 32.369 17.4034L32.4007 17.267L32.3996 17.0489C32.3963 16.408 32.0784 15.8956 31.5744 15.7186L31.4635 15.6797L31.2858 15.6811C31.0795 15.6827 30.9502 15.7182 30.7903 15.8171L30.6894 15.8794L30.6834 15.8401C30.5863 15.2022 30.2821 14.7967 29.8292 14.7017L29.7295 14.6808L29.7313 14.6473C29.7323 14.6289 29.7448 14.5628 29.759 14.5004C29.969 13.582 29.2212 12.6803 28.4678 12.9433L28.3573 12.9819L28.3002 12.9354C28.2687 12.9098 28.1952 12.8682 28.1369 12.8429L28.0308 12.797L28.0257 12.6057C27.9858 11.1256 26.3302 10.5013 25.7337 11.7415C25.7169 11.7765 25.6993 11.7933 25.6858 11.7875C25.674 11.7825 25.6068 11.7531 25.5365 11.7221L25.4086 11.6658L25.2522 11.6656C25.0867 11.6653 24.9973 11.6885 24.8471 11.7705L24.7689 11.8132L24.6623 11.7685C24.4607 11.684 24.2653 11.6744 23.9872 11.7353L23.9446 11.7446L23.9023 11.6441C23.6364 11.0124 23.0166 10.6216 22.4534 10.7307ZM14.4138 11.451C14.0062 11.5928 13.9593 12.2757 14.3414 12.5057L14.4216 12.554H14.649L14.7292 12.5057C14.8963 12.4051 14.9886 12.2242 14.9894 11.9956L14.99 11.8559L14.9507 11.7574C14.853 11.5128 14.6194 11.3794 14.4138 11.451ZM10.3635 14.411C9.98537 14.563 10.0548 15.2235 10.4489 15.2235C10.8032 15.2235 10.9155 14.6443 10.5999 14.4449C10.5386 14.4062 10.4183 14.3889 10.3635 14.411ZM30.9726 14.7142C30.7699 14.8398 30.8457 15.2335 31.0726 15.2335C31.1781 15.2335 31.3 15.0838 31.3 14.9542C31.3 14.8247 31.1781 14.6749 31.0726 14.6749C31.0525 14.6749 31.0075 14.6926 30.9726 14.7142ZM5.3344 15.2668C5.28698 15.2869 5.23502 15.3274 5.19569 15.3748C4.84359 15.7991 5.35683 16.4559 5.71712 16.042C6.0163 15.6983 5.72209 15.1024 5.3344 15.2668ZM33.5723 17.9504C33.3959 17.9884 33.2456 18.2491 33.2675 18.4787C33.3129 18.9544 33.8186 19.0725 34.0084 18.6518L34.0504 18.5587L34.0493 18.2969L34.0079 18.2038C33.9219 18.0108 33.7515 17.9117 33.5723 17.9504ZM2.50458 20.2379C2.32926 20.351 2.37322 20.6611 2.56877 20.6905C2.67266 20.7061 2.76932 20.6097 2.78253 20.4773C2.80068 20.2952 2.6358 20.1532 2.50458 20.2379ZM36.2458 21.4694C36.0431 21.5949 36.1189 21.9887 36.3458 21.9887C36.4513 21.9887 36.5732 21.839 36.5732 21.7094C36.5732 21.5798 36.4513 21.4301 36.3458 21.4301C36.3257 21.4301 36.2807 21.4478 36.2458 21.4694Z" fill="white"/>
</svg>
