<svg width="36" height="36" viewBox="0 0 36 36" fill="none" xmlns="http://www.w3.org/2000/svg">
<path fill-rule="evenodd" clip-rule="evenodd" d="M13.6588 4.05116C7.32243 4.87243 2.2417 9.75931 1.1644 16.0689C0.996349 17.0536 0.976541 17.4468 1.01938 18.9592C1.07199 20.8136 1.20042 21.6023 1.69499 23.1051C3.35475 28.1495 7.77673 31.9315 13.0719 32.8356C14.0566 33.0037 14.4498 33.0235 15.9621 32.9806C17.8166 32.928 18.6052 32.7996 20.1081 32.305C25.1524 30.6452 28.9345 26.2233 29.8386 20.9281C30.0066 19.9434 30.0264 19.5502 29.9836 18.0379C29.931 16.1834 29.8025 15.3948 29.308 13.8919C27.6566 8.87318 23.226 5.06729 17.9936 4.17268C17.1783 4.03338 16.544 3.99109 15.4233 4.0015C14.6048 4.00906 13.8108 4.03145 13.6588 4.05116ZM22.0326 9.90728C22.1204 10.0467 21.3814 10.8216 16.607 15.5964L11.0797 21.1243H8.56594C6.33717 21.1243 6.04566 21.1074 5.99508 20.9755C5.91483 20.7664 16.3413 10.3587 16.9222 10.0681C17.524 9.76705 17.9785 9.71841 20.0521 9.73287C21.7331 9.74457 21.9415 9.7629 22.0326 9.90728ZM19.1144 24.0936C20.7503 25.7269 22.0889 27.1143 22.0889 27.1768C22.0889 27.4548 21.6994 27.501 19.6582 27.4657C16.8403 27.4168 17.2309 27.6333 13.8201 24.2311C12.3378 22.7526 11.1252 21.473 11.1252 21.3874C11.1252 21.3018 11.1771 21.2109 11.2404 21.1853C11.3037 21.1598 12.432 21.1355 13.7476 21.1316L16.1399 21.1243L19.1144 24.0936Z" fill="#0A0A0A"/>
</svg>
