<svg width="184" height="36" viewBox="0 0 184 36" fill="none" xmlns="http://www.w3.org/2000/svg">
<path fill-rule="evenodd" clip-rule="evenodd" d="M22.9859 4.05731C22.9777 4.09012 22.9418 4.13026 22.9062 4.14646C22.8652 4.16517 22.8415 4.19685 22.8415 4.2332C22.8415 4.2647 22.8113 4.31455 22.7743 4.344C22.7216 4.38612 22.7074 4.41931 22.7086 4.49905C22.7105 4.63892 22.7523 4.73642 22.8244 4.76926C22.8745 4.79212 22.9093 4.78446 23.0236 4.7253C23.1304 4.66996 23.1985 4.65338 23.3222 4.65243C23.5031 4.65107 23.5025 4.65202 23.4476 4.44617C23.398 4.25991 23.3362 4.15428 23.2665 4.1368C23.2328 4.12834 23.1791 4.09358 23.1471 4.05952C23.0733 3.98101 23.0053 3.98006 22.9859 4.05731ZM23.508 4.20834C23.508 4.27716 23.5558 4.38209 23.5871 4.38209C23.6249 4.38209 23.5947 4.25447 23.5448 4.20359C23.5126 4.17068 23.508 4.17125 23.508 4.20834ZM22.3152 4.61844C22.1935 4.76303 22.1621 4.85297 22.2007 4.94624C22.2318 5.02129 22.2409 5.02591 22.3264 5.01045C22.4939 4.98023 22.5971 4.91513 22.6064 4.83395C22.6181 4.73166 22.5928 4.64602 22.5333 4.5865C22.4608 4.5141 22.3948 4.52378 22.3152 4.61844ZM21.329 4.72384C21.329 4.83285 21.3098 4.85084 21.2431 4.80412C21.1048 4.70728 21.0113 4.78807 20.982 5.02962C20.9628 5.18874 20.9379 5.22435 20.8796 5.17598C20.8557 5.15614 20.7791 5.14881 20.6639 5.15532C20.4081 5.16978 20.2997 5.25023 20.1588 5.53031L20.0525 5.74172L19.9708 5.6386C19.8707 5.51222 19.8294 5.50524 19.8535 5.61882C19.8632 5.66462 19.8773 5.73708 19.8848 5.77981L19.8984 5.8575L19.4665 5.91727C19.229 5.95016 19.0022 5.99376 18.9624 6.01418C18.9226 6.03461 18.8661 6.092 18.8368 6.1417C18.7911 6.21903 18.7738 6.22964 18.7168 6.21516C18.5144 6.16387 18.4878 6.16744 18.4048 6.25686C18.3609 6.30418 18.288 6.39474 18.2428 6.4581C18.1442 6.59638 18.0088 6.67791 17.8125 6.71708C17.6213 6.75525 17.53 6.81389 17.417 6.97119C17.3168 7.11058 17.2326 7.16563 17.0431 7.21567C16.9323 7.24489 16.9132 7.24253 16.8016 7.18604C16.6515 7.11006 16.5202 7.10829 16.3477 7.17986C16.1372 7.26729 16.091 7.32534 16.0787 7.51781C16.0727 7.6116 16.0807 7.70477 16.0973 7.73576C16.1326 7.80176 16.0942 7.87609 16.0035 7.91743C15.9111 7.95952 15.8811 7.95106 15.8508 7.8744C15.8251 7.80947 15.8227 7.80847 15.8202 7.86158C15.8183 7.90216 15.8015 7.91925 15.7638 7.91925C15.7318 7.91925 15.7047 7.93983 15.6968 7.97023C15.6841 8.01886 15.6801 8.01927 15.6119 7.97895C15.5095 7.91848 15.4037 7.96916 15.2742 8.14071C15.1702 8.27838 15.0759 8.32867 14.9202 8.32936C14.8081 8.32987 14.6591 8.38293 14.6029 8.44239C14.4655 8.5878 14.4075 8.67246 14.4075 8.72798C14.4075 8.78709 14.4059 8.78745 14.3151 8.74951C14.2604 8.72665 14.1926 8.71755 14.1488 8.72716C14.0597 8.74674 13.9228 8.90038 13.841 9.07273C13.788 9.1844 13.7766 9.19458 13.7409 9.16231C13.6652 9.09382 13.5051 9.0423 13.4184 9.05858C13.3068 9.07949 13.1912 9.21537 13.1361 9.39033C13.0988 9.50854 13.0555 9.56616 12.8589 9.75906C12.63 9.98367 12.6228 9.98823 12.4542 10.0176C12.3598 10.034 12.2197 10.0401 12.1429 10.031C12.0098 10.0154 12.001 10.018 11.9556 10.0874C11.9191 10.1434 11.9095 10.2007 11.9141 10.3349C11.9199 10.5011 11.9178 10.5082 11.8699 10.4826C11.8423 10.4678 11.7877 10.4156 11.7485 10.3665C11.7094 10.3175 11.6674 10.2774 11.6552 10.2774C11.6429 10.2774 11.6377 10.3523 11.6436 10.444C11.6494 10.5356 11.6438 10.6106 11.6312 10.6106C11.6186 10.6106 11.5745 10.6466 11.5334 10.6907L11.4585 10.7708L11.3094 10.7415C11.1878 10.7176 11.1441 10.719 11.0721 10.749C11.0235 10.7693 10.8708 10.7985 10.7327 10.8139C10.5945 10.8293 10.4492 10.8586 10.4096 10.8791C10.3151 10.928 10.2068 11.0585 10.1896 11.1444C10.182 11.1821 10.1674 11.2414 10.1572 11.2763C10.127 11.3789 9.89167 11.5219 9.58517 11.624C9.27629 11.7269 8.99769 11.863 8.88984 11.9637C8.85126 11.9998 8.81253 12.0674 8.80379 12.114C8.78869 12.1944 8.78512 12.1968 8.73367 12.1608C8.66043 12.1095 8.62216 12.113 8.5552 12.1769C8.42682 12.2994 8.12053 12.4482 7.60475 12.6387C7.36052 12.7289 7.28046 12.7831 7.21668 12.9016C7.17054 12.9872 7.16257 12.9912 7.0631 12.9775C6.96787 12.9645 6.9168 12.9848 6.51071 13.1971C5.90867 13.5119 5.39471 13.753 4.94135 13.9331C4.60173 14.0681 4.56356 14.0895 4.54954 14.1533C4.5287 14.2482 4.50229 14.2596 4.4118 14.2129C4.25058 14.1295 4.11938 14.174 4.07336 14.3276C4.0467 14.4165 4.03307 14.4297 3.96747 14.4297C3.92606 14.4297 3.8609 14.4519 3.8227 14.4791C3.77556 14.5127 3.74134 14.5211 3.71621 14.5052C3.64849 14.4623 3.56604 14.4793 3.523 14.545C3.49814 14.583 3.45671 14.6091 3.42138 14.6091C3.3886 14.6091 3.35463 14.6206 3.34591 14.6347C3.3372 14.6488 3.30731 14.6604 3.27952 14.6604C3.2517 14.6604 3.22325 14.6752 3.21628 14.6934C3.20802 14.7149 3.16157 14.7248 3.08343 14.7217C2.98966 14.7179 2.95082 14.7024 2.90655 14.651C2.82198 14.5527 2.69029 14.4811 2.59362 14.481C2.46683 14.4809 2.25306 14.5479 1.93538 14.6873C1.43088 14.9087 1.25449 14.9162 1.09298 14.723C1.0401 14.6598 0.967269 14.5886 0.931149 14.565C0.868086 14.5237 0.8636 14.5243 0.817534 14.5812C0.791155 14.6138 0.76957 14.6737 0.76957 14.7145C0.76957 14.8053 0.753215 14.8072 0.687896 14.7242C0.624885 14.6441 0.590123 14.6627 0.590123 14.7764C0.590123 14.8357 0.579818 14.8599 0.558079 14.8518C0.540468 14.8451 0.506373 14.8743 0.482378 14.9166C0.456128 14.9628 0.417752 14.9936 0.386246 14.9936C0.3309 14.9936 0.329849 14.9952 0.31862 15.0961C0.314698 15.1313 0.282731 15.2363 0.24756 15.3293C0.11459 15.6811 0.0642931 16.0677 0.0261479 17.0315L0 17.6917L0.0928763 17.9638C0.214464 18.3201 0.262223 18.4098 0.417957 18.5745C0.563258 18.7281 0.99475 19.0479 1.13674 19.1072C1.3339 19.1896 1.44411 19.1367 1.51353 18.9264C1.55239 18.8087 1.60264 18.8146 1.73046 18.9518C1.83107 19.0598 1.83902 19.0805 1.89639 19.3834C1.94597 19.6452 1.95141 19.7167 1.92708 19.7864C1.88568 19.9052 1.89029 20.2126 1.93869 20.5573C1.96133 20.7185 1.98255 20.96 1.98589 21.0939C1.99263 21.3645 2.03613 21.4956 2.18879 21.7052C2.30835 21.8693 2.36916 21.9967 2.4355 22.2217C2.5122 22.4819 2.68432 22.899 2.85754 23.2443C2.96605 23.4607 3.00471 23.5681 3.01724 23.6878L3.03375 23.8459L2.95234 23.7879C2.85318 23.7173 2.8116 23.6403 2.7472 23.4079C2.67901 23.1619 2.59257 23.0048 2.54922 23.0482C2.52556 23.0718 2.67717 23.592 2.91127 24.2904C3.04457 24.6882 3.15365 25.0265 3.15365 25.0423C3.15365 25.058 3.19343 25.1389 3.24206 25.2218C3.38016 25.4574 3.40472 25.5637 3.44915 26.1183C3.47199 26.4035 3.50085 26.6636 3.51329 26.6963C3.52572 26.729 3.57917 26.8054 3.63205 26.8661C3.78264 27.0387 3.79022 27.0495 3.83191 27.1493L3.87126 27.2434L3.75518 27.3114C3.67463 27.3586 3.6429 27.3923 3.65149 27.4214C3.65828 27.4445 3.69453 27.5792 3.73201 27.7209C3.79914 27.9746 3.80596 27.9867 4.20216 28.5562C4.42326 28.8741 4.75759 29.3983 4.94512 29.7213C5.40478 30.5129 5.90167 31.1671 6.04333 31.1671C6.06253 31.1671 6.13257 31.2174 6.19894 31.279C6.27474 31.3493 6.49928 31.4851 6.80275 31.6442C7.26606 31.8872 7.28997 31.9036 7.38498 32.0421C7.43948 32.1217 7.54069 32.237 7.60993 32.2985C7.67914 32.36 7.77917 32.4714 7.83221 32.5462C7.89281 32.6317 7.9417 32.6769 7.96369 32.668C7.98295 32.6601 8.01484 32.6472 8.03455 32.6392C8.0566 32.6302 8.14012 32.6944 8.25155 32.8058C8.43925 32.9935 8.49088 33.0183 8.53459 32.9421C8.5583 32.9007 8.56353 32.9018 8.60211 32.9559C8.72021 33.1217 8.83834 33.1616 8.82447 33.0309C8.81442 32.936 8.84239 32.9432 8.96124 33.0659C9.15063 33.2615 9.30831 33.2978 9.41278 33.1698C9.44574 33.1294 9.48589 33.0746 9.50194 33.0481C9.52978 33.002 9.53465 33.0031 9.60589 33.0703C9.64698 33.109 9.70184 33.1407 9.72776 33.1407C9.77077 33.1407 9.77341 33.1244 9.75775 32.9549C9.74124 32.7761 9.74222 32.7714 9.78354 32.8301C9.82502 32.8891 9.83414 32.8906 10.0543 32.874C10.3224 32.8538 10.3911 32.8313 10.4819 32.7346C10.519 32.695 10.6054 32.6413 10.6738 32.6152C10.7961 32.5687 10.798 32.5663 10.783 32.4762C10.7747 32.4258 10.7678 32.3603 10.7676 32.3305C10.7674 32.3008 10.7398 32.2358 10.7061 32.1863C10.661 32.1197 10.6268 31.9945 10.5755 31.7078C10.5373 31.4942 10.5122 31.3034 10.5197 31.2838C10.5273 31.2641 10.632 31.1992 10.7525 31.1396C10.8779 31.0774 10.9779 31.0108 10.9865 30.9836C10.9948 30.9574 10.9883 30.872 10.972 30.7937C10.9558 30.7154 10.9495 30.633 10.9581 30.6106C10.9717 30.5753 10.9815 30.5772 11.0324 30.625C11.1194 30.7067 11.1518 30.6943 11.1518 30.5793C11.1518 30.4998 11.1631 30.4749 11.205 30.4616C11.2343 30.4523 11.2614 30.4487 11.2652 30.4535C11.2689 30.4583 11.3096 30.6064 11.3556 30.7826C11.4251 31.0494 11.4582 31.1299 11.5531 31.2632C11.6158 31.3513 11.6769 31.4234 11.6888 31.4234C11.7154 31.4234 11.7415 31.3589 11.7415 31.2926C11.7415 31.2438 11.7433 31.2439 11.843 31.2948C12.0422 31.3964 12.1788 31.3344 12.2182 31.1244L12.2349 31.0356L12.2995 31.1265C12.335 31.1764 12.3844 31.2237 12.4091 31.2315C12.4581 31.2471 12.473 31.2901 12.4992 31.4912C12.5146 31.6093 12.511 31.6249 12.4644 31.6397C12.428 31.6512 12.3927 31.6365 12.3472 31.5911C12.2361 31.48 12.1773 31.5145 12.1773 31.6907C12.1773 31.7418 12.1573 31.7924 12.126 31.8207C12.091 31.8523 12.0747 31.8997 12.0747 31.9692V32.0714L12.2166 32.0568C12.3139 32.0467 12.4195 32.0092 12.5529 31.9372C12.6848 31.8661 12.757 31.8403 12.7772 31.8571C12.7936 31.8707 12.8224 31.8724 12.8412 31.8608C12.8876 31.8321 12.5758 30.9998 12.4151 30.7233C12.3374 30.5896 12.3071 30.5144 12.3242 30.4973C12.3638 30.4577 12.4685 30.563 12.6333 30.8083C12.8149 31.0785 12.8662 31.0926 12.9126 30.8852C12.9491 30.7217 12.9159 30.5303 12.809 30.2887C12.7319 30.1143 12.7599 30.0586 12.8756 30.1559C12.9651 30.2312 12.9974 30.2187 12.9981 30.1083C12.9986 30.039 13.0237 30.0062 13.1628 29.8933C13.2945 29.7864 13.3325 29.7669 13.3553 29.7944C13.3998 29.848 13.6336 29.8658 13.7818 29.8269C13.9112 29.7929 14.0729 29.7064 14.209 29.5982L14.2796 29.5421L14.3802 29.6404C14.4918 29.7493 14.5762 29.7524 14.556 29.6468C14.5498 29.6145 14.5588 29.5749 14.5761 29.5588C14.5933 29.5427 14.6131 29.5145 14.6201 29.4961C14.6291 29.4725 14.6455 29.4797 14.6755 29.5203C14.7129 29.571 14.7408 29.5779 14.907 29.5779C15.1469 29.5779 15.1766 29.5524 15.1766 29.3459V29.1943L15.3039 29.1298C15.3739 29.0944 15.4377 29.0653 15.4455 29.0653C15.4534 29.0653 15.4711 29.0949 15.4848 29.1311C15.5045 29.1827 15.5246 29.1951 15.5781 29.1888C15.6372 29.1818 15.654 29.1582 15.7025 29.0141C15.8577 28.5528 15.9891 28.4427 16.2075 28.5911C16.2594 28.6264 16.3319 28.6552 16.3687 28.6552C16.4269 28.6552 16.4467 28.6309 16.5206 28.4689C16.6352 28.2173 16.6587 28.2004 16.7798 28.2826C16.9428 28.3932 16.9795 28.3665 17.0357 28.0968C17.0812 27.8786 17.0941 27.8416 17.1557 27.7527C17.2202 27.6596 17.3418 27.6394 17.5389 27.689C17.7188 27.7343 17.7548 27.7269 17.7842 27.6386C17.8001 27.5911 17.8416 27.5623 17.9459 27.5263C18.023 27.4996 18.1 27.4775 18.1168 27.477C18.1337 27.4765 18.2003 27.531 18.265 27.5979C18.3921 27.7296 18.3884 27.7089 18.3398 28.0153C18.3293 28.0811 18.3383 28.1216 18.3724 28.1634L18.4194 28.2208L18.5142 28.1561C18.6185 28.0848 18.6775 28.0743 18.6973 28.1234C18.7044 28.141 18.711 28.115 18.7121 28.0657C18.7166 27.8523 18.5815 27.6127 18.4723 27.6401C18.4234 27.6523 18.4146 27.6391 18.3926 27.5202L18.3678 27.3864L18.4895 27.4472C18.6044 27.5047 18.6147 27.5057 18.6752 27.4661L18.7392 27.4242L18.7556 27.5271C18.772 27.6296 18.7981 27.6553 18.8312 27.6017C18.8412 27.5855 18.8805 27.6315 18.9229 27.709C19.0104 27.869 19.0681 27.9375 19.1156 27.9375C19.1345 27.9375 19.15 27.9164 19.15 27.8905C19.15 27.8144 19.1834 27.803 19.2291 27.8635C19.2526 27.8946 19.2987 27.922 19.3315 27.9244C19.3744 27.9276 19.3969 27.95 19.4109 28.0037C19.4216 28.0448 19.4684 28.1419 19.5148 28.2195C19.5798 28.328 19.6134 28.3604 19.661 28.3604C19.7159 28.3604 19.7261 28.3436 19.753 28.2091C19.7952 27.9979 19.8622 27.9536 20.0323 28.0246C20.0974 28.0519 20.1966 28.0571 20.443 28.0465C20.748 28.0333 20.7739 28.0281 20.8681 27.9599C21.0252 27.8461 21.0565 27.7617 21.0395 27.4987C21.0223 27.233 21.0477 27.194 21.2513 27.1744C21.373 27.1628 21.38 27.1579 21.3954 27.0757C21.4044 27.0281 21.4043 26.9499 21.3953 26.9019L21.3789 26.8145L21.4748 26.8634C21.7021 26.9793 21.8741 26.8984 22.1545 26.5437C22.267 26.4015 22.4359 26.2227 22.5298 26.1465C22.8064 25.9219 23.1867 25.5198 23.6754 24.9352C23.9272 24.634 24.2379 24.2664 24.3658 24.1184C24.5022 23.9606 24.6286 23.7846 24.6713 23.6929C24.737 23.5522 24.7431 23.5162 24.7328 23.3341C24.7265 23.2227 24.7125 23.1114 24.7015 23.0866C24.6721 23.0199 24.906 22.9212 25.1359 22.9034C25.3812 22.8843 25.417 22.8416 25.3961 22.5924L25.381 22.412L25.4503 22.413C25.5056 22.4137 25.5355 22.3892 25.597 22.2924C25.6867 22.1514 25.7422 22.1247 25.8284 22.1811C25.8624 22.2034 25.8961 22.2217 25.9032 22.2217C25.9603 22.2217 26.3792 21.5191 26.3792 21.4233C26.3792 21.392 26.3977 21.3758 26.4337 21.3758C26.4638 21.3758 26.5495 21.3409 26.6242 21.2981C26.7526 21.2246 26.7666 21.222 26.8791 21.2503C27.1826 21.3268 27.369 21.1289 27.474 20.6187C27.5108 20.44 27.5131 20.3878 27.4871 20.3189C27.4667 20.2651 27.4647 20.2323 27.4813 20.2267C27.4955 20.222 27.5071 20.1992 27.5071 20.1761C27.5071 20.1436 27.5161 20.147 27.5471 20.1911C27.6425 20.3274 27.765 20.2095 27.7152 20.0292C27.7002 19.9749 27.6909 19.9277 27.6944 19.9241C27.6979 19.9206 27.7467 19.9283 27.8027 19.9413C27.8932 19.9624 27.9087 19.9588 27.9429 19.9085C27.9641 19.8774 28.029 19.7982 28.0871 19.7324C28.1578 19.6524 28.2031 19.5703 28.2236 19.4845C28.2542 19.3572 28.2554 19.356 28.3742 19.3387C28.5477 19.3135 28.712 19.2121 28.712 19.1303C28.712 19.0344 28.7528 18.9751 28.8396 18.9449C28.929 18.9137 28.9357 18.8717 28.8774 18.707C28.818 18.5391 28.7875 18.3849 28.8047 18.34C28.8247 18.2878 28.9135 18.2889 28.9722 18.342C29.028 18.3925 29.034 18.3801 29.0583 18.1635C29.0716 18.0448 29.083 18.0173 29.1138 18.0291C29.2267 18.0724 29.276 18.0735 29.2916 18.0329C29.3047 17.9988 29.3304 18.0124 29.4306 18.1061C29.5658 18.2326 29.6655 18.2721 29.7249 18.2229C29.7929 18.1665 29.768 18.0456 29.6477 17.8474C29.522 17.6404 29.5007 17.5533 29.581 17.5743C29.6784 17.5997 29.7325 17.5405 29.7517 17.3875C29.7915 17.0683 29.6714 16.6853 29.3788 16.1983C29.1291 15.7827 29.1149 15.7428 29.1108 15.4421L29.1073 15.1858L28.9808 14.9593C28.9112 14.8348 28.833 14.7215 28.8072 14.7077C28.7063 14.6537 28.2138 14.8308 28.1377 14.9484C28.1171 14.9803 28.0924 15.0381 28.0829 15.0769C28.0614 15.1642 28.0531 15.1642 27.9628 15.0777C27.9023 15.0198 27.8699 15.009 27.7692 15.0134C27.7027 15.0163 27.6271 15.0119 27.6012 15.0037C27.5564 14.9895 27.5567 14.9859 27.6074 14.9319C27.6686 14.8667 27.7164 14.7304 27.7753 14.4524C27.7981 14.3451 27.8391 14.2133 27.8666 14.1594C27.8941 14.1056 27.9124 14.0574 27.9074 14.0523C27.8971 14.0421 27.603 14.1046 27.4375 14.1523C27.378 14.1695 27.3211 14.1753 27.3111 14.1653C27.3011 14.1553 27.2672 14.0706 27.2357 13.977L27.1784 13.8069L27.2723 13.6541C27.3941 13.4557 27.4961 13.3531 27.5718 13.3531C27.6541 13.3531 27.7431 13.2698 27.8727 13.0712C27.9653 12.9293 27.9914 12.9056 28.0485 12.9114C28.1379 12.9206 28.1688 12.8767 28.1784 12.7267C28.1858 12.6116 28.1931 12.599 28.2679 12.5735C28.3818 12.5347 28.3867 12.5247 28.3431 12.4204C28.2985 12.3138 28.2906 12.3115 28.1851 12.3758C28.1086 12.4224 28.1053 12.4224 28.0476 12.3757C27.9687 12.3119 27.9429 12.3149 27.8223 12.4023C27.7658 12.4432 27.6755 12.4993 27.6217 12.5269L27.5238 12.5771L27.4049 12.5154C27.3105 12.4665 27.2724 12.4588 27.2205 12.4786C27.1404 12.509 27.0468 12.6237 27.0289 12.7133C27.0176 12.7695 27.0044 12.7781 26.9429 12.769C26.9028 12.7632 26.8268 12.7727 26.7738 12.7902C26.6799 12.8211 26.6757 12.8198 26.6053 12.7351C26.4746 12.5779 26.3479 12.456 26.3151 12.456C26.2974 12.456 26.2682 12.4384 26.2503 12.4168C26.2075 12.3652 26.1662 12.3811 26.1485 12.456C26.1244 12.5581 26.0855 12.5396 26.013 12.3917C25.9315 12.2257 25.9315 12.2254 25.983 12.2254C26.0048 12.2254 26.0509 12.197 26.0855 12.1624C26.1687 12.0793 26.1697 11.9431 26.0881 11.8328C26.0549 11.7879 26.0008 11.7021 25.968 11.6422C25.8682 11.4601 25.8029 11.5228 25.8678 11.7385C25.8981 11.8392 25.9171 12.2254 25.8918 12.2254C25.8519 12.2254 25.7613 12.0965 25.6912 11.94C25.5193 11.5564 25.5099 11.7776 25.6774 12.2662C25.7426 12.4565 25.7905 12.6174 25.7839 12.624C25.7773 12.6306 25.7056 12.4658 25.6246 12.2577C25.4726 11.8674 25.4252 11.7938 25.2775 11.7184C25.1369 11.6467 25.1214 11.5943 25.2168 11.5128C25.2614 11.4747 25.3054 11.4176 25.3148 11.3857C25.3305 11.332 25.3357 11.3306 25.3869 11.3665C25.5289 11.4659 25.6262 11.3581 25.598 11.1325L25.5799 10.9881L25.6641 11.0839C25.8112 11.2514 25.9178 11.2493 25.9178 11.0789C25.9178 10.9535 25.8388 10.5274 25.8085 10.4888C25.7946 10.4712 25.7732 10.4568 25.7608 10.4568C25.7484 10.4568 25.738 10.4712 25.7377 10.4888C25.7373 10.5065 25.6946 10.542 25.6428 10.5678C25.5573 10.6104 25.5457 10.611 25.5188 10.5742C25.4786 10.5193 25.4563 10.5232 25.4563 10.5854C25.4563 10.6278 25.4447 10.6343 25.3922 10.6211C25.3374 10.6073 25.3281 10.6138 25.3281 10.6656C25.3281 10.699 25.3386 10.7628 25.3514 10.8074C25.4115 11.0169 25.2987 10.8828 25.1358 10.5512L25.0499 10.3764L25.1033 10.282C25.1326 10.2301 25.1966 10.1495 25.2453 10.103C25.3492 10.0037 25.3472 9.94546 25.2317 9.71346L25.1615 9.57249L25.0465 9.57795C24.915 9.58418 24.8784 9.61991 24.8536 9.76629L24.8368 9.86566L24.7639 9.81174C24.6798 9.74958 24.6196 9.76265 24.5863 9.85029C24.5625 9.91283 24.4932 9.95704 24.4722 9.92305C24.4657 9.91267 24.4258 9.81802 24.3833 9.71269C24.3409 9.6074 24.2823 9.47553 24.2532 9.4197C24.1619 9.24482 24.1883 9.20683 24.3015 9.35001C24.4384 9.52323 24.4975 9.53309 24.7395 9.42329C24.8447 9.37554 24.9526 9.32876 24.9792 9.31938C25.0206 9.30472 25.0254 9.28439 25.0127 9.17684C25.0013 9.08108 25.0066 9.04804 25.0348 9.0372C25.0903 9.01593 25.0796 8.96074 25.0066 8.89223C24.9539 8.84276 24.9326 8.8365 24.8956 8.85965C24.8571 8.88367 24.8333 8.87113 24.7478 8.78176C24.6905 8.72193 24.6272 8.67884 24.6032 8.68346C24.5792 8.6881 24.5247 8.65083 24.4784 8.59811C24.4139 8.52462 24.3822 8.50722 24.331 8.51701C24.2862 8.52557 24.2424 8.50978 24.191 8.46654C24.0509 8.34868 23.945 8.43378 23.9442 8.6647C23.944 8.72931 23.9364 8.7896 23.9273 8.7987C23.9183 8.80777 23.8717 8.78086 23.8239 8.73887C23.7209 8.6485 23.7021 8.64583 23.6537 8.71499C23.6228 8.75912 23.6146 8.76115 23.6018 8.7278C23.5762 8.66129 23.508 8.68074 23.508 8.75456V8.82092L23.4292 8.75456C23.3858 8.71806 23.3286 8.6882 23.302 8.6882C23.2755 8.6882 23.1639 8.72757 23.0541 8.77571C22.8632 8.85934 22.8533 8.8679 22.8302 8.9681C22.8114 9.04958 22.7963 9.06993 22.7627 9.05924C22.7376 9.0513 22.7131 9.06188 22.7045 9.08436C22.6896 9.12319 22.6687 9.12332 22.3637 9.08651C22.2921 9.07788 22.2815 9.08513 22.2682 9.15164C22.2524 9.23044 22.2076 9.24571 22.1238 9.20086C22.0711 9.17266 22.0636 9.18584 22.0325 9.36103C22.0231 9.41391 22.0024 9.45723 21.9863 9.4573C21.9702 9.4574 21.9258 9.47381 21.8874 9.4938C21.8491 9.51379 21.7536 9.53817 21.6753 9.54796C21.5099 9.56862 21.4572 9.62168 21.4572 9.7677C21.4572 9.88809 21.4023 9.91142 21.3454 9.81517C21.3217 9.77503 21.2815 9.73558 21.2559 9.72748C21.2304 9.71938 21.1798 9.6674 21.1435 9.61199L21.0775 9.51121L21.1713 9.50341C21.2491 9.49693 21.2725 9.48055 21.3093 9.40681C21.3499 9.3255 21.3621 9.31863 21.4545 9.3253C21.5897 9.33506 21.6826 9.28224 21.839 9.10674C21.9652 8.96518 21.9699 8.95446 21.9699 8.80795V8.65598L21.7996 8.47546C21.6159 8.28071 21.5149 8.09329 21.3842 7.70451C21.3435 7.58325 21.2957 7.46662 21.278 7.44532C21.2404 7.40011 21.1716 7.39488 21.1322 7.43423C21.1125 7.45394 21.0881 7.43863 21.0468 7.3806C20.9809 7.2881 20.9456 7.31173 20.9449 7.44873C20.9445 7.53401 20.8995 7.57033 20.8399 7.5335C20.8173 7.51955 20.7817 7.52594 20.7439 7.55072C20.7108 7.57241 20.6804 7.58632 20.6763 7.58168C20.6722 7.57702 20.6429 7.52178 20.6112 7.45893C20.5493 7.33642 20.5274 7.09602 20.5737 7.0495C20.5883 7.03483 20.6912 6.99962 20.8022 6.97122C21.0566 6.90616 21.2083 6.81789 21.2976 6.68291C21.3585 6.59077 21.367 6.55393 21.3638 6.39597C21.3617 6.29572 21.3371 6.14319 21.3087 6.05455C21.2806 5.96646 21.265 5.89474 21.2741 5.8952C21.2832 5.89566 21.3221 5.96577 21.3606 6.05097C21.4127 6.16639 21.4421 6.20368 21.4757 6.19722C21.5451 6.18384 21.544 6.11287 21.4721 5.95572C21.4359 5.87667 21.4124 5.80219 21.4198 5.79014C21.4273 5.77812 21.4903 5.77068 21.5599 5.77366C21.6618 5.77796 21.6979 5.76763 21.7449 5.72068C21.7958 5.6698 21.8044 5.63135 21.8121 5.42061L21.821 5.17888L21.9446 5.0996C22.0599 5.0256 22.0667 5.01532 22.0467 4.94553C22.0102 4.81842 22.001 4.81573 21.8516 4.88896C21.7122 4.95734 21.7093 4.95765 21.6823 4.90739C21.6365 4.82226 21.4277 4.63841 21.3768 4.63841C21.3398 4.63841 21.329 4.65763 21.329 4.72384ZM23.0731 4.9443C23.0585 4.97157 23.0466 5.05256 23.0466 5.12428C23.0466 5.23757 23.0548 5.25839 23.1091 5.28312C23.1875 5.31885 23.246 5.29735 23.2748 5.22219C23.287 5.1901 23.3215 5.14189 23.3513 5.11503C23.3811 5.08817 23.4055 5.05802 23.4055 5.04803C23.4055 5.01399 23.2107 4.89472 23.1551 4.89472C23.1246 4.89472 23.0877 4.91702 23.0731 4.9443ZM22.3209 6.50429C22.3125 6.54648 22.2783 6.59105 22.2379 6.61268C22.1591 6.65485 22.1237 6.73092 22.1237 6.85831C22.1237 6.9289 22.1483 6.9737 22.2418 7.07364C22.3067 7.14303 22.3817 7.20677 22.4084 7.21523C22.4446 7.22671 22.457 7.25491 22.457 7.32552C22.457 7.37771 22.4927 7.50533 22.5363 7.60914C22.5988 7.75777 22.61 7.80942 22.5893 7.85215C22.5638 7.90482 22.5629 7.90451 22.5613 7.84236C22.5603 7.80711 22.5251 7.70548 22.483 7.61652C22.4073 7.45653 22.4054 7.45483 22.3099 7.46273C22.2191 7.47024 22.213 7.47618 22.2056 7.56456C22.1919 7.7295 22.3146 8.25246 22.367 8.25246C22.3736 8.25246 22.4398 8.22388 22.5141 8.18895C22.5885 8.15401 22.7329 8.10162 22.8351 8.07253C23.0094 8.02291 23.021 8.01509 23.021 7.94737C23.021 7.90764 23.0491 7.83364 23.0835 7.78294L23.1461 7.69075L23.0733 7.61278C23.0273 7.56361 22.9751 7.53478 22.9321 7.53478C22.8313 7.53478 22.7807 7.49915 22.6778 7.35597C22.615 7.26865 22.5672 7.2272 22.5291 7.2272C22.4764 7.2272 22.4758 7.22507 22.5188 7.1936C22.5788 7.14969 22.6005 6.95525 22.5597 6.82655C22.501 6.64134 22.3989 6.43262 22.367 6.43262C22.3495 6.43262 22.3288 6.46487 22.3209 6.50429ZM22.5595 6.65851C22.5595 6.66997 22.5942 6.71257 22.6366 6.75317C22.6953 6.8094 22.7208 6.81989 22.7436 6.79713C22.798 6.74271 22.7278 6.63767 22.637 6.63767C22.5944 6.63767 22.5595 6.64705 22.5595 6.65851ZM21.6664 6.99347C21.6376 7.01166 21.6376 7.02435 21.6661 7.06998C21.7136 7.14602 21.7392 7.13826 21.7392 7.04778C21.7392 6.96778 21.7244 6.95671 21.6664 6.99347ZM21.4829 7.05839C21.4335 7.07369 21.3705 7.09961 21.3428 7.11593C21.2932 7.1452 21.2934 7.14756 21.3531 7.27505C21.3864 7.34623 21.4456 7.43497 21.4845 7.47224C21.5462 7.53137 21.5687 7.53778 21.66 7.52235C21.7293 7.51063 21.7648 7.51409 21.7648 7.53252C21.7648 7.54785 21.7764 7.56041 21.7905 7.56041C21.827 7.56041 21.8222 7.5074 21.7813 7.45991C21.7622 7.43763 21.714 7.33524 21.6742 7.2323C21.6344 7.12936 21.5953 7.04188 21.5872 7.03786C21.5792 7.03386 21.5322 7.04309 21.4829 7.05839ZM19.8037 7.16363C19.8896 7.29166 19.9188 7.30607 19.9197 7.22079C19.9202 7.18158 19.9816 7.25742 20.1118 7.45788C20.2171 7.62 20.3034 7.76131 20.3035 7.77187C20.3036 7.78243 20.2829 7.79109 20.2575 7.79109C20.2321 7.79109 20.1998 7.80268 20.1856 7.81685C20.1175 7.88496 19.6225 7.15922 19.677 7.0711C19.7025 7.02989 19.7253 7.04655 19.8037 7.16363ZM19.1874 7.39232C19.3509 7.36166 19.5346 7.53691 19.5346 7.7235C19.5346 7.75959 19.5633 7.87896 19.5983 7.98877C19.6334 8.09855 19.6622 8.20202 19.6624 8.21868C19.6626 8.23534 19.6278 8.27389 19.585 8.30434C19.5123 8.35609 19.5031 8.35707 19.4449 8.31893C19.3265 8.24136 19.2786 8.27625 19.2779 8.44039C19.2773 8.57575 19.2513 8.63127 19.1732 8.66357C19.1045 8.69204 19.0901 8.68728 18.9855 8.60159C18.8586 8.49758 18.8424 8.49161 18.8424 8.54882C18.8424 8.57083 18.8123 8.65257 18.7754 8.73044L18.7085 8.87203L18.7873 9.0908L18.8661 9.30959L18.7258 9.54793C18.5697 9.81312 18.3939 10.1707 18.4112 10.188C18.4174 10.1941 18.5429 10.1883 18.6901 10.175C19.101 10.138 20.1149 10.1447 20.5138 10.187C21.8332 10.327 22.7991 10.7348 23.472 11.4358C23.9317 11.9147 24.2134 12.4735 24.3727 13.2224C24.4346 13.5138 24.4414 13.598 24.4416 14.0837C24.4418 14.5328 24.4321 14.6771 24.3828 14.9551C24.1396 16.3277 23.5594 17.6642 22.5471 19.1843C21.4862 20.7772 20.2412 22.2609 18.8249 23.6202C16.5813 25.7735 14.3918 27.6045 12.267 29.1044C10.1153 30.6233 8.79248 31.4337 8.29352 31.5386C7.7117 31.6609 7.06879 31.5112 6.71751 31.1715C6.5908 31.049 6.53404 30.9605 6.35672 30.6087C6.24098 30.3791 6.15067 30.1878 6.15602 30.1836C6.16141 30.1793 6.35613 30.068 6.58877 29.9362C7.61016 29.3574 9.0413 28.4389 9.87901 27.8245C9.94561 27.7756 9.95099 27.76 9.94022 27.6469C9.86852 26.8923 10.3038 25.2143 11.6037 21.2349C12.5441 18.3557 13.7509 15.0103 14.4559 13.3279C14.5119 13.1941 14.5551 13.0821 14.5519 13.0788C14.5409 13.0679 14.068 13.2527 13.5764 13.4601C12.7263 13.8187 12.4507 13.9672 11.8353 14.3985C11.5268 14.6146 11.2718 14.788 11.2686 14.7836C11.2654 14.7793 11.2247 14.4782 11.1781 14.1145C11.0801 13.3498 11.086 13.24 11.2414 12.9256C11.3587 12.6882 11.4747 12.5868 11.9594 12.2979C12.8722 11.7537 14.0983 11.2159 15.1853 10.8829L15.5483 10.7716L15.7236 10.4284C16.3596 9.18274 16.7203 8.67354 17.113 8.46672C17.2699 8.38406 17.4727 8.32936 17.6221 8.32936C17.7267 8.32936 17.8382 8.27489 18.0264 8.13179C18.225 7.98079 18.2929 7.89347 18.3291 7.74227C18.3599 7.61403 18.3603 7.6137 18.4216 7.65389C18.4554 7.67606 18.4983 7.68839 18.5168 7.68129C18.5374 7.67337 18.5776 7.71661 18.6204 7.79268C18.7007 7.9354 18.8295 8.07304 18.8829 8.07304C18.9083 8.07304 18.9193 8.0421 18.9193 7.97052C18.9193 7.85292 18.926 7.84936 19.0149 7.91925C19.1383 8.01634 19.227 7.97082 19.227 7.81032C19.227 7.70777 19.1829 7.60209 19.0854 7.4707C19.054 7.42841 19.0137 7.36497 18.9959 7.32973C18.9644 7.26762 18.9655 7.26785 19.031 7.33731C19.0885 7.39834 19.1117 7.40652 19.1874 7.39232ZM26.4312 7.51243C26.4303 7.59012 26.4848 7.6454 26.5498 7.6329C26.5879 7.62557 26.5823 7.61049 26.5134 7.53465L26.432 7.44507L26.4312 7.51243ZM26.1485 7.80473C26.1485 7.82634 26.1658 7.88542 26.1869 7.93602C26.2234 8.02319 26.2283 8.02606 26.2816 7.99066C26.3617 7.93755 26.3633 7.91159 26.2913 7.834C26.2213 7.75847 26.1485 7.74355 26.1485 7.80473ZM21.6367 8.08188C21.6367 8.13522 21.7235 8.2012 21.7937 8.2012C21.8494 8.2012 21.8657 8.2255 21.9315 8.40625C22.0089 8.6192 22.0409 8.64596 22.1353 8.57693C22.1801 8.54418 22.1783 8.53495 22.0963 8.38108C22.0362 8.26838 21.9867 8.20943 21.9324 8.18587C21.8896 8.16731 21.82 8.12864 21.7777 8.09993C21.6886 8.03946 21.6367 8.03283 21.6367 8.08188ZM25.7896 8.92568C25.7896 8.94349 25.7656 9.00273 25.7364 9.05729C25.7022 9.12112 25.6886 9.1804 25.6983 9.22352C25.7113 9.28119 25.7094 9.28396 25.6848 9.24333C25.6618 9.20532 25.638 9.19952 25.5631 9.21355C25.3504 9.25345 25.3197 9.33832 25.4309 9.5789C25.5223 9.77683 25.5731 9.78682 25.5972 9.61166C25.6124 9.50095 25.622 9.48496 25.6701 9.48991C25.7194 9.49498 25.7248 9.48432 25.7197 9.39307L25.7139 9.29054L25.754 9.37192C25.8328 9.53184 25.969 9.5861 25.969 9.45761C25.969 9.42877 25.9814 9.38515 25.9965 9.36067C26.0317 9.30379 25.8817 8.89325 25.8258 8.89325C25.8059 8.89325 25.7896 8.90784 25.7896 8.92568ZM26.2436 10.1172C26.2357 10.2123 26.2162 10.4459 26.2004 10.6362C26.1726 10.9703 26.1738 10.9908 26.2356 11.2327C26.3343 11.619 26.4726 11.8346 26.5634 11.7439C26.5771 11.7302 26.599 11.6339 26.612 11.53C26.6251 11.4261 26.6472 11.3372 26.6613 11.3325C26.6756 11.3277 26.6868 11.228 26.6868 11.1059C26.6868 10.8933 26.6194 10.613 26.463 10.1759C26.4233 10.0649 26.3286 9.94415 26.2813 9.94415C26.2684 9.94415 26.2514 10.022 26.2436 10.1172ZM26.0203 11.3891C26.0203 11.499 26.0554 11.5846 26.1004 11.5846C26.1551 11.5846 26.1667 11.4871 26.1219 11.4035C26.0915 11.3466 26.0203 11.3365 26.0203 11.3891ZM18.945 12.0724C18.5872 12.0965 18.1197 12.1528 17.7145 12.2205L17.4453 12.2655L17.3883 12.3854C17.1739 12.8369 16.2367 15.0728 15.715 16.3777C14.4887 19.4445 13.563 22.019 12.9821 23.9774C12.8185 24.529 12.5111 25.6876 12.5107 25.7538C12.5105 25.7912 12.8969 25.4716 13.6385 24.8211C17.226 21.6735 20.2319 18.1285 21.4821 15.5703C22.1628 14.1776 22.2914 13.3521 21.9089 12.8324C21.7557 12.6243 21.2232 12.3306 20.7907 12.2156C20.2969 12.0843 19.5855 12.029 18.945 12.0724ZM5.46031 14.033C5.44247 14.0545 5.4226 14.0668 5.41614 14.0604C5.39837 14.0426 5.43449 13.9939 5.46546 13.9939C5.48248 13.9939 5.48053 14.0087 5.46031 14.033ZM30.1209 15.2341C30.0145 15.2659 29.8819 15.3141 29.8261 15.3413C29.7274 15.3895 29.7244 15.3949 29.7169 15.5367C29.7103 15.6632 29.7165 15.6863 29.7636 15.7115C29.8096 15.7362 29.8272 15.7304 29.8799 15.6736L29.942 15.6066L30.0379 15.6717C30.2026 15.7836 30.3014 15.7487 30.3014 15.5784C30.3014 15.4871 30.3093 15.4775 30.436 15.4139C30.51 15.3767 30.5755 15.3418 30.5815 15.3362C30.5875 15.3308 30.5594 15.2918 30.519 15.2496C30.4312 15.158 30.3824 15.1561 30.1209 15.2341ZM28.7381 15.9297C28.7652 15.9623 28.7636 15.9661 28.7284 15.9526C28.7053 15.9437 28.6864 15.9262 28.6864 15.9136C28.6864 15.8806 28.7012 15.8852 28.7381 15.9297ZM29.1478 18.1947C29.1478 18.2354 29.1698 18.2959 29.1966 18.329C29.2447 18.3884 29.2462 18.3886 29.2992 18.3407C29.368 18.2784 29.3668 18.2452 29.2936 18.1763C29.2079 18.0959 29.1478 18.1035 29.1478 18.1947ZM18.8168 27.9088C18.8168 27.9684 18.882 28.0285 18.9054 27.9906C18.9249 27.959 18.8766 27.8606 18.8415 27.8606C18.8279 27.8606 18.8168 27.8823 18.8168 27.9088ZM17.7904 28.0303C17.7554 28.1364 17.7698 28.3292 17.817 28.3861C17.8569 28.4341 17.9429 28.4343 18.006 28.3866C18.0616 28.3444 18.0537 28.2924 17.9587 28.0776C17.8865 27.9144 17.8335 27.8995 17.7904 28.0303ZM16.7805 28.636C16.8462 28.8462 16.9718 29.0475 17.0121 29.0072C17.0445 28.9748 16.9361 28.6772 16.8742 28.6286C16.7902 28.5625 16.7584 28.565 16.7805 28.636ZM16.2191 29.595C16.1842 29.6299 16.2035 29.7308 16.2499 29.7556C16.3042 29.7846 16.3302 29.7685 16.3302 29.7058C16.3302 29.6556 16.2443 29.5698 16.2191 29.595ZM15.9058 29.7389C15.8857 29.7914 15.9077 29.8599 15.9448 29.8599C15.9776 29.8599 15.9787 29.7832 15.9466 29.7325C15.9262 29.7001 15.9203 29.7011 15.9058 29.7389ZM15.5673 29.8127C15.5498 29.8302 15.5355 29.8692 15.5355 29.8995C15.5355 29.9613 15.7907 30.2993 15.8226 30.2797C15.859 30.2571 15.8415 30.1073 15.7839 29.9496C15.7376 29.8228 15.7165 29.7945 15.6635 29.7883C15.6281 29.7842 15.5849 29.7951 15.5673 29.8127ZM13.7667 30.0329C13.7669 30.0611 13.9148 30.4523 13.9317 30.4692C13.9396 30.4771 13.9461 30.4257 13.9461 30.355C13.9461 30.2528 13.9303 30.2046 13.869 30.1201C13.7942 30.0168 13.7665 29.9932 13.7667 30.0329ZM15.3304 30.1547C15.3304 30.204 15.3396 30.2444 15.351 30.2444C15.3623 30.2444 15.3726 30.204 15.3741 30.1547C15.3754 30.1053 15.3662 30.0649 15.3535 30.0649C15.3408 30.0649 15.3304 30.1053 15.3304 30.1547ZM14.7997 30.1343C14.7773 30.1423 14.776 30.1636 14.7948 30.213C14.8133 30.2617 14.8115 30.2978 14.7883 30.341L14.7561 30.4012L14.7102 30.342L14.6642 30.2828L14.6479 30.3416C14.6387 30.3751 14.5886 30.4225 14.5319 30.4513C14.4468 30.4947 14.436 30.5094 14.4582 30.5507C14.4972 30.6237 14.6182 30.7104 14.6629 30.6974C14.6846 30.6911 14.7222 30.6777 14.7466 30.6677C14.7791 30.6543 14.7989 30.6672 14.8212 30.716C14.8471 30.773 14.8678 30.7826 14.9637 30.7826C15.0259 30.7826 15.1053 30.802 15.1421 30.8261C15.2051 30.8673 15.2102 30.867 15.244 30.8209C15.2641 30.7934 15.2744 30.7384 15.2677 30.6942C15.2612 30.6512 15.2487 30.5311 15.24 30.4274C15.2313 30.3236 15.2115 30.2109 15.196 30.1768C15.1658 30.1106 15.1079 30.1082 15.1194 30.1737C15.1275 30.2202 14.991 30.2645 14.9762 30.2201C14.9635 30.1818 14.8377 30.1206 14.7997 30.1343ZM13.9787 30.7121C13.9971 30.8877 14.0928 31.1415 14.1405 31.1415C14.1609 31.1415 14.2008 31.1559 14.2292 31.1735C14.3073 31.2219 14.3297 31.1637 14.3306 30.9108C14.331 30.791 14.3383 30.667 14.3468 30.6353C14.3618 30.5791 14.3571 30.5776 14.1634 30.5776H13.9645L13.9787 30.7121ZM13.1258 31.2371C13.0347 31.2689 12.895 31.4449 12.895 31.5279C12.895 31.5783 13.1219 31.5409 13.3113 31.4594C13.4063 31.4184 13.4842 31.3784 13.4844 31.3705C13.4848 31.3482 13.3005 31.2523 13.2283 31.2372C13.1931 31.2298 13.1469 31.2297 13.1258 31.2371ZM11.5492 31.8856C11.4505 31.9257 11.3262 31.9592 11.2731 31.9601C11.1562 31.962 11.1103 32.0354 11.137 32.1776C11.1533 32.2644 11.1596 32.2693 11.2555 32.2693C11.3241 32.2693 11.3742 32.252 11.4103 32.2159C11.4524 32.1738 11.489 32.1643 11.5829 32.171C11.6914 32.1788 11.705 32.1732 11.736 32.1089C11.7641 32.0507 11.7784 32.0428 11.8181 32.0641C11.8928 32.104 11.9185 32.0953 11.9364 32.0241C11.9492 31.9733 11.9365 31.9412 11.8809 31.8831C11.7941 31.7926 11.778 31.7927 11.5492 31.8856ZM10.8699 32.2308C10.8699 32.3084 10.8752 32.3718 10.8818 32.3718C10.9241 32.3718 11.0749 32.2798 11.0749 32.254C11.0749 32.2196 10.9316 32.0898 10.8935 32.0898C10.8805 32.0898 10.8699 32.1533 10.8699 32.2308Z" fill="white"/>
<path d="M56.356 7.32057C57.2651 7.13826 58.1167 7.04772 58.9095 7.04772C59.7195 7.03058 60.4721 7.12235 61.1658 7.32057C61.8608 7.52001 62.4138 7.84303 62.8274 8.29086C63.241 8.72156 63.5053 9.29297 63.6215 10.0063C63.7537 10.7025 63.6619 11.5639 63.3487 12.5917C62.984 13.7859 62.3148 15.0707 61.3395 16.4459C60.3815 17.8225 59.2987 19.1145 58.0922 20.3247C56.8846 21.5189 55.612 22.6788 54.2734 23.8058C52.9508 24.9339 51.7113 25.9029 50.5538 26.7154C49.4134 27.5279 48.4468 28.1825 47.6527 28.6792C46.8598 29.1772 46.3716 29.4341 46.1905 29.4501C45.9091 29.5002 45.662 29.4831 45.4466 29.4011C45.2484 29.335 45.1236 29.2519 45.0746 29.1515L45 29.0035C46.3055 28.2571 47.6613 27.37 49.0659 26.3422C48.9998 26.1097 48.9754 25.8283 48.9925 25.4967C48.9925 24.7846 49.6704 22.3803 51.0249 18.2862C52.3806 14.1921 53.6286 10.8604 54.769 8.29086C53.8109 8.55515 52.9092 8.87083 52.0661 9.23546C51.2231 9.58295 50.637 9.87294 50.3066 10.1054C50.2736 9.85703 50.347 9.67472 50.5293 9.55848C51.852 8.73012 53.3644 8.08285 55.0663 7.61912C55.8274 5.94527 56.3804 5.08266 56.7279 5.03372C56.8931 4.99946 57.0252 5.00802 57.1244 5.05819C57.2235 5.09122 57.2895 5.13283 57.3226 5.18177L57.3483 5.25641C57.199 5.50601 56.8687 6.19366 56.356 7.32057ZM49.909 25.6961C51.8275 24.2377 53.6617 22.6372 55.4138 20.8973C57.166 19.1561 58.6367 17.4823 59.8273 15.8745C61.0337 14.2497 61.8694 12.7911 62.3319 11.4978C62.7944 10.1886 62.6953 9.22689 62.0346 8.61388C60.9101 7.58609 58.9181 7.37074 56.0587 7.96784C54.7531 10.9007 53.4793 14.0588 52.2399 17.4407C51.0004 20.8226 50.2234 23.5745 49.909 25.6961ZM63.427 18.7585C63.4441 18.7585 63.4771 18.8087 63.5261 18.9078C63.2948 19.0901 62.8654 19.5049 62.2376 20.1509C61.6087 20.797 61.2454 21.1542 61.1462 21.2204C60.9811 21.3366 60.7902 21.3696 60.576 21.3194C60.3778 21.2534 60.2457 21.0955 60.1796 20.8472C60.0964 20.5816 60.3607 19.6542 60.9725 18.0623C61.0227 17.9632 61.0961 17.913 61.1952 17.913C61.3114 17.913 61.4105 17.9461 61.4938 18.0121C61.5757 18.0623 61.6259 18.1124 61.6418 18.1614L61.6919 18.2618C61.5097 18.5432 61.3114 19.0485 61.0961 19.7777C60.8979 20.4911 60.8232 20.8888 60.8734 20.972C60.9566 21.005 61.386 20.6404 62.163 19.878C62.94 19.1145 63.3609 18.7426 63.427 18.7585ZM61.84 17.5153C61.807 17.5484 61.758 17.557 61.6919 17.5399C61.6259 17.5068 61.5598 17.4737 61.4938 17.4407C61.4435 17.3905 61.4191 17.3502 61.4191 17.3159C61.5843 16.5867 61.7409 16.1975 61.8902 16.1474C62.0052 16.1144 62.1703 16.1975 62.3857 16.397C62.4359 16.4459 62.4359 16.5047 62.3857 16.5708C62.3197 16.654 62.2376 16.7775 62.1373 16.944C62.0554 17.0932 61.9892 17.2254 61.9391 17.3416L61.84 17.5153ZM77.6815 10.8016C77.9618 10.8347 78.2101 10.9093 78.4255 11.0255C78.6568 11.1418 78.8134 11.258 78.8966 11.3743C78.9957 11.4893 79.0287 11.5896 78.9957 11.6716C78.9785 11.7218 78.9455 11.7548 78.8966 11.7719C78.8636 11.7719 78.822 11.7719 78.7718 11.7719C78.7228 11.7548 78.6726 11.7462 78.6237 11.7462C78.5736 11.7303 78.5405 11.7132 78.5246 11.6973L78.4744 11.6716C74.9371 11.7218 70.7806 12.161 66.0026 12.9894C65.0776 15.7742 64.3495 18.6753 63.821 21.6926C63.2924 24.6928 63.2263 26.6322 63.6227 27.5107C63.8711 27.5609 64.5979 26.5747 65.8043 24.5521C67.0108 22.5296 68.1194 20.5156 69.1276 18.5101L69.4739 18.734C68.5819 20.6734 67.4905 22.7449 66.2008 24.9498C64.9283 27.1547 64.1024 28.2657 63.7219 28.2815C62.4824 28.3146 61.9856 26.8231 62.234 23.8058C62.4824 20.7725 63.334 17.2413 64.7876 13.2133C63.0024 13.5289 61.6552 13.8018 60.7461 14.0343C60.6641 14.0673 60.5981 14.0429 60.5479 13.9597L60.4733 13.8605C60.4243 13.8104 60.4072 13.7529 60.4243 13.6856C60.4573 13.6195 60.5063 13.5705 60.5724 13.5375C62.0443 13.0395 63.5652 12.6089 65.1351 12.2442C66.5238 8.61388 67.8795 6.20957 69.201 5.03372C69.2671 4.99946 69.3417 4.99211 69.4249 5.00802C69.524 5.02515 69.606 5.06675 69.6721 5.13283C69.7553 5.18177 69.7883 5.22337 69.7712 5.25641C68.5819 6.699 67.4489 8.92834 66.3746 11.9457C68.8548 11.4146 71.1513 11.0671 73.2681 10.9007C75.3837 10.7356 76.8544 10.7025 77.6815 10.8016ZM72.381 18.9078C72.4312 18.8907 72.4802 18.9078 72.5304 18.958C72.5793 18.991 72.6209 19.0326 72.6539 19.0815C72.6869 19.1145 72.7041 19.1317 72.7041 19.1317C72.5218 19.2149 72.1988 19.571 71.7362 20.2011C71.2737 20.8141 70.8026 21.4687 70.323 22.165C69.8434 22.8612 69.5461 23.2759 69.431 23.4081C69.1826 23.6736 68.993 23.8229 68.8608 23.8559C68.7287 23.889 68.5794 23.8474 68.4143 23.7311C68.0667 23.5158 67.9432 23.0104 68.0423 22.2151C68.1243 21.4185 68.298 20.5902 68.5623 19.7288C68.8278 18.8503 69.1582 18.0537 69.5546 17.3416C69.951 16.6124 70.2986 16.2221 70.5959 16.1731C70.9923 16.0899 71.2896 16.2392 71.4891 16.6197C71.5221 16.687 71.4891 16.7531 71.3899 16.8191C70.8932 17.1336 70.4307 17.8053 70.0012 18.8331C69.5877 19.8438 69.2903 20.7896 69.108 21.6682C68.9429 22.5467 68.9098 23.0434 69.0089 23.1597C69.0591 23.0765 69.3564 22.6703 69.9021 21.941C70.4478 21.2118 70.9678 20.5327 71.4634 19.9026C71.9761 19.2565 72.282 18.9249 72.381 18.9078ZM74.6655 17.6402C75.1451 16.7947 75.4265 16.3627 75.5085 16.3469C75.5917 16.3138 75.6908 16.3224 75.8058 16.3713C75.938 16.4043 76.0542 16.4631 76.1533 16.5451C76.2524 16.6283 76.3026 16.72 76.3026 16.8191C76.3026 16.8191 76.2439 17.1752 76.1288 17.8886C76.0126 18.6007 75.889 19.3886 75.7569 20.25C75.6247 21.0955 75.5171 21.9251 75.4339 22.7375C75.3519 23.5488 75.3604 24.0627 75.4596 24.278L75.6333 24.6023C75.6333 24.6182 75.6076 24.6268 75.5587 24.6268C75.5085 24.6439 75.4424 24.6353 75.3604 24.6023C75.2944 24.5852 75.2197 24.5436 75.1366 24.4775C75.0545 24.4114 74.9799 24.3037 74.9139 24.1545C74.8478 24.0052 74.7976 23.8314 74.7646 23.632C74.7156 23.3004 74.7315 22.6703 74.8147 21.7428C74.8967 20.797 74.9958 19.9356 75.1121 19.1561L75.2858 18.0121C74.6239 19.0399 73.9717 20.168 73.3269 21.3941C72.6821 22.6042 72.2526 23.5243 72.0372 24.1545C72.0544 24.2205 72.0617 24.278 72.0617 24.3282C72.0788 24.3784 72.0874 24.4114 72.0874 24.4273C72.1033 24.4615 72.1118 24.4861 72.1118 24.502C72.129 24.5852 72.0287 24.5937 71.8145 24.5277C71.6824 24.4775 71.5833 24.3942 71.5172 24.278C71.2028 23.7152 71.5417 21.2705 72.534 16.944C73.1445 14.2913 73.7808 12.0864 74.4428 10.3293C75.1035 8.55515 75.6247 7.43681 76.004 6.97307C76.1203 6.8238 76.2366 6.77364 76.3515 6.8238C76.4678 6.85683 76.5498 6.91434 76.5999 6.99755C76.666 7.08075 76.6904 7.14682 76.6746 7.19699C76.294 7.61055 75.2687 10.6524 73.5997 16.3224C72.7726 19.1072 72.2685 21.2534 72.0874 22.762C72.2526 22.2812 72.6001 21.5189 73.1286 20.4739C73.6744 19.4131 74.1858 18.4685 74.6655 17.6402ZM100.468 8.19053C100.882 8.17462 101.245 8.19053 101.56 8.24069C101.873 8.29086 102.097 8.35693 102.229 8.44014C102.377 8.50621 102.493 8.58084 102.576 8.66405C102.675 8.74603 102.716 8.82067 102.7 8.88674C102.683 8.95403 102.683 8.99441 102.7 9.01154C102.634 9.06171 102.526 9.05314 102.377 8.98708C101.617 8.67139 98.667 9.41777 93.5256 11.225C92.6825 11.5223 91.8395 11.8294 90.9965 12.1451C90.5829 13.0567 90.0384 15.0291 89.3605 18.0623C88.6827 21.0955 88.1211 24.0052 87.6745 26.79C87.2279 29.5749 87.0786 31.1252 87.2279 31.4396C87.2609 31.4726 87.2523 31.4898 87.2034 31.4898C87.0052 31.4396 86.8143 31.3074 86.6332 31.0921C86.6002 31.0579 86.5745 31.0333 86.5586 31.0174C86.2943 29.9395 86.5916 26.9895 87.4506 22.165C88.3266 17.3416 89.0962 14.1664 89.757 12.6419C86.3689 14.0013 83.6244 15.3435 81.5248 16.6699C81.5248 16.6699 81.4012 16.5793 81.1528 16.397C81.0537 16.2967 81.0378 16.2135 81.1039 16.1474C81.7817 15.4181 83.0873 14.5727 85.0217 13.6122C86.955 12.6505 88.9641 11.7878 91.0466 11.0255C93.1292 10.2461 95.071 9.59151 96.8732 9.06171C98.6915 8.51477 99.8894 8.22357 100.468 8.19053ZM93.8425 17.6402C94.3221 16.7947 94.6035 16.3627 94.6855 16.3469C94.7687 16.3138 94.8678 16.3224 94.9829 16.3713C95.115 16.4043 95.2313 16.4631 95.3303 16.5451C95.4294 16.6283 95.4796 16.72 95.4796 16.8191C95.4796 16.8191 95.4209 17.1752 95.3059 17.8886C95.1897 18.6007 95.0661 19.3886 94.9339 20.25C94.8018 21.0955 94.6941 21.9251 94.6109 22.7375C94.5289 23.5488 94.5375 24.0627 94.6366 24.278L94.8103 24.6023C94.8103 24.6182 94.7846 24.6268 94.7357 24.6268C94.6855 24.6439 94.6194 24.6353 94.5375 24.6023C94.4714 24.5852 94.3967 24.5436 94.3135 24.4775C94.2316 24.4114 94.157 24.3037 94.0908 24.1545C94.0248 24.0052 93.9746 23.8314 93.9416 23.632C93.8927 23.3004 93.9086 22.6703 93.9918 21.7428C94.0737 20.797 94.1729 19.9356 94.2891 19.1561L94.4628 18.0121C93.8009 19.0399 93.1487 20.168 92.5039 21.3941C91.8591 22.6042 91.4296 23.5243 91.2143 24.1545C91.2314 24.2205 91.24 24.278 91.24 24.3282C91.2559 24.3784 91.2644 24.4114 91.2644 24.4273C91.2803 24.4615 91.2889 24.4861 91.2889 24.502C91.306 24.5852 91.2069 24.5937 90.9916 24.5277C90.8594 24.4775 90.7603 24.3942 90.6943 24.278C90.3798 23.7152 90.7187 21.2705 91.711 16.944C92.3216 14.2913 92.9591 12.0864 93.6198 10.3293C94.2805 8.55515 94.8018 7.43681 95.1823 6.97307C95.2973 6.8238 95.4135 6.77364 95.5286 6.8238C95.6448 6.85683 95.7268 6.91434 95.777 6.99755C95.843 7.08075 95.8675 7.14682 95.8516 7.19699C95.471 7.61055 94.4457 10.6524 92.7767 16.3224C91.9496 19.1072 91.4455 21.2534 91.2644 22.762C91.4296 22.2812 91.7771 21.5189 92.3057 20.4739C92.8514 19.4131 93.3629 18.4685 93.8425 17.6402ZM100.517 17.9877C100.665 18.0048 100.748 18.0794 100.764 18.2116C100.781 18.3107 100.566 18.6092 100.121 19.1072C99.674 19.5869 99.0953 20.0763 98.3844 20.5743C97.6735 21.0539 97.0543 21.3109 96.5245 21.3451C96.2602 21.3782 96.029 21.2864 95.8308 21.071C95.6815 21.1542 95.5665 21.1958 95.4833 21.1958C95.4172 21.1788 95.3756 21.1371 95.3597 21.071L95.3352 20.9964C95.4343 20.9463 95.5408 20.8802 95.657 20.797C95.4748 20.4323 95.5163 19.9442 95.7806 19.3299C96.0449 18.7169 96.3349 18.2446 96.6494 17.913C96.9137 17.6145 97.1865 17.5068 97.4667 17.59C97.7653 17.6732 97.9048 17.9045 97.8888 18.2862C97.8888 18.668 97.7237 19.0901 97.3933 19.5538C97.0617 20.0017 96.6983 20.392 96.3019 20.7223C96.6163 20.7896 97.2269 20.5486 98.1372 20.0017C99.0451 19.4388 99.8392 18.7671 100.517 17.9877ZM97.3676 18.0867C97.1694 18.2202 96.9626 18.5101 96.7485 18.958C96.5331 19.4045 96.3679 19.8279 96.2517 20.2256C96.6163 19.8438 96.8965 19.4302 97.0948 18.9824C97.2929 18.5346 97.3848 18.2361 97.3676 18.0867ZM116.673 16.6197C116.607 16.6368 116.524 16.6784 116.425 16.7445C116.325 16.8106 116.103 16.9684 115.755 17.2168C115.425 17.4652 115.079 17.7478 114.714 18.0623C114.368 18.3767 113.928 18.8172 113.4 19.3801C112.872 19.9442 112.351 20.5572 111.839 21.2204C111.822 21.2705 111.731 21.3941 111.566 21.5935C112.491 22.554 112.929 23.665 112.88 24.9253C112.847 25.7536 112.665 26.5833 112.334 27.4116C112.004 28.2571 111.516 29.0108 110.871 29.674C110.21 30.3702 109.532 30.7519 108.839 30.818C108.143 30.8841 107.59 30.5941 107.177 29.9481C106.929 29.4672 106.821 28.8872 106.854 28.2069C106.904 27.5437 107.16 26.7154 107.624 25.7206C108.086 24.7258 108.739 23.6736 109.581 22.5626C109.813 22.2481 110.078 21.908 110.375 21.5434C109.979 21.3109 109.433 21.0796 108.739 20.8472C108.061 20.6147 107.459 20.425 106.929 20.2758C106.4 20.1093 105.887 19.8524 105.392 19.5049C104.896 19.1561 104.557 18.734 104.375 18.2361C104.111 17.5068 104.276 16.5121 104.871 15.253C105.482 13.9927 106.499 12.5427 107.921 10.9007C108.797 9.87294 109.607 9.01154 110.351 8.31533C111.095 7.61912 111.657 7.14682 112.037 6.89844C112.433 6.64883 112.713 6.52525 112.88 6.52525C113.045 6.50812 113.202 6.56685 113.351 6.699C113.499 6.81524 113.607 6.93148 113.673 7.04772L113.772 7.24593C113.706 7.27897 113.615 7.32913 113.499 7.39521C113.384 7.46128 113.127 7.64359 112.731 7.94214C112.351 8.24069 111.954 8.58941 111.54 8.98708C111.144 9.3676 110.631 9.93167 110.003 10.678C109.392 11.4073 108.78 12.2185 108.169 13.1142C107.193 14.5397 106.491 15.7253 106.061 16.6699C105.648 17.5986 105.466 18.1785 105.515 18.411L105.614 18.7585C105.614 18.7915 105.64 18.8417 105.689 18.9078C105.755 18.958 106.019 19.0901 106.482 19.3054C106.962 19.5049 107.615 19.7031 108.441 19.9026C109.367 20.1179 110.169 20.4654 110.847 20.9463C111.971 19.5869 113.019 18.4685 113.996 17.59C114.971 16.6943 115.706 16.2061 116.202 16.1229L116.673 16.6197ZM111.441 25.4967C111.872 24.0553 111.764 22.9529 111.119 22.1894C108.524 25.7708 107.474 28.3317 107.97 29.8734C108.036 29.8734 108.119 29.8563 108.219 29.8233C108.335 29.8074 108.541 29.707 108.839 29.5247C109.136 29.3424 109.417 29.1111 109.681 28.8285C109.962 28.5642 110.268 28.1323 110.598 27.5364C110.93 26.9552 111.21 26.2761 111.441 25.4967ZM120.477 18.6337L120.627 18.7585C120.609 18.8087 120.576 18.8748 120.527 18.958C120.494 19.0399 120.411 19.2064 120.279 19.4547C120.163 19.6872 120.048 19.9111 119.932 20.1264C119.816 20.3418 119.676 20.5816 119.51 20.8472C119.361 21.1126 119.222 21.3451 119.089 21.5434C118.956 21.7256 118.824 21.8921 118.692 22.0413C118.577 22.1735 118.478 22.2481 118.395 22.264C118.146 22.3142 117.915 22.2726 117.701 22.1404C117.501 22.0071 117.403 21.8174 117.403 21.5678L117.477 20.8716C116.735 21.6682 116.255 22.0658 116.039 22.0658C115.758 22.0817 115.535 22.0071 115.37 21.8419C115.221 21.6596 115.146 21.5018 115.146 21.3696C115.146 20.9218 115.461 20.168 116.089 19.1072C116.735 18.0293 117.221 17.4652 117.552 17.4162C117.965 17.3502 118.238 17.5325 118.37 17.9632C118.767 17.3 119.022 16.9513 119.138 16.9183C119.205 16.9024 119.262 16.9024 119.312 16.9183C119.379 16.9183 119.436 16.9354 119.485 16.9684C119.535 16.9843 119.577 17.01 119.61 17.0431C119.643 17.0761 119.66 17.1091 119.66 17.1421L119.684 17.1667C118.907 19.024 118.485 20.4654 118.419 21.4932C118.568 21.4442 118.883 21.0796 119.361 20.3993C119.857 19.7031 120.229 19.1145 120.477 18.6337ZM116.312 20.8716C116.528 20.7064 116.79 20.425 117.105 20.0261C117.419 19.6285 117.675 19.2724 117.873 18.958C118.089 18.6423 118.197 18.4856 118.197 18.4856C118.179 18.3021 118.064 18.1124 117.849 17.913C117.8 17.8971 117.668 18.0378 117.452 18.3364C117.254 18.6178 117.031 19.0069 116.783 19.5049C116.552 19.9858 116.396 20.4409 116.312 20.8716ZM124.194 18.411C124.245 18.411 124.278 18.4355 124.293 18.4856C124.245 18.5187 124.029 18.9494 123.649 19.7777C123.269 20.6073 122.865 21.5189 122.435 22.5136C122.004 23.5072 121.607 24.453 121.244 25.3474C120.897 26.2431 120.723 26.7729 120.723 26.9393C120.707 27.1547 120.558 27.2623 120.276 27.2623C120.013 27.2795 119.831 27.1877 119.732 26.9895C119.418 26.3752 119.31 25.4637 119.409 24.2536C119.525 23.0434 119.757 21.7171 120.104 20.2758C120.45 18.8172 120.889 17.3159 121.418 15.7742C121.964 14.2337 122.508 12.8327 123.054 11.5725C123.6 10.2963 124.113 9.23546 124.591 8.38997C125.088 7.54448 125.46 7.08075 125.707 6.99755C125.84 6.96451 125.955 6.97307 126.054 7.02202C126.153 7.07218 126.22 7.12235 126.253 7.17129L126.303 7.27163C125.823 7.70232 125.103 9.08618 124.145 11.4232C123.186 13.7602 122.302 16.3799 121.491 19.281C120.699 22.182 120.327 24.42 120.376 25.9947C120.343 25.8944 120.921 24.6023 122.112 22.1148C123.318 19.6126 124.013 18.3767 124.194 18.411ZM127.959 18.6337L128.109 18.7585C128.091 18.8087 128.059 18.8748 128.01 18.958C127.977 19.0399 127.893 19.2064 127.761 19.4547C127.645 19.6872 127.53 19.9111 127.414 20.1264C127.299 20.3418 127.158 20.5816 126.993 20.8472C126.844 21.1126 126.704 21.3451 126.57 21.5434C126.438 21.7256 126.307 21.8921 126.174 22.0413C126.059 22.1735 125.96 22.2481 125.877 22.264C125.629 22.3142 125.397 22.2726 125.183 22.1404C124.984 22.0071 124.884 21.8174 124.884 21.5678L124.959 20.8716C124.215 21.6682 123.736 22.0658 123.521 22.0658C123.24 22.0817 123.017 22.0071 122.852 21.8419C122.703 21.6596 122.628 21.5018 122.628 21.3696C122.628 20.9218 122.943 20.168 123.572 19.1072C124.215 18.0293 124.704 17.4652 125.034 17.4162C125.447 17.3502 125.72 17.5325 125.852 17.9632C126.249 17.3 126.505 16.9513 126.621 16.9183C126.687 16.9024 126.744 16.9024 126.795 16.9183C126.86 16.9183 126.918 16.9354 126.967 16.9684C127.017 16.9843 127.059 17.01 127.092 17.0431C127.125 17.0761 127.141 17.1091 127.141 17.1421L127.166 17.1667C126.389 19.024 125.968 20.4654 125.901 21.4932C126.051 21.4442 126.365 21.0796 126.844 20.3993C127.339 19.7031 127.711 19.1145 127.959 18.6337ZM123.794 20.8716C124.008 20.7064 124.273 20.425 124.587 20.0261C124.902 19.6285 125.157 19.2724 125.355 18.958C125.571 18.6423 125.678 18.4856 125.678 18.4856C125.662 18.3021 125.547 18.1124 125.331 17.913C125.282 17.8971 125.149 18.0378 124.935 18.3364C124.736 18.6178 124.512 19.0069 124.265 19.5049C124.033 19.9858 123.876 20.4409 123.794 20.8716ZM129.792 17.6145C130.006 17.5814 130.173 17.6732 130.289 17.8886C130.189 17.8555 129.94 18.0867 129.545 18.5848C129.148 19.0815 128.759 19.6872 128.379 20.3993C128.016 21.1126 127.833 21.6841 127.833 22.1148C127.47 22.165 127.263 22.0487 127.213 21.7672C127.147 21.2705 127.188 20.5902 127.338 19.7288C127.503 18.8662 127.692 18.121 127.908 17.4909C128.139 16.8436 128.313 16.5121 128.429 16.4961C128.544 16.479 128.635 16.4875 128.7 16.5206C128.784 16.5537 128.841 16.5953 128.874 16.6454L128.925 16.72C128.544 17.88 128.247 18.991 128.031 20.0518C128.247 19.5049 128.529 18.9739 128.874 18.4599C129.239 17.9461 129.545 17.6646 129.792 17.6145ZM137.65 18.2116L137.947 18.4856C136.542 19.4461 135.17 20.6563 133.831 22.1148C133.187 24.1214 132.435 25.9274 131.575 27.5364C130.714 29.1601 130.096 30.1304 129.715 30.4448C129.269 30.7936 128.905 30.7764 128.625 30.3959C128.26 29.915 128.491 28.9203 129.319 27.4116C130.162 25.9201 131.269 24.3282 132.641 22.6372C132.889 21.941 133.12 21.2705 133.336 20.6232C133.55 19.9601 133.708 19.4461 133.807 19.0815C133.906 18.7169 133.946 18.5187 133.93 18.4856C130.972 21.9997 129.451 23.7898 129.368 23.8559C129.286 23.9721 129.136 23.988 128.921 23.9061C128.724 23.8229 128.592 23.6736 128.525 23.4582C128.425 23.1927 128.724 22.3717 129.418 20.9964C130.128 19.6211 130.575 18.8246 130.756 18.6092C130.855 18.5762 130.972 18.6007 131.104 18.6839C131.236 18.7671 131.294 18.8503 131.278 18.9323C131.112 19.0815 130.873 19.4792 130.558 20.1264C130.261 20.7566 130.004 21.3451 129.79 21.8921L129.467 22.7375C129.484 22.7204 129.856 22.2481 130.583 21.3194C131.327 20.3748 132.079 19.4461 132.839 18.5346C133.616 17.623 134.063 17.1421 134.179 17.0932C134.327 17.059 134.5 17.1091 134.699 17.2413C134.914 17.3575 135.037 17.4737 135.071 17.59C135.088 17.6402 135.095 17.6977 135.095 17.7637C135.095 17.8298 135.071 17.9632 135.022 18.1614C134.989 18.3437 134.906 18.6423 134.774 19.0571C134.657 19.4718 134.485 20.0347 134.252 20.748C135.095 19.8364 135.823 19.1476 136.435 18.6839C137.063 18.203 137.468 18.0464 137.65 18.2116ZM128.997 29.9725C129.79 29.3424 130.798 27.4532 132.021 24.3037C130.467 26.3923 129.459 28.2815 128.997 29.9725Z" fill="white"/>
</svg>
